STARTFONT 2.1
COMMENT
COMMENT Converted from OpenType font "A-OTF-ShinGoPro-Regular.otf" by "otf2bdf 3.0".
COMMENT
FONT -FreeType-A OTF Shin Go Pro R-Medium-R-Normal--30-300-72-72-P-270-ISO10646-1
SIZE 30 72 72
FONTBOUNDINGBOX 38 36 -8 -5
STARTPROPERTIES 19
FOUNDRY "FreeType"
FAMILY_NAME "A OTF Shin Go Pro R"
WEIGHT_NAME "Medium"
SLANT "R"
SETWIDTH_NAME "Normal"
ADD_STYLE_NAME ""
PIXEL_SIZE 30
POINT_SIZE 300
RESOLUTION_X 72
RESOLUTION_Y 72
SPACING "P"
AVERAGE_WIDTH 270
CHARSET_REGISTRY "ISO10646"
CHARSET_ENCODING "1"
FONT_ASCENT 26
FONT_DESCENT 3
COPYRIGHT "Font © Copyright 2002 Morisawa and Company Limited. All rights reserved."
_OTF_FONTFILE "A-OTF-ShinGoPro-Regular.otf"
_OTF_PSNAME "ShinGoPro-Regular"
ENDPROPERTIES
CHARS 9804
STARTCHAR 0000
ENCODING 0
SWIDTH 333 0
DWIDTH 10 0
BBX 0 0 0 0
BITMAP
ENDCHAR
STARTCHAR 0001
ENCODING 1
SWIDTH 333 0
DWIDTH 10 0
BBX 0 0 0 0
BITMAP
ENDCHAR
STARTCHAR 0002
ENCODING 2
SWIDTH 333 0
DWIDTH 10 0
BBX 0 0 0 0
BITMAP
ENDCHAR
STARTCHAR 0003
ENCODING 3
SWIDTH 333 0
DWIDTH 10 0
BBX 0 0 0 0
BITMAP
ENDCHAR
STARTCHAR 0004
ENCODING 4
SWIDTH 333 0
DWIDTH 10 0
BBX 0 0 0 0
BITMAP
ENDCHAR
STARTCHAR 0005
ENCODING 5
SWIDTH 333 0
DWIDTH 10 0
BBX 0 0 0 0
BITMAP
ENDCHAR
STARTCHAR 0006
ENCODING 6
SWIDTH 333 0
DWIDTH 10 0
BBX 0 0 0 0
BITMAP
ENDCHAR
STARTCHAR 0007
ENCODING 7
SWIDTH 333 0
DWIDTH 10 0
BBX 0 0 0 0
BITMAP
ENDCHAR
STARTCHAR 0008
ENCODING 8
SWIDTH 333 0
DWIDTH 10 0
BBX 0 0 0 0
BITMAP
ENDCHAR
STARTCHAR 0009
ENCODING 9
SWIDTH 333 0
DWIDTH 10 0
BBX 0 0 0 0
BITMAP
ENDCHAR
STARTCHAR 000A
ENCODING 10
SWIDTH 333 0
DWIDTH 10 0
BBX 0 0 0 0
BITMAP
ENDCHAR
STARTCHAR 000B
ENCODING 11
SWIDTH 333 0
DWIDTH 10 0
BBX 0 0 0 0
BITMAP
ENDCHAR
STARTCHAR 000C
ENCODING 12
SWIDTH 333 0
DWIDTH 10 0
BBX 0 0 0 0
BITMAP
ENDCHAR
STARTCHAR 000D
ENCODING 13
SWIDTH 333 0
DWIDTH 10 0
BBX 0 0 0 0
BITMAP
ENDCHAR
STARTCHAR 000E
ENCODING 14
SWIDTH 333 0
DWIDTH 10 0
BBX 0 0 0 0
BITMAP
ENDCHAR
STARTCHAR 000F
ENCODING 15
SWIDTH 333 0
DWIDTH 10 0
BBX 0 0 0 0
BITMAP
ENDCHAR
STARTCHAR 0010
ENCODING 16
SWIDTH 333 0
DWIDTH 10 0
BBX 0 0 0 0
BITMAP
ENDCHAR
STARTCHAR 0011
ENCODING 17
SWIDTH 333 0
DWIDTH 10 0
BBX 0 0 0 0
BITMAP
ENDCHAR
STARTCHAR 0012
ENCODING 18
SWIDTH 333 0
DWIDTH 10 0
BBX 0 0 0 0
BITMAP
ENDCHAR
STARTCHAR 0013
ENCODING 19
SWIDTH 333 0
DWIDTH 10 0
BBX 0 0 0 0
BITMAP
ENDCHAR
STARTCHAR 0014
ENCODING 20
SWIDTH 333 0
DWIDTH 10 0
BBX 0 0 0 0
BITMAP
ENDCHAR
STARTCHAR 0015
ENCODING 21
SWIDTH 333 0
DWIDTH 10 0
BBX 0 0 0 0
BITMAP
ENDCHAR
STARTCHAR 0016
ENCODING 22
SWIDTH 333 0
DWIDTH 10 0
BBX 0 0 0 0
BITMAP
ENDCHAR
STARTCHAR 0017
ENCODING 23
SWIDTH 333 0
DWIDTH 10 0
BBX 0 0 0 0
BITMAP
ENDCHAR
STARTCHAR 0018
ENCODING 24
SWIDTH 333 0
DWIDTH 10 0
BBX 0 0 0 0
BITMAP
ENDCHAR
STARTCHAR 0019
ENCODING 25
SWIDTH 333 0
DWIDTH 10 0
BBX 0 0 0 0
BITMAP
ENDCHAR
STARTCHAR 001A
ENCODING 26
SWIDTH 333 0
DWIDTH 10 0
BBX 0 0 0 0
BITMAP
ENDCHAR
STARTCHAR 001B
ENCODING 27
SWIDTH 333 0
DWIDTH 10 0
BBX 0 0 0 0
BITMAP
ENDCHAR
STARTCHAR 001C
ENCODING 28
SWIDTH 333 0
DWIDTH 10 0
BBX 0 0 0 0
BITMAP
ENDCHAR
STARTCHAR 001D
ENCODING 29
SWIDTH 333 0
DWIDTH 10 0
BBX 0 0 0 0
BITMAP
ENDCHAR
STARTCHAR 001E
ENCODING 30
SWIDTH 333 0
DWIDTH 10 0
BBX 0 0 0 0
BITMAP
ENDCHAR
STARTCHAR 001F
ENCODING 31
SWIDTH 333 0
DWIDTH 10 0
BBX 0 0 0 0
BITMAP
ENDCHAR
STARTCHAR 0020
ENCODING 32
SWIDTH 333 0
DWIDTH 10 0
BBX 0 0 0 0
BITMAP
ENDCHAR
STARTCHAR 0021
ENCODING 33
SWIDTH 300 0
DWIDTH 9 0
BBX 3 24 3 0
BITMAP
E0
E0
E0
E0
E0
E0
E0
E0
E0
E0
E0
E0
E0
E0
E0
E0
60
00
00
00
00
E0
E0
E0
ENDCHAR
STARTCHAR 0022
ENCODING 34
SWIDTH 300 0
DWIDTH 9 0
BBX 7 7 1 17
BITMAP
E6
E6
E6
E6
E6
46
46
ENDCHAR
STARTCHAR 0023
ENCODING 35
SWIDTH 700 0
DWIDTH 21 0
BBX 19 24 1 0
BITMAP
018200
018200
010600
010600
030600
030600
3FFFE0
3FFFE0
3FFFE0
020C00
060C00
060800
060800
040800
041800
FFFF80
FFFF80
FFFF80
0C1000
083000
083000
183000
183000
182000
ENDCHAR
STARTCHAR 0024
ENCODING 36
SWIDTH 766 0
DWIDTH 23 0
BBX 19 29 2 -3
BITMAP
00C000
00C000
0FFC00
3FFF00
7FFF80
70C380
E0C1C0
E0C1C0
E0C1C0
E0C000
E0C000
78C000
7FF000
3FFF00
03FFC0
00C3C0
00C1E0
00C0E0
E0C0E0
E0C0E0
E0C0E0
E0C0E0
70C1C0
7FFFC0
3FFF80
07FC00
00C000
00C000
00C000
ENDCHAR
STARTCHAR 0025
ENCODING 37
SWIDTH 1000 0
DWIDTH 30 0
BBX 28 24 1 0
BITMAP
1F801C00
7FC01800
70E03000
E0603000
E0706000
C070E000
C070C000
C071C000
C0718000
E0738000
E0631F80
70E63FE0
7FC670E0
1F8C6070
001CE070
0018E030
0038E030
0030E030
0070E030
0060E030
00C06070
01C070E0
01803FE0
03801F80
ENDCHAR
STARTCHAR 0026
ENCODING 38
SWIDTH 800 0
DWIDTH 24 0
BBX 22 24 2 0
BITMAP
03F800
0FFE00
1FFF00
3C0780
380380
380380
380380
380000
1C0000
1E0000
0F0000
3F8000
79C000
F0E060
E07060
E03860
C01C60
C00E60
E007E0
E003E0
F003C0
7FFFE0
3FFF78
0FFC3C
ENDCHAR
STARTCHAR 0027
ENCODING 39
SWIDTH 200 0
DWIDTH 6 0
BBX 2 7 2 17
BITMAP
C0
C0
C0
C0
C0
C0
C0
ENDCHAR
STARTCHAR 0028
ENCODING 40
SWIDTH 366 0
DWIDTH 11 0
BBX 7 28 3 -4
BITMAP
06
0C
1C
18
38
30
70
60
60
E0
E0
C0
C0
C0
C0
C0
E0
E0
E0
E0
60
70
30
38
18
1C
0C
06
ENDCHAR
STARTCHAR 0029
ENCODING 41
SWIDTH 366 0
DWIDTH 11 0
BBX 7 28 1 -4
BITMAP
C0
60
70
30
18
1C
1C
0C
0E
0E
06
06
06
06
06
06
06
06
0E
0E
0C
1C
1C
18
30
70
60
C0
ENDCHAR
STARTCHAR 002A
ENCODING 42
SWIDTH 433 0
DWIDTH 13 0
BBX 11 11 1 13
BITMAP
0600
0600
4660
F6E0
3F80
0F00
3FC0
F6E0
4660
0600
0600
ENDCHAR
STARTCHAR 002B
ENCODING 43
SWIDTH 766 0
DWIDTH 23 0
BBX 21 20 1 2
BITMAP
007000
007000
007000
007000
007000
007000
007000
007000
007000
FFFFF8
FFFFF8
007000
007000
007000
007000
007000
007000
007000
007000
007000
ENDCHAR
STARTCHAR 002C
ENCODING 44
SWIDTH 266 0
DWIDTH 8 0
BBX 4 6 2 -3
BITMAP
F0
F0
F0
30
E0
C0
ENDCHAR
STARTCHAR 002D
ENCODING 45
SWIDTH 300 0
DWIDTH 9 0
BBX 8 3 1 7
BITMAP
FF
FF
FF
ENDCHAR
STARTCHAR 002E
ENCODING 46
SWIDTH 266 0
DWIDTH 8 0
BBX 4 3 2 0
BITMAP
F0
F0
F0
ENDCHAR
STARTCHAR 002F
ENCODING 47
SWIDTH 500 0
DWIDTH 15 0
BBX 13 24 1 0
BITMAP
0018
0038
0030
0070
0060
00E0
00C0
01C0
0180
0380
0300
0300
0600
0600
0C00
0C00
1C00
1800
3800
3000
7000
6000
E000
C000
ENDCHAR
STARTCHAR 0030
ENCODING 48
SWIDTH 766 0
DWIDTH 23 0
BBX 19 24 2 0
BITMAP
07FC00
1FFF00
3FFF80
7803C0
7001C0
E001C0
E000E0
E000E0
E000E0
E000E0
E000E0
E000E0
E000E0
E000E0
E000E0
E000E0
E000E0
E000E0
E000C0
7001C0
7803C0
3FFF80
1FFF00
07FC00
ENDCHAR
STARTCHAR 0031
ENCODING 49
SWIDTH 766 0
DWIDTH 23 0
BBX 8 24 6 0
BITMAP
FF
FF
FF
07
07
07
07
07
07
07
07
07
07
07
07
07
07
07
07
07
07
07
07
07
ENDCHAR
STARTCHAR 0032
ENCODING 50
SWIDTH 766 0
DWIDTH 23 0
BBX 19 24 2 0
BITMAP
07FC00
1FFF80
3FFFC0
7803C0
7001E0
7000E0
6000E0
E000E0
0000E0
0000E0
0001C0
0007C0
00FF80
0FFE00
3FF000
7C0000
700000
600000
E00000
E00000
E00000
FFFFE0
FFFFE0
FFFFE0
ENDCHAR
STARTCHAR 0033
ENCODING 51
SWIDTH 766 0
DWIDTH 23 0
BBX 19 24 2 0
BITMAP
07FC00
1FFF00
3FFF80
7803C0
7001C0
7000E0
E000E0
0000E0
0001C0
0001C0
001F80
01FF00
01FF80
0003C0
0001C0
0000E0
E000E0
E000E0
E000E0
E001E0
7801C0
7FFFC0
3FFF00
07FC00
ENDCHAR
STARTCHAR 0034
ENCODING 52
SWIDTH 766 0
DWIDTH 23 0
BBX 21 24 1 0
BITMAP
000F80
000F80
001F80
003B80
007380
00E380
01E380
03C380
038380
070380
0E0380
1C0380
3C0380
780380
700380
E00380
FFFFF8
FFFFF8
FFFFF8
000380
000380
000380
000380
000380
ENDCHAR
STARTCHAR 0035
ENCODING 53
SWIDTH 766 0
DWIDTH 23 0
BBX 19 24 2 0
BITMAP
7FFFC0
7FFFC0
7FFFC0
700000
700000
600000
600000
600000
63FC00
6FFF00
7FFF80
7803C0
7001C0
0000E0
0000E0
0000E0
0000E0
E000E0
E000E0
E001C0
7003C0
7FFF80
3FFF00
07FC00
ENDCHAR
STARTCHAR 0036
ENCODING 54
SWIDTH 766 0
DWIDTH 23 0
BBX 19 24 2 0
BITMAP
07FC00
1FFF00
3FFF80
3803C0
7001C0
7000C0
6000C0
E00000
E00000
E3FC00
EFFF00
FFFF80
F803C0
F001C0
E000E0
E000E0
E000E0
E000E0
6000E0
7001C0
7803C0
3FFF80
1FFF00
07FC00
ENDCHAR
STARTCHAR 0037
ENCODING 55
SWIDTH 766 0
DWIDTH 23 0
BBX 19 24 2 0
BITMAP
FFFFE0
FFFFE0
FFFFE0
0000E0
0001C0
000380
000380
000700
000700
000E00
001E00
001C00
003C00
003800
007000
007000
00E000
01E000
01C000
03C000
038000
078000
0F0000
0E0000
ENDCHAR
STARTCHAR 0038
ENCODING 56
SWIDTH 766 0
DWIDTH 23 0
BBX 19 24 2 0
BITMAP
07FC00
1FFF00
3FFF80
7803C0
7001C0
E000C0
E000C0
E000C0
7001C0
7003C0
3E0F80
1FFF00
3FFF80
7803C0
E001C0
E000E0
E000E0
E000E0
E000E0
E000E0
F001C0
7FFFC0
3FFF80
07FC00
ENDCHAR
STARTCHAR 0039
ENCODING 57
SWIDTH 766 0
DWIDTH 23 0
BBX 19 24 2 0
BITMAP
07FC00
1FFF00
3FFF80
7803C0
7001C0
E000C0
E000E0
E000E0
E000E0
E000E0
7001E0
7803E0
3FBFE0
1FFEE0
07F8E0
0000E0
0000E0
E000C0
E001C0
E001C0
F00380
7FFF80
3FFF00
0FFC00
ENDCHAR
STARTCHAR 003A
ENCODING 58
SWIDTH 266 0
DWIDTH 8 0
BBX 4 18 2 0
BITMAP
F0
F0
F0
00
00
00
00
00
00
00
00
00
00
00
00
F0
F0
F0
ENDCHAR
STARTCHAR 003B
ENCODING 59
SWIDTH 266 0
DWIDTH 8 0
BBX 4 21 2 -3
BITMAP
F0
F0
F0
00
00
00
00
00
00
00
00
00
00
00
00
F0
F0
F0
30
E0
C0
ENDCHAR
STARTCHAR 003C
ENCODING 60
SWIDTH 800 0
DWIDTH 24 0
BBX 23 23 1 0
BITMAP
00000C
00003E
000078
0001E0
000780
001F00
007C00
01F000
07C000
1F0000
7C0000
F00000
3C0000
0F0000
03C000
01F000
007C00
001F00
0007C0
0001F0
00007C
00001C
000004
ENDCHAR
STARTCHAR 003D
ENCODING 61
SWIDTH 766 0
DWIDTH 23 0
BBX 21 9 1 7
BITMAP
FFFFF8
FFFFF8
000000
000000
000000
000000
000000
FFFFF8
FFFFF8
ENDCHAR
STARTCHAR 003E
ENCODING 62
SWIDTH 800 0
DWIDTH 24 0
BBX 23 23 1 0
BITMAP
C00000
F00000
7C0000
1F0000
07C000
01F000
007800
001E00
000780
0001E0
0000F8
00003E
0000F8
0003E0
000F80
003E00
00F800
03E000
078000
1E0000
780000
F00000
C00000
ENDCHAR
STARTCHAR 003F
ENCODING 63
SWIDTH 633 0
DWIDTH 19 0
BBX 15 24 2 0
BITMAP
1FF0
7FFC
7FFE
E00E
E00E
C006
C006
C006
000E
000E
003C
00F8
01F0
03C0
0700
0700
0700
0700
0000
0000
0000
0700
0700
0700
ENDCHAR
STARTCHAR 0040
ENCODING 64
SWIDTH 866 0
DWIDTH 26 0
BBX 24 24 1 0
BITMAP
007F00
03FFE0
070070
1C0018
18000C
303E66
20FFC6
61C3C2
4181C3
4181C3
C30183
C30183
C30183
C30382
C30306
430306
63870C
63FDF8
30F9F0
300000
1C0000
0E0060
03F7C0
00FF00
ENDCHAR
STARTCHAR 0041
ENCODING 65
SWIDTH 766 0
DWIDTH 23 0
BBX 21 24 1 0
BITMAP
00F000
00F800
00F800
01DC00
01DC00
039C00
038E00
038E00
070E00
070700
070700
0E0700
0E0380
0E0380
1C03C0
1FFFC0
3FFFC0
3FFFE0
3800E0
7800E0
7000F0
700070
F00070
E00038
ENDCHAR
STARTCHAR 0042
ENCODING 66
SWIDTH 766 0
DWIDTH 23 0
BBX 18 24 3 0
BITMAP
FFFC00
FFFE00
FFFF00
C00780
C00380
C00380
C00380
C00380
C00380
C00700
C03F00
FFFC00
FFFF00
C00780
C00380
C001C0
C001C0
C001C0
C001C0
C001C0
C00380
FFFF80
FFFF00
FFFC00
ENDCHAR
STARTCHAR 0043
ENCODING 67
SWIDTH 766 0
DWIDTH 23 0
BBX 19 24 2 0
BITMAP
03FC00
1FFF00
3FFF80
3803C0
7001C0
7001C0
E000E0
E000E0
E00000
E00000
E00000
E00000
E00000
E00000
E00000
E000E0
E000E0
E000E0
7000E0
7001C0
7803C0
3FFF80
1FFF00
03FC00
ENDCHAR
STARTCHAR 0044
ENCODING 68
SWIDTH 800 0
DWIDTH 24 0
BBX 20 24 2 0
BITMAP
FFFE00
FFFF80
FFFFC0
E001E0
E000E0
E00070
E00070
E00070
E00070
E00030
E00030
E00030
E00030
E00030
E00030
E00070
E00070
E00070
E00070
E000F0
E001E0
FFFFC0
FFFF80
FFFE00
ENDCHAR
STARTCHAR 0045
ENCODING 69
SWIDTH 700 0
DWIDTH 21 0
BBX 17 24 2 0
BITMAP
FFFF80
FFFF80
FFFF80
E00000
E00000
E00000
E00000
E00000
E00000
E00000
FFFF00
FFFF00
FFFF00
E00000
E00000
E00000
E00000
E00000
E00000
E00000
E00000
FFFF80
FFFF80
FFFF80
ENDCHAR
STARTCHAR 0046
ENCODING 70
SWIDTH 633 0
DWIDTH 19 0
BBX 16 24 2 0
BITMAP
FFFF
FFFF
FFFF
E000
E000
E000
E000
E000
E000
E000
FFFF
FFFF
FFFF
E000
E000
E000
E000
E000
E000
E000
E000
E000
E000
E000
ENDCHAR
STARTCHAR 0047
ENCODING 71
SWIDTH 800 0
DWIDTH 24 0
BBX 20 24 2 0
BITMAP
03FE00
0FFFC0
3FFFE0
3801E0
700070
700070
E00070
E00070
E00000
E00000
E00000
E00000
E03FF0
E03FF0
E00030
E00030
E00030
E00070
700070
700070
7800E0
3FFFE0
1FFFC0
03FE00
ENDCHAR
STARTCHAR 0048
ENCODING 72
SWIDTH 800 0
DWIDTH 24 0
BBX 20 24 2 0
BITMAP
E00070
E00070
E00070
E00070
E00070
E00070
E00070
E00070
E00070
E00070
FFFFF0
FFFFF0
FFFFF0
E00070
E00070
E00070
E00070
E00070
E00070
E00070
E00070
E00070
E00070
E00070
ENDCHAR
STARTCHAR 0049
ENCODING 73
SWIDTH 266 0
DWIDTH 8 0
BBX 3 24 2 0
BITMAP
E0
E0
E0
E0
E0
E0
E0
E0
E0
E0
E0
E0
E0
E0
E0
E0
E0
E0
E0
E0
E0
E0
E0
E0
ENDCHAR
STARTCHAR 004A
ENCODING 74
SWIDTH 633 0
DWIDTH 19 0
BBX 15 24 1 0
BITMAP
0006
0006
0006
0006
0006
0006
0006
0006
0006
0006
0006
0006
0006
0006
0006
E006
E006
E006
E00E
E00E
F01E
7FFC
3FF8
0FE0
ENDCHAR
STARTCHAR 004B
ENCODING 75
SWIDTH 766 0
DWIDTH 23 0
BBX 19 24 3 0
BITMAP
C003C0
C00780
C00F00
C01E00
C03C00
C07800
C0E000
C1C000
C38000
CF0000
DE0000
FC0000
DE0000
CF0000
C78000
C3C000
C1E000
C0F000
C07800
C03C00
C01E00
C00F80
C007C0
C001E0
ENDCHAR
STARTCHAR 004C
ENCODING 76
SWIDTH 633 0
DWIDTH 19 0
BBX 16 24 2 0
BITMAP
E000
E000
E000
E000
E000
E000
E000
E000
E000
E000
E000
E000
E000
E000
E000
E000
E000
E000
E000
E000
E000
FFFF
FFFF
FFFF
ENDCHAR
STARTCHAR 004D
ENCODING 77
SWIDTH 933 0
DWIDTH 28 0
BBX 24 24 2 0
BITMAP
F8001F
F8001F
FC001F
FC003F
EC0037
EE0037
E60077
E60067
E70067
E300E7
E300C7
E380C7
E181C7
E18187
E1C187
E0C387
E0C307
E0E307
E06707
E06607
E07607
E03E07
E03C07
E03C07
ENDCHAR
STARTCHAR 004E
ENCODING 78
SWIDTH 800 0
DWIDTH 24 0
BBX 20 24 2 0
BITMAP
F80070
FC0070
FC0070
EE0070
EE0070
E70070
E78070
E38070
E1C070
E1C070
E0E070
E0E070
E07070
E03870
E03870
E01C70
E01C70
E00E70
E00F70
E00770
E003F0
E003F0
E001F0
E001F0
ENDCHAR
STARTCHAR 004F
ENCODING 79
SWIDTH 800 0
DWIDTH 24 0
BBX 20 24 2 0
BITMAP
03FE00
1FFF80
3FFFC0
7801E0
7000F0
700070
E00070
E00070
E00070
E00030
E00030
E00030
E00030
E00030
E00030
E00030
E00070
E00070
700070
7000F0
7801E0
3FFFC0
1FFF80
03FE00
ENDCHAR
STARTCHAR 0050
ENCODING 80
SWIDTH 766 0
DWIDTH 23 0
BBX 19 24 3 0
BITMAP
FFFE00
FFFF80
FFFFC0
C001C0
C001E0
C000E0
C000E0
C000E0
C000E0
C000E0
C001C0
C003C0
FFFF80
FFFF00
FFF800
C00000
C00000
C00000
C00000
C00000
C00000
C00000
C00000
C00000
ENDCHAR
STARTCHAR 0051
ENCODING 81
SWIDTH 800 0
DWIDTH 24 0
BBX 21 25 2 -1
BITMAP
03FE00
1FFF80
3FFFC0
7801E0
7000F0
700070
E00070
E00070
E00070
E00030
E00030
E00030
E00030
E00030
E00030
E03070
E07870
E01E70
700F70
7007F0
7803E0
3FFFE0
1FFFF0
03FE78
000010
ENDCHAR
STARTCHAR 0052
ENCODING 82
SWIDTH 766 0
DWIDTH 23 0
BBX 18 24 3 0
BITMAP
FFFE00
FFFF00
FFFF80
C003C0
C001C0
C001C0
C001C0
C001C0
C001C0
C00380
C00780
FFFF00
FFFE00
FFFF00
C00380
C00380
C001C0
C001C0
C001C0
C001C0
C001C0
C001C0
C001C0
C001C0
ENDCHAR
STARTCHAR 0053
ENCODING 83
SWIDTH 766 0
DWIDTH 23 0
BBX 19 24 2 0
BITMAP
0FF800
3FFF00
7FFF80
700380
E001C0
E001C0
E001C0
E00000
E00000
700000
7FC000
3FFF00
07FF80
0007C0
0001E0
0000E0
E000E0
E000E0
E000E0
E000E0
7801C0
7FFFC0
3FFF80
07FC00
ENDCHAR
STARTCHAR 0054
ENCODING 84
SWIDTH 700 0
DWIDTH 21 0
BBX 19 24 1 0
BITMAP
FFFFE0
FFFFE0
FFFFE0
00E000
00E000
00E000
00E000
00E000
00E000
00E000
00E000
00E000
00E000
00E000
00E000
00E000
00E000
00E000
00E000
00E000
00E000
00E000
00E000
00E000
ENDCHAR
STARTCHAR 0055
ENCODING 85
SWIDTH 800 0
DWIDTH 24 0
BBX 20 24 2 0
BITMAP
E00070
E00070
E00070
E00070
E00070
E00070
E00070
E00070
E00070
E00070
E00070
E00070
E00070
E00070
E00070
E00070
E00070
E00070
700070
7000E0
3C01E0
3FFFC0
1FFF80
03FC00
ENDCHAR
STARTCHAR 0056
ENCODING 86
SWIDTH 766 0
DWIDTH 23 0
BBX 21 24 1 0
BITMAP
E00038
F00070
700070
700070
7800E0
3800E0
3801E0
3C01C0
1C01C0
1C03C0
0E0380
0E0380
0E0700
070700
070700
070E00
038E00
038E00
039C00
01DC00
01DC00
01F800
00F800
00F800
ENDCHAR
STARTCHAR 0057
ENCODING 87
SWIDTH 1000 0
DWIDTH 30 0
BBX 28 24 1 0
BITMAP
E00F0070
E00F0070
E01F8070
701F80E0
701F80E0
701980E0
701980E0
7039C0C0
3839C1C0
3839C1C0
3830C1C0
3830C1C0
1870E180
1C70E380
1C606380
1C606380
0CE07300
0EE07700
0EE07700
0EC03700
06C03600
07C03E00
07C03E00
07C03E00
ENDCHAR
STARTCHAR 0058
ENCODING 88
SWIDTH 766 0
DWIDTH 23 0
BBX 21 24 1 0
BITMAP
700070
7800E0
3C01E0
1C01C0
1E0380
0F0780
070700
038E00
039E00
01DC00
00F800
00F000
00F800
01DC00
03DE00
038E00
070700
0F0780
1E0380
1C01C0
3C01E0
7800E0
700070
F00078
ENDCHAR
STARTCHAR 0059
ENCODING 89
SWIDTH 766 0
DWIDTH 23 0
BBX 21 24 1 0
BITMAP
E00078
700070
7800F0
3801E0
1C01C0
1E03C0
0E0380
0F0700
070F00
038E00
03DC00
01FC00
00F800
00F000
007000
007000
007000
007000
007000
007000
007000
007000
007000
007000
ENDCHAR
STARTCHAR 005A
ENCODING 90
SWIDTH 766 0
DWIDTH 23 0
BBX 20 24 1 0
BITMAP
7FFFF0
7FFFF0
7FFFF0
0001E0
0001C0
000380
000780
000F00
001E00
003C00
003800
007000
00F000
01E000
03C000
078000
070000
0E0000
1E0000
3C0000
780000
FFFFF0
FFFFF0
FFFFF0
ENDCHAR
STARTCHAR 005B
ENCODING 91
SWIDTH 366 0
DWIDTH 11 0
BBX 7 28 3 -4
BITMAP
FE
FE
C0
C0
C0
C0
C0
C0
C0
C0
C0
C0
C0
C0
C0
C0
C0
C0
C0
C0
C0
C0
C0
C0
C0
C0
FE
FE
ENDCHAR
STARTCHAR 005C
ENCODING 92
SWIDTH 500 0
DWIDTH 15 0
BBX 13 24 1 0
BITMAP
C000
E000
6000
7000
3000
3800
1800
1C00
0C00
0E00
0600
0600
0300
0300
0380
0180
01C0
00C0
00E0
0060
0070
0030
0038
0018
ENDCHAR
STARTCHAR 005D
ENCODING 93
SWIDTH 366 0
DWIDTH 11 0
BBX 7 28 1 -4
BITMAP
FE
FE
06
06
06
06
06
06
06
06
06
06
06
06
06
06
06
06
06
06
06
06
06
06
06
06
FE
FE
ENDCHAR
STARTCHAR 005E
ENCODING 94
SWIDTH 700 0
DWIDTH 21 0
BBX 19 15 1 9
BITMAP
004000
00C000
00E000
01F000
033000
031800
061800
0E0C00
0C0600
180600
180300
300180
600180
6000C0
C000E0
ENDCHAR
STARTCHAR 005F
ENCODING 95
SWIDTH 500 0
DWIDTH 15 0
BBX 15 1 0 -3
BITMAP
FFFE
ENDCHAR
STARTCHAR 0060
ENCODING 96
SWIDTH 300 0
DWIDTH 9 0
BBX 5 4 2 20
BITMAP
E0
70
30
18
ENDCHAR
STARTCHAR 0061
ENCODING 97
SWIDTH 633 0
DWIDTH 19 0
BBX 15 18 2 0
BITMAP
0FF0
3FF8
7E7C
E00E
E00E
000E
000E
1FFE
7FFE
F80E
E00E
C00E
C00E
C00E
E01E
F87E
7FFE
3FC6
ENDCHAR
STARTCHAR 0062
ENCODING 98
SWIDTH 633 0
DWIDTH 19 0
BBX 15 24 2 0
BITMAP
E000
E000
E000
E000
E000
E000
E7F0
FFF8
FE7C
F00E
E00E
E006
E006
E006
E006
E006
E006
E006
E006
E00E
F00E
FE7C
FFF8
E7E0
ENDCHAR
STARTCHAR 0063
ENCODING 99
SWIDTH 633 0
DWIDTH 19 0
BBX 16 18 1 0
BITMAP
07F8
1FFE
3F7E
7007
7007
6003
6000
E000
E000
E000
E000
E003
6003
7007
7007
3F7E
1FFE
0FF8
ENDCHAR
STARTCHAR 0064
ENCODING 100
SWIDTH 633 0
DWIDTH 19 0
BBX 16 24 1 0
BITMAP
0007
0007
0007
0007
0007
0007
0FE7
1FFF
3E7F
700F
7007
6007
6007
E007
E007
E007
E007
6007
6007
7007
700F
3E7F
1FFF
0FE7
ENDCHAR
STARTCHAR 0065
ENCODING 101
SWIDTH 633 0
DWIDTH 19 0
BBX 16 18 1 0
BITMAP
07F8
1FFC
3F7E
7007
7007
6003
6003
E003
FFFF
FFFF
E000
E000
6003
7003
7007
3F3F
1FFE
07F8
ENDCHAR
STARTCHAR 0066
ENCODING 102
SWIDTH 366 0
DWIDTH 11 0
BBX 11 24 0 0
BITMAP
03E0
07E0
0F00
0E00
0C00
0C00
FFE0
FFE0
0FE0
0C00
0C00
0C00
0C00
0C00
0C00
0C00
0C00
0C00
0C00
0C00
0C00
0C00
0C00
0C00
ENDCHAR
STARTCHAR 0067
ENCODING 103
SWIDTH 700 0
DWIDTH 21 0
BBX 18 22 2 -4
BITMAP
0FF1C0
3FFFC0
7C3F00
700700
700700
600700
700700
780E00
3FFE00
FFFC00
C00000
C00000
F00000
FFFC00
7FFF00
E00780
C00380
C00380
C00380
F80F80
7FFF00
1FFC00
ENDCHAR
STARTCHAR 0068
ENCODING 104
SWIDTH 633 0
DWIDTH 19 0
BBX 15 24 2 0
BITMAP
E000
E000
E000
E000
E000
E000
E7F0
EFF8
FEFC
F01E
E00E
E00E
E00E
E00E
E00E
E00E
E00E
E00E
E00E
E00E
E00E
E00E
E00E
E00E
ENDCHAR
STARTCHAR 0069
ENCODING 105
SWIDTH 266 0
DWIDTH 8 0
BBX 3 24 2 0
BITMAP
E0
E0
E0
00
00
00
60
60
60
60
60
60
60
60
60
60
60
60
60
60
60
60
60
60
ENDCHAR
STARTCHAR 006A
ENCODING 106
SWIDTH 266 0
DWIDTH 8 0
BBX 5 28 1 -4
BITMAP
38
38
38
00
00
00
38
38
38
38
38
38
38
38
38
38
38
38
38
38
38
38
38
38
38
F0
F0
E0
ENDCHAR
STARTCHAR 006B
ENCODING 107
SWIDTH 566 0
DWIDTH 17 0
BBX 14 24 2 0
BITMAP
E000
E000
E000
E000
E000
E000
E038
E070
E0E0
E1C0
E380
E700
EE00
FC00
FC00
FE00
EE00
E700
E380
E1C0
E0E0
E070
E038
E01C
ENDCHAR
STARTCHAR 006C
ENCODING 108
SWIDTH 266 0
DWIDTH 8 0
BBX 2 24 3 0
BITMAP
C0
C0
C0
C0
C0
C0
C0
C0
C0
C0
C0
C0
C0
C0
C0
C0
C0
C0
C0
C0
C0
C0
C0
C0
ENDCHAR
STARTCHAR 006D
ENCODING 109
SWIDTH 933 0
DWIDTH 28 0
BBX 24 18 2 0
BITMAP
E7E0F8
FFF3FE
FFFFFF
F03E07
E01C07
E01C03
E01C03
E01C03
E01C03
E01C03
E01C03
E01C03
E01C03
E01C03
E01C03
E01C03
E01C03
E01C03
ENDCHAR
STARTCHAR 006E
ENCODING 110
SWIDTH 633 0
DWIDTH 19 0
BBX 15 18 2 0
BITMAP
E7F0
EFF8
FEFC
F01E
E00E
E00E
E00E
E00E
E00E
E00E
E00E
E00E
E00E
E00E
E00E
E00E
E00E
E00E
ENDCHAR
STARTCHAR 006F
ENCODING 111
SWIDTH 633 0
DWIDTH 19 0
BBX 16 18 1 0
BITMAP
07F8
1FFC
3F7E
7007
7007
6003
6003
E003
E003
E003
E003
E003
6003
7007
7007
3F7E
3FFC
0FF0
ENDCHAR
STARTCHAR 0070
ENCODING 112
SWIDTH 633 0
DWIDTH 19 0
BBX 15 22 2 -4
BITMAP
E7F0
FFF8
FEFC
F01E
E00E
E006
E006
E006
E006
E006
E006
E006
E006
E00E
F00E
FEFC
FFF8
E7F0
E000
E000
E000
E000
ENDCHAR
STARTCHAR 0071
ENCODING 113
SWIDTH 633 0
DWIDTH 19 0
BBX 16 22 1 -4
BITMAP
0FE7
1FFF
3E7F
700F
700F
6007
6007
E007
E007
E007
E007
E007
6007
7007
700F
3E7F
3FFF
0FE7
0007
0007
0007
0007
ENDCHAR
STARTCHAR 0072
ENCODING 114
SWIDTH 366 0
DWIDTH 11 0
BBX 9 18 2 0
BITMAP
E780
FF80
FF80
F000
E000
E000
E000
E000
E000
E000
E000
E000
E000
E000
E000
E000
E000
E000
ENDCHAR
STARTCHAR 0073
ENCODING 115
SWIDTH 633 0
DWIDTH 19 0
BBX 15 18 2 0
BITMAP
0FE0
3FF8
7CFC
E01C
E00E
E000
E000
FC00
7FF8
1FFC
001E
000E
C006
C006
E00E
FE7E
7FFC
1FF0
ENDCHAR
STARTCHAR 0074
ENCODING 116
SWIDTH 433 0
DWIDTH 13 0
BBX 12 22 1 0
BITMAP
0C00
0C00
0C00
0C00
FFE0
FFE0
0FE0
0C00
0C00
0C00
0C00
0C00
0C00
0C00
0C00
0C00
0C00
0C00
0E00
0FF0
0FF0
03F0
ENDCHAR
STARTCHAR 0075
ENCODING 117
SWIDTH 633 0
DWIDTH 19 0
BBX 15 18 2 0
BITMAP
E00E
E00E
E00E
E00E
E00E
E00E
E00E
E00E
E00E
E00E
E00E
E00E
E00E
E00E
F01E
7EFE
3FEE
1FCE
ENDCHAR
STARTCHAR 0076
ENCODING 118
SWIDTH 566 0
DWIDTH 17 0
BBX 15 18 1 0
BITMAP
E00E
E00E
E01C
701C
701C
7018
3038
3838
3830
1870
1C70
1C60
0CE0
0EE0
0EC0
07C0
07C0
0780
ENDCHAR
STARTCHAR 0077
ENCODING 119
SWIDTH 800 0
DWIDTH 24 0
BBX 23 18 1 0
BITMAP
C0780E
E0780E
E07C0C
E07C1C
60EC1C
70CC1C
70CE18
70CE38
31C638
31C638
398630
398730
198770
1B8370
1F8360
1F0360
0F03E0
0F01E0
ENDCHAR
STARTCHAR 0078
ENCODING 120
SWIDTH 566 0
DWIDTH 17 0
BBX 15 18 1 0
BITMAP
F01C
701C
3838
3870
1C70
1CE0
0EE0
07C0
0780
07C0
0EE0
1CE0
1C70
3870
3838
703C
F01C
E00E
ENDCHAR
STARTCHAR 0079
ENCODING 121
SWIDTH 566 0
DWIDTH 17 0
BBX 15 22 1 -4
BITMAP
E00E
E00E
601C
701C
701C
3838
3838
3830
1C70
1C70
0C60
0EE0
0EE0
06C0
07C0
03C0
0380
0380
0300
4F00
7E00
7C00
ENDCHAR
STARTCHAR 007A
ENCODING 122
SWIDTH 500 0
DWIDTH 15 0
BBX 13 18 1 0
BITMAP
FFF8
FFF8
0078
0070
00E0
01E0
01C0
0380
0780
0F00
0E00
1C00
3C00
3800
7000
E000
FFF8
FFF8
ENDCHAR
STARTCHAR 007B
ENCODING 123
SWIDTH 333 0
DWIDTH 10 0
BBX 6 28 2 -4
BITMAP
08
1C
18
38
38
30
38
38
38
38
38
38
38
F0
E0
F0
38
38
38
38
38
38
30
38
38
38
1C
08
ENDCHAR
STARTCHAR 007C
ENCODING 124
SWIDTH 266 0
DWIDTH 8 0
BBX 2 28 3 -4
BITMAP
C0
C0
C0
C0
C0
C0
C0
C0
C0
C0
C0
00
00
00
00
00
00
C0
C0
C0
C0
C0
C0
C0
C0
C0
C0
C0
ENDCHAR
STARTCHAR 007D
ENCODING 125
SWIDTH 333 0
DWIDTH 10 0
BBX 6 28 2 -4
BITMAP
40
E0
60
70
70
30
70
70
70
70
70
70
70
3C
1C
3C
70
70
70
70
70
70
30
70
70
70
E0
40
ENDCHAR
STARTCHAR 007E
ENCODING 126
SWIDTH 300 0
DWIDTH 9 0
BBX 10 3 0 20
BITMAP
78C0
FF80
8700
ENDCHAR
STARTCHAR 00A1
ENCODING 161
SWIDTH 300 0
DWIDTH 9 0
BBX 3 24 3 -4
BITMAP
E0
E0
E0
00
00
00
60
60
E0
E0
E0
E0
E0
E0
E0
E0
E0
E0
E0
E0
E0
E0
E0
E0
ENDCHAR
STARTCHAR 00A2
ENCODING 162
SWIDTH 633 0
DWIDTH 19 0
BBX 16 24 1 0
BITMAP
01C0
01C0
01C0
0FF8
1FFE
39FE
71C7
71C7
61C3
61C0
E1C0
E1C0
E1C0
E1C0
61C3
61C3
71C3
71C7
3FFE
1FFE
0FF8
01C0
01C0
01C0
ENDCHAR
STARTCHAR 00A3
ENCODING 163
SWIDTH 766 0
DWIDTH 23 0
BBX 20 24 1 0
BITMAP
00FF00
03FFC0
07FFE0
0F00F0
0E0070
1C0070
1C0030
1C0000
1C0000
1C0000
1C0000
FFF800
FFF800
1C0000
1C0000
1C0000
1C0000
1C0000
1C0000
1C0000
1C0000
FFFFF0
FFFFF0
FFFFF0
ENDCHAR
STARTCHAR 00A4
ENCODING 164
SWIDTH 700 0
DWIDTH 21 0
BBX 19 19 1 3
BITMAP
C1F0C0
E7FDC0
7E0F80
380700
300380
600180
6000C0
6000C0
4000C0
C000C0
6000C0
6000C0
600180
300180
380300
3E0F80
6FFDC0
C3F0E0
000040
ENDCHAR
STARTCHAR 00A5
ENCODING 165
SWIDTH 766 0
DWIDTH 23 0
BBX 21 24 1 0
BITMAP
E00078
700070
7800F0
3801E0
1C01C0
1E03C0
0E0380
0F0700
070F00
038E00
03DC00
7FFFE0
7FFFE0
00F000
007000
7FFFE0
7FFFE0
007000
007000
007000
007000
007000
007000
007000
ENDCHAR
STARTCHAR 00A6
ENCODING 166
SWIDTH 266 0
DWIDTH 8 0
BBX 2 28 3 -4
BITMAP
C0
C0
C0
C0
C0
C0
C0
C0
C0
C0
C0
C0
C0
C0
C0
C0
C0
C0
C0
C0
C0
C0
C0
C0
C0
C0
C0
C0
ENDCHAR
STARTCHAR 00A7
ENCODING 167
SWIDTH 1000 0
DWIDTH 30 0
BBX 14 29 8 -3
BITMAP
0FC0
3FF0
7FF8
7038
6018
6018
6000
7000
7800
3F80
7FF0
73F8
E07C
E01C
E01C
E01C
F01C
7E38
3FF8
07F0
00F8
0038
001C
E01C
E01C
7038
7FF8
3FF0
1FC0
ENDCHAR
STARTCHAR 00A8
ENCODING 168
SWIDTH 1000 0
DWIDTH 30 0
BBX 10 3 10 20
BITMAP
F3C0
F3C0
F3C0
ENDCHAR
STARTCHAR 00A9
ENCODING 169
SWIDTH 866 0
DWIDTH 26 0
BBX 24 24 1 0
BITMAP
007F00
0381C0
040030
180018
107E0C
21FF84
4381C2
4300E2
430061
830001
870001
870001
870001
870001
830061
430061
4300E2
63C1C2
21FF84
107E0C
180018
060030
0381C0
00FE00
ENDCHAR
STARTCHAR 00AA
ENCODING 170
SWIDTH 433 0
DWIDTH 13 0
BBX 9 11 2 13
BITMAP
3F00
7F80
C080
0080
0380
7F80
C080
8080
8180
C180
FE80
ENDCHAR
STARTCHAR 00AB
ENCODING 171
SWIDTH 433 0
DWIDTH 13 0
BBX 11 12 1 3
BITMAP
1C60
18E0
38C0
31C0
7180
E380
E380
7180
31C0
38C0
18E0
1C60
ENDCHAR
STARTCHAR 00AC
ENCODING 172
SWIDTH 700 0
DWIDTH 21 0
BBX 18 10 1 7
BITMAP
FFFFC0
FFFFC0
0000C0
0000C0
0000C0
0000C0
0000C0
0000C0
0000C0
0000C0
ENDCHAR
STARTCHAR 00AD
ENCODING 173
SWIDTH 766 0
DWIDTH 23 0
BBX 21 2 1 11
BITMAP
FFFFF8
FFFFF8
ENDCHAR
STARTCHAR 00AE
ENCODING 174
SWIDTH 866 0
DWIDTH 26 0
BBX 24 24 1 0
BITMAP
007E00
0381C0
060060
080010
100008
23FF04
63FFC6
4380C2
4380C3
8380C1
8380C1
83FF81
83FF81
8381C1
8380C1
4380C1
4380C2
6380C2
2380C4
100008
080018
060020
0381C0
007E00
ENDCHAR
STARTCHAR 00AF
ENCODING 175
SWIDTH 300 0
DWIDTH 9 0
BBX 9 2 0 21
BITMAP
FF80
FF80
ENDCHAR
STARTCHAR 00B0
ENCODING 176
SWIDTH 1000 0
DWIDTH 30 0
BBX 7 7 1 17
BITMAP
38
6C
46
C2
46
6C
38
ENDCHAR
STARTCHAR 00B1
ENCODING 177
SWIDTH 1000 0
DWIDTH 30 0
BBX 22 23 4 1
BITMAP
003000
003000
003000
003000
003000
003000
003000
003000
003000
FFFFFC
FFFFFC
003000
003000
003000
003000
003000
003000
003000
003000
000000
000000
FFFFFC
FFFFFC
ENDCHAR
STARTCHAR 00B2
ENCODING 178
SWIDTH 433 0
DWIDTH 13 0
BBX 10 13 2 11
BITMAP
3F00
7F80
C180
C1C0
C1C0
0180
1F80
7E00
E000
C000
C000
FF80
FF80
ENDCHAR
STARTCHAR 00B3
ENCODING 179
SWIDTH 433 0
DWIDTH 13 0
BBX 10 13 2 11
BITMAP
3F00
7F80
C180
C180
0180
0F80
0F80
0180
00C0
C0C0
C1C0
FF80
3F00
ENDCHAR
STARTCHAR 00B4
ENCODING 180
SWIDTH 1000 0
DWIDTH 30 0
BBX 6 4 12 20
BITMAP
1C
38
70
E0
ENDCHAR
STARTCHAR 00B5
ENCODING 181
SWIDTH 700 0
DWIDTH 21 0
BBX 17 22 3 -4
BITMAP
E01C00
E01C00
E01C00
E01C00
E01C00
E01C00
E01C00
E01C00
E01C00
E01C00
E01C00
E01C00
E01C00
E01C00
E03C00
F87E00
FFEF80
EFC780
E00000
E00000
E00000
E00000
ENDCHAR
STARTCHAR 00B6
ENCODING 182
SWIDTH 1000 0
DWIDTH 30 0
BBX 15 28 6 -3
BITMAP
1FFE
3FFE
7FC6
7FC6
FFC6
FFC6
FFC6
FFC6
FFC6
FFC6
7FC6
7FC6
3FC6
1FC6
00C6
00C6
00C6
00C6
00C6
00C6
00C6
00C6
00C6
00C6
00C6
00C6
00C6
00C6
ENDCHAR
STARTCHAR 00B7
ENCODING 183
SWIDTH 266 0
DWIDTH 8 0
BBX 4 4 2 10
BITMAP
60
F0
F0
60
ENDCHAR
STARTCHAR 00B8
ENCODING 184
SWIDTH 200 0
DWIDTH 6 0
BBX 4 5 1 -5
BITMAP
40
40
F0
30
F0
ENDCHAR
STARTCHAR 00B9
ENCODING 185
SWIDTH 433 0
DWIDTH 13 0
BBX 4 12 4 12
BITMAP
F0
F0
30
30
30
30
30
30
30
30
30
30
ENDCHAR
STARTCHAR 00BA
ENCODING 186
SWIDTH 433 0
DWIDTH 13 0
BBX 10 12 2 12
BITMAP
3F00
FF80
C080
80C0
80C0
80C0
80C0
80C0
C0C0
C180
7F80
0800
ENDCHAR
STARTCHAR 00BB
ENCODING 187
SWIDTH 433 0
DWIDTH 13 0
BBX 11 12 1 3
BITMAP
C300
6300
7180
31C0
38C0
18E0
18E0
38C0
31C0
7180
6380
C300
ENDCHAR
STARTCHAR 00BC
ENCODING 188
SWIDTH 933 0
DWIDTH 28 0
BBX 23 24 4 0
BITMAP
F00020
F00040
300080
300080
300100
300200
300600
300400
300800
301800
301000
302038
304078
00C0F8
0080D8
010198
030398
020718
040E18
0C0C18
080FFE
100018
200018
200018
ENDCHAR
STARTCHAR 00BD
ENCODING 189
SWIDTH 933 0
DWIDTH 28 0
BBX 23 24 4 0
BITMAP
F00020
F00040
300080
300080
300100
300200
300600
300400
300800
301800
301000
3021F8
3043FC
00C70C
00860E
01060E
03000C
02007C
0403F8
0C0700
080600
100600
2007FC
2007FC
ENDCHAR
STARTCHAR 00BE
ENCODING 190
SWIDTH 933 0
DWIDTH 28 0
BBX 25 24 2 0
BITMAP
3F000800
7F801000
C1802000
C1802000
01804000
0F808000
0F818000
01810000
00C20000
C0C60000
C1C40000
FF880E00
3F101E00
00303E00
00203600
00406600
00C0E600
0081C600
01038600
03030600
0203FF80
04000600
08000600
08000600
ENDCHAR
STARTCHAR 00BF
ENCODING 191
SWIDTH 633 0
DWIDTH 19 0
BBX 16 24 1 -4
BITMAP
00E0
00E0
00E0
0000
0000
0000
00E0
00E0
00E0
00E0
03C0
0F80
1F00
3C00
7000
6000
6003
E003
6003
7007
7007
7F7E
3FFE
0FF8
ENDCHAR
STARTCHAR 00C0
ENCODING 192
SWIDTH 766 0
DWIDTH 23 0
BBX 21 30 1 0
BITMAP
01E000
00E000
003000
001800
000000
000000
00F000
00F800
00F800
01DC00
01DC00
039C00
038E00
038E00
070E00
070700
070700
0E0700
0E0380
0E0380
1C03C0
1FFFC0
3FFFC0
3FFFE0
3800E0
7800E0
7000F0
700070
F00070
E00038
ENDCHAR
STARTCHAR 00C1
ENCODING 193
SWIDTH 766 0
DWIDTH 23 0
BBX 21 30 1 0
BITMAP
003800
007000
006000
00C000
000000
000000
00F000
00F800
00F800
01DC00
01DC00
039C00
038E00
038E00
070E00
070700
070700
0E0700
0E0380
0E0380
1C03C0
1FFFC0
3FFFC0
3FFFE0
3800E0
7800E0
7000F0
700070
F00070
E00038
ENDCHAR
STARTCHAR 00C2
ENCODING 194
SWIDTH 766 0
DWIDTH 23 0
BBX 21 30 1 0
BITMAP
007000
00F800
01DC00
030E00
000000
000000
00F000
00F800
00F800
01DC00
01DC00
039C00
038E00
038E00
070E00
070700
070700
0E0700
0E0380
0E0380
1C03C0
1FFFC0
3FFFC0
3FFFE0
3800E0
7800E0
7000F0
700070
F00070
E00038
ENDCHAR
STARTCHAR 00C3
ENCODING 195
SWIDTH 766 0
DWIDTH 23 0
BBX 21 29 1 0
BITMAP
01E200
03FE00
061800
000000
000000
00F000
00F800
00F800
01DC00
01DC00
039C00
038E00
038E00
070E00
070700
070700
0E0700
0E0380
0E0380
1C03C0
1FFFC0
3FFFC0
3FFFE0
3800E0
7800E0
7000F0
700070
F00070
E00038
ENDCHAR
STARTCHAR 00C4
ENCODING 196
SWIDTH 766 0
DWIDTH 23 0
BBX 21 30 1 0
BITMAP
038E00
038E00
038E00
000000
000000
000000
00F000
00F800
00F800
01DC00
01DC00
039C00
038E00
038E00
070E00
070700
070700
0E0700
0E0380
0E0380
1C03C0
1FFFC0
3FFFC0
3FFFE0
3800E0
7800E0
7000F0
700070
F00070
E00038
ENDCHAR
STARTCHAR 00C5
ENCODING 197
SWIDTH 766 0
DWIDTH 23 0
BBX 21 31 1 0
BITMAP
00F800
008800
018800
008800
00F000
000000
000000
00F000
00F800
00F800
01DC00
01DC00
039C00
038E00
038E00
070E00
070700
070700
0E0700
0E0380
0E0380
1C03C0
1FFFC0
3FFFC0
3FFFE0
3800E0
7800E0
7000F0
700070
F00070
E00038
ENDCHAR
STARTCHAR 00C6
ENCODING 198
SWIDTH 1000 0
DWIDTH 30 0
BBX 28 24 1 0
BITMAP
003FFFF0
003FFFF0
0073FFF0
00738000
00E38000
00E38000
01E38000
01C38000
01C38000
03838000
0383FFE0
0703FFE0
0703FFE0
0E038000
0E038000
1E038000
1FFF8000
3FFF8000
38038000
38038000
70038000
7003FFF0
F003FFF0
E003FFF0
ENDCHAR
STARTCHAR 00C7
ENCODING 199
SWIDTH 766 0
DWIDTH 23 0
BBX 19 29 2 -5
BITMAP
03FC00
1FFF00
3FFF80
3803C0
7001C0
7001C0
E000E0
E000E0
E00000
E00000
E00000
E00000
E00000
E00000
E00000
E000E0
E000E0
E000E0
7000E0
7001C0
7803C0
3FFF80
1FFF00
07FC00
00C000
00E000
003000
003000
01E000
ENDCHAR
STARTCHAR 00C8
ENCODING 200
SWIDTH 700 0
DWIDTH 21 0
BBX 17 30 2 0
BITMAP
070000
038000
01C000
006000
000000
000000
FFFF80
FFFF80
FFFF80
E00000
E00000
E00000
E00000
E00000
E00000
E00000
FFFF00
FFFF00
FFFF00
E00000
E00000
E00000
E00000
E00000
E00000
E00000
E00000
FFFF80
FFFF80
FFFF80
ENDCHAR
STARTCHAR 00C9
ENCODING 201
SWIDTH 700 0
DWIDTH 21 0
BBX 17 30 2 0
BITMAP
00E000
01C000
038000
030000
000000
000000
FFFF80
FFFF80
FFFF80
E00000
E00000
E00000
E00000
E00000
E00000
E00000
FFFF00
FFFF00
FFFF00
E00000
E00000
E00000
E00000
E00000
E00000
E00000
E00000
FFFF80
FFFF80
FFFF80
ENDCHAR
STARTCHAR 00CA
ENCODING 202
SWIDTH 700 0
DWIDTH 21 0
BBX 17 30 2 0
BITMAP
01C000
03E000
067000
0C3800
000000
000000
FFFF80
FFFF80
FFFF80
E00000
E00000
E00000
E00000
E00000
E00000
E00000
FFFF00
FFFF00
FFFF00
E00000
E00000
E00000
E00000
E00000
E00000
E00000
E00000
FFFF80
FFFF80
FFFF80
ENDCHAR
STARTCHAR 00CB
ENCODING 203
SWIDTH 700 0
DWIDTH 21 0
BBX 17 30 2 0
BITMAP
0E3800
0E3800
0E3800
000000
000000
000000
FFFF80
FFFF80
FFFF80
E00000
E00000
E00000
E00000
E00000
E00000
E00000
FFFF00
FFFF00
FFFF00
E00000
E00000
E00000
E00000
E00000
E00000
E00000
E00000
FFFF80
FFFF80
FFFF80
ENDCHAR
STARTCHAR 00CC
ENCODING 204
SWIDTH 266 0
DWIDTH 8 0
BBX 5 30 1 0
BITMAP
E0
70
38
18
00
00
70
70
70
70
70
70
70
70
70
70
70
70
70
70
70
70
70
70
70
70
70
70
70
70
ENDCHAR
STARTCHAR 00CD
ENCODING 205
SWIDTH 266 0
DWIDTH 8 0
BBX 6 30 1 0
BITMAP
1C
38
70
E0
00
00
70
70
70
70
70
70
70
70
70
70
70
70
70
70
70
70
70
70
70
70
70
70
70
70
ENDCHAR
STARTCHAR 00CE
ENCODING 206
SWIDTH 266 0
DWIDTH 8 0
BBX 8 30 0 0
BITMAP
3C
7C
E6
C3
00
00
38
38
38
38
38
38
38
38
38
38
38
38
38
38
38
38
38
38
38
38
38
38
38
38
ENDCHAR
STARTCHAR 00CF
ENCODING 207
SWIDTH 266 0
DWIDTH 8 0
BBX 9 30 -1 0
BITMAP
E380
E380
E380
0000
0000
0000
1C00
1C00
1C00
1C00
1C00
1C00
1C00
1C00
1C00
1C00
1C00
1C00
1C00
1C00
1C00
1C00
1C00
1C00
1C00
1C00
1C00
1C00
1C00
1C00
ENDCHAR
STARTCHAR 00D0
ENCODING 208
SWIDTH 800 0
DWIDTH 24 0
BBX 21 24 1 0
BITMAP
7FFF00
7FFFC0
7FFFE0
7000F0
700070
700038
700038
700038
700038
700018
FFE018
FFE018
700018
700018
700018
700038
700038
700038
700038
700070
7000F0
7FFFE0
7FFFC0
7FFF00
ENDCHAR
STARTCHAR 00D1
ENCODING 209
SWIDTH 800 0
DWIDTH 24 0
BBX 20 29 2 0
BITMAP
01E200
03FE00
063800
000000
000000
F80070
FC0070
FC0070
EE0070
EE0070
E70070
E78070
E38070
E1C070
E1C070
E0E070
E0E070
E07070
E03870
E03870
E01C70
E01C70
E00E70
E00F70
E00770
E003F0
E003F0
E001F0
E001F0
ENDCHAR
STARTCHAR 00D2
ENCODING 210
SWIDTH 800 0
DWIDTH 24 0
BBX 20 30 2 0
BITMAP
01C000
00E000
007000
003800
000000
000000
03FE00
1FFF80
3FFFC0
7801E0
7000F0
700070
E00070
E00070
E00070
E00030
E00030
E00030
E00030
E00030
E00030
E00030
E00070
E00070
700070
7000F0
7801E0
3FFFC0
1FFF80
03FE00
ENDCHAR
STARTCHAR 00D3
ENCODING 211
SWIDTH 800 0
DWIDTH 24 0
BBX 20 30 2 0
BITMAP
003800
007000
00E000
00C000
000000
000000
03FE00
1FFF80
3FFFC0
7801E0
7000F0
700070
E00070
E00070
E00070
E00030
E00030
E00030
E00030
E00030
E00030
E00030
E00070
E00070
700070
7000F0
7801E0
3FFFC0
1FFF80
03FE00
ENDCHAR
STARTCHAR 00D4
ENCODING 212
SWIDTH 800 0
DWIDTH 24 0
BBX 20 30 2 0
BITMAP
00F000
00F800
019C00
030C00
000200
000000
03FE00
1FFF80
3FFFC0
7801E0
7000F0
700070
E00070
E00070
E00070
E00030
E00030
E00030
E00030
E00030
E00030
E00030
E00070
E00070
700070
7000F0
7801E0
3FFFC0
1FFF80
03FE00
ENDCHAR
STARTCHAR 00D5
ENCODING 213
SWIDTH 800 0
DWIDTH 24 0
BBX 20 29 2 0
BITMAP
01E200
03FE00
063800
000000
000000
03FE00
1FFF80
3FFFC0
7801E0
7000F0
700070
E00070
E00070
E00070
E00030
E00030
E00030
E00030
E00030
E00030
E00030
E00070
E00070
700070
7000F0
7801E0
3FFFC0
1FFF80
03FE00
ENDCHAR
STARTCHAR 00D6
ENCODING 214
SWIDTH 800 0
DWIDTH 24 0
BBX 20 29 2 0
BITMAP
038E00
038E00
038E00
000000
000000
03FE00
1FFF80
3FFFC0
7801E0
7000F0
700070
E00070
E00070
E00070
E00030
E00030
E00030
E00030
E00030
E00030
E00030
E00070
E00070
700070
7000F0
7801E0
3FFFC0
1FFF80
03FE00
ENDCHAR
STARTCHAR 00D7
ENCODING 215
SWIDTH 1000 0
DWIDTH 30 0
BBX 20 19 5 2
BITMAP
400020
E00070
7000E0
3801C0
1C0380
0E0700
070E00
039C00
01F800
00F000
00F000
01F800
039C00
070E00
0E0700
1C0380
3801C0
7000E0
600060
ENDCHAR
STARTCHAR 00D8
ENCODING 216
SWIDTH 800 0
DWIDTH 24 0
BBX 22 25 1 0
BITMAP
01FF0C
0FFFDC
1FFFF8
3C00F0
380078
3800F8
7001B8
7003B8
700738
700E18
701C18
703818
703018
706018
70E018
71C018
738038
770038
3E0038
3C0078
3C00F0
3FFFE0
7FFFC0
E1FF00
400000
ENDCHAR
STARTCHAR 00D9
ENCODING 217
SWIDTH 800 0
DWIDTH 24 0
BBX 20 30 2 0
BITMAP
01C000
00E000
007000
003800
000000
000000
E00070
E00070
E00070
E00070
E00070
E00070
E00070
E00070
E00070
E00070
E00070
E00070
E00070
E00070
E00070
E00070
E00070
E00070
700070
7000E0
3C01E0
3FFFC0
1FFF80
03FC00
ENDCHAR
STARTCHAR 00DA
ENCODING 218
SWIDTH 800 0
DWIDTH 24 0
BBX 20 30 2 0
BITMAP
003800
007000
00E000
00C000
000000
000000
E00070
E00070
E00070
E00070
E00070
E00070
E00070
E00070
E00070
E00070
E00070
E00070
E00070
E00070
E00070
E00070
E00070
E00070
700070
7000E0
3C01E0
3FFFC0
1FFF80
03FC00
ENDCHAR
STARTCHAR 00DB
ENCODING 219
SWIDTH 800 0
DWIDTH 24 0
BBX 20 30 2 0
BITMAP
00F000
00F800
019C00
030C00
000200
000000
E00070
E00070
E00070
E00070
E00070
E00070
E00070
E00070
E00070
E00070
E00070
E00070
E00070
E00070
E00070
E00070
E00070
E00070
700070
7000E0
3C01E0
3FFFC0
1FFF80
03FC00
ENDCHAR
STARTCHAR 00DC
ENCODING 220
SWIDTH 800 0
DWIDTH 24 0
BBX 20 30 2 0
BITMAP
038E00
038E00
038E00
000000
000000
000000
E00070
E00070
E00070
E00070
E00070
E00070
E00070
E00070
E00070
E00070
E00070
E00070
E00070
E00070
E00070
E00070
E00070
E00070
700070
7000E0
3C01E0
3FFFC0
1FFF80
03FC00
ENDCHAR
STARTCHAR 00DD
ENCODING 221
SWIDTH 766 0
DWIDTH 23 0
BBX 21 30 1 0
BITMAP
003800
007000
006000
00C000
000000
000000
E00078
700070
7800F0
3801E0
1C01C0
1E03C0
0E0380
0F0700
070F00
038E00
03DC00
01FC00
00F800
00F000
007000
007000
007000
007000
007000
007000
007000
007000
007000
007000
ENDCHAR
STARTCHAR 00DE
ENCODING 222
SWIDTH 766 0
DWIDTH 23 0
BBX 19 24 3 0
BITMAP
C00000
C00000
C00000
C00000
FFF800
FFFF00
FFFFC0
C003C0
C001C0
C000E0
C000E0
C000E0
C000E0
C000E0
C000E0
C001C0
FFFFC0
FFFF80
FFFE00
C00000
C00000
C00000
C00000
C00000
ENDCHAR
STARTCHAR 00DF
ENCODING 223
SWIDTH 633 0
DWIDTH 19 0
BBX 15 24 2 0
BITMAP
0FF0
3FF8
7EFC
701C
E00C
E00E
E00E
E00C
E01C
E03C
E7F0
E7F8
E0FC
E00E
E00E
E006
E006
E006
E006
E00E
E00E
E77C
E7FC
E7F0
ENDCHAR
STARTCHAR 00E0
ENCODING 224
SWIDTH 633 0
DWIDTH 19 0
BBX 15 24 2 0
BITMAP
0F00
0700
0180
00C0
0000
0000
0FF0
3FF8
7E7C
E00E
E00E
000E
000E
1FFE
7FFE
F80E
E00E
C00E
C00E
C00E
E01E
F87E
7FFE
3FC6
ENDCHAR
STARTCHAR 00E1
ENCODING 225
SWIDTH 633 0
DWIDTH 19 0
BBX 15 24 2 0
BITMAP
01C0
0380
0300
0600
0000
0000
0FF0
3FF8
7E7C
E00E
E00E
000E
000E
1FFE
7FFE
F80E
E00E
C00E
C00E
C00E
E01E
F87E
7FFE
3FC6
ENDCHAR
STARTCHAR 00E2
ENCODING 226
SWIDTH 633 0
DWIDTH 19 0
BBX 15 24 2 0
BITMAP
0380
07C0
0EE0
1C70
0000
0000
0FF0
3FF8
7E7C
E00E
E00E
000E
000E
1FFE
7FFE
F80E
E00E
C00E
C00E
C00E
E01E
F87E
7FFE
3FC6
ENDCHAR
STARTCHAR 00E3
ENCODING 227
SWIDTH 633 0
DWIDTH 19 0
BBX 15 23 2 0
BITMAP
0F10
1FF0
30C0
0000
0000
0FF0
3FF8
7E7C
E00E
E00E
000E
000E
1FFE
7FFE
F80E
E00E
C00E
C00E
C00E
E01E
F87E
7FFE
3FC6
ENDCHAR
STARTCHAR 00E4
ENCODING 228
SWIDTH 633 0
DWIDTH 19 0
BBX 15 23 2 0
BITMAP
1C70
1C70
1C70
0000
0000
0FF0
3FF8
7E7C
E00E
E00E
000E
000E
1FFE
7FFE
F80E
E00E
C00E
C00E
C00E
E01E
F87E
7FFE
3FC6
ENDCHAR
STARTCHAR 00E5
ENCODING 229
SWIDTH 633 0
DWIDTH 19 0
BBX 15 25 2 0
BITMAP
03C0
0440
0460
0460
06C0
0380
0000
0FF0
3FF8
7E7C
E00E
E00E
000E
000E
1FFE
7FFE
F80E
E00E
C00E
C00E
C00E
E01E
F87E
7FFE
3FC6
ENDCHAR
STARTCHAR 00E6
ENCODING 230
SWIDTH 1000 0
DWIDTH 30 0
BBX 28 18 1 0
BITMAP
0FF07F00
1FFDFF80
3E3FE7C0
700F00E0
700700E0
70060060
000E0060
0FFE0070
3FFFFFF0
7807FFF0
70060000
E0060000
E0060070
E00F0060
601F00E0
7EFBF7E0
3FF1FFC0
1FC07F00
ENDCHAR
STARTCHAR 00E7
ENCODING 231
SWIDTH 633 0
DWIDTH 19 0
BBX 16 23 1 -5
BITMAP
07F8
1FFE
3F7E
7007
7007
6003
6000
E000
E000
E000
E000
E003
6003
7007
7007
3F7E
1FFE
0FF8
0180
01C0
0060
0060
03C0
ENDCHAR
STARTCHAR 00E8
ENCODING 232
SWIDTH 633 0
DWIDTH 19 0
BBX 16 24 1 0
BITMAP
0780
0380
00C0
0060
0000
0000
07F8
1FFC
3F7E
7007
7007
6003
6003
E003
FFFF
FFFF
E000
E000
6003
7003
7007
3F3F
1FFE
07F8
ENDCHAR
STARTCHAR 00E9
ENCODING 233
SWIDTH 633 0
DWIDTH 19 0
BBX 16 24 1 0
BITMAP
00E0
01C0
0180
0300
0000
0000
07F8
1FFC
3F7E
7007
7007
6003
6003
E003
FFFF
FFFF
E000
E000
6003
7003
7007
3F3F
1FFE
07F8
ENDCHAR
STARTCHAR 00EA
ENCODING 234
SWIDTH 633 0
DWIDTH 19 0
BBX 16 24 1 0
BITMAP
01C0
03E0
0770
0E38
0000
0000
07F8
1FFC
3F7E
7007
7007
6003
6003
E003
FFFF
FFFF
E000
E000
6003
7003
7007
3F3F
1FFE
07F8
ENDCHAR
STARTCHAR 00EB
ENCODING 235
SWIDTH 633 0
DWIDTH 19 0
BBX 16 23 1 0
BITMAP
0E38
0E38
0E38
0000
0000
07F8
1FFC
3F7E
7007
7007
6003
6003
E003
FFFF
FFFF
E000
E000
6003
7003
7007
3F3F
1FFE
07F8
ENDCHAR
STARTCHAR 00EC
ENCODING 236
SWIDTH 266 0
DWIDTH 8 0
BBX 5 24 1 0
BITMAP
E0
70
38
18
00
00
30
30
30
30
30
30
30
30
30
30
30
30
30
30
30
30
30
30
ENDCHAR
STARTCHAR 00ED
ENCODING 237
SWIDTH 266 0
DWIDTH 8 0
BBX 6 24 1 0
BITMAP
1C
38
70
E0
00
00
30
30
30
30
30
30
30
30
30
30
30
30
30
30
30
30
30
30
ENDCHAR
STARTCHAR 00EE
ENCODING 238
SWIDTH 266 0
DWIDTH 8 0
BBX 8 24 0 0
BITMAP
3C
7C
E6
C3
00
00
18
18
18
18
18
18
18
18
18
18
18
18
18
18
18
18
18
18
ENDCHAR
STARTCHAR 00EF
ENCODING 239
SWIDTH 266 0
DWIDTH 8 0
BBX 9 24 -1 0
BITMAP
E380
E380
E380
0000
0000
0000
0C00
0C00
0C00
0C00
0C00
0C00
0C00
0C00
0C00
0C00
0C00
0C00
0C00
0C00
0C00
0C00
0C00
0C00
ENDCHAR
STARTCHAR 00F0
ENCODING 240
SWIDTH 633 0
DWIDTH 19 0
BBX 16 24 1 0
BITMAP
0E03
1FDF
07FC
07F8
1F3C
181E
07FE
1FFE
3F7F
7007
7007
6003
E003
E003
E003
E003
E003
E003
6003
7007
7007
3F7E
3FFC
0FF0
ENDCHAR
STARTCHAR 00F1
ENCODING 241
SWIDTH 633 0
DWIDTH 19 0
BBX 15 23 2 0
BITMAP
0F10
1FF0
30C0
0000
0000
E7F0
EFF8
FEFC
F01E
E00E
E00E
E00E
E00E
E00E
E00E
E00E
E00E
E00E
E00E
E00E
E00E
E00E
E00E
ENDCHAR
STARTCHAR 00F2
ENCODING 242
SWIDTH 633 0
DWIDTH 19 0
BBX 16 24 1 0
BITMAP
0780
0380
00C0
0060
0000
0000
07F8
1FFC
3F7E
7007
7007
6003
6003
E003
E003
E003
E003
E003
6003
7007
7007
3F7E
3FFC
0FF0
ENDCHAR
STARTCHAR 00F3
ENCODING 243
SWIDTH 633 0
DWIDTH 19 0
BBX 16 24 1 0
BITMAP
00E0
01C0
0180
0300
0000
0000
07F8
1FFC
3F7E
7007
7007
6003
6003
E003
E003
E003
E003
E003
6003
7007
7007
3F7E
3FFC
0FF0
ENDCHAR
STARTCHAR 00F4
ENCODING 244
SWIDTH 633 0
DWIDTH 19 0
BBX 16 24 1 0
BITMAP
01C0
03E0
0770
0E38
0000
0000
07F8
1FFC
3F7E
7007
7007
6003
6003
E003
E003
E003
E003
E003
6003
7007
7007
3F7E
3FFC
0FF0
ENDCHAR
STARTCHAR 00F5
ENCODING 245
SWIDTH 633 0
DWIDTH 19 0
BBX 16 23 1 0
BITMAP
0788
0FF8
1860
0000
0000
07F8
1FFC
3F7E
7007
7007
6003
6003
E003
E003
E003
E003
E003
6003
7007
7007
3F7E
3FFC
0FF0
ENDCHAR
STARTCHAR 00F6
ENCODING 246
SWIDTH 633 0
DWIDTH 19 0
BBX 16 23 1 0
BITMAP
0E38
0E38
0E38
0000
0000
07F8
1FFC
3F7E
7007
7007
6003
6003
E003
E003
E003
E003
E003
6003
7007
7007
3F7E
3FFC
0FF0
ENDCHAR
STARTCHAR 00F7
ENCODING 247
SWIDTH 1000 0
DWIDTH 30 0
BBX 22 19 4 2
BITMAP
003000
007800
007800
003000
000000
000000
000000
000000
000000
FFFFFC
FFFFFC
000000
000000
000000
000000
003000
007800
007800
003000
ENDCHAR
STARTCHAR 00F8
ENCODING 248
SWIDTH 633 0
DWIDTH 19 0
BBX 17 19 1 0
BITMAP
07F980
1FFF00
3F7F00
700F00
701F00
603B00
E07300
E06300
E0C300
E18300
E38300
E70300
6E0300
7C0700
780700
3F7E00
7FFC00
EFF000
400000
ENDCHAR
STARTCHAR 00F9
ENCODING 249
SWIDTH 633 0
DWIDTH 19 0
BBX 15 24 2 0
BITMAP
0F00
0700
0180
00C0
0000
0000
E00E
E00E
E00E
E00E
E00E
E00E
E00E
E00E
E00E
E00E
E00E
E00E
E00E
E00E
F01E
7EFE
3FEE
1FCE
ENDCHAR
STARTCHAR 00FA
ENCODING 250
SWIDTH 633 0
DWIDTH 19 0
BBX 15 24 2 0
BITMAP
01C0
0380
0300
0600
0000
0000
E00E
E00E
E00E
E00E
E00E
E00E
E00E
E00E
E00E
E00E
E00E
E00E
E00E
E00E
F01E
7EFE
3FEE
1FCE
ENDCHAR
STARTCHAR 00FB
ENCODING 251
SWIDTH 633 0
DWIDTH 19 0
BBX 15 24 2 0
BITMAP
0380
07C0
0EE0
1C70
0000
0000
E00E
E00E
E00E
E00E
E00E
E00E
E00E
E00E
E00E
E00E
E00E
E00E
E00E
E00E
F01E
7EFE
3FEE
1FCE
ENDCHAR
STARTCHAR 00FC
ENCODING 252
SWIDTH 633 0
DWIDTH 19 0
BBX 15 24 2 0
BITMAP
1C70
1C70
1C70
0000
0000
0000
E00E
E00E
E00E
E00E
E00E
E00E
E00E
E00E
E00E
E00E
E00E
E00E
E00E
E00E
F01E
7EFE
3FEE
1FCE
ENDCHAR
STARTCHAR 00FD
ENCODING 253
SWIDTH 566 0
DWIDTH 17 0
BBX 15 28 1 -4
BITMAP
01C0
0380
0300
0600
0000
0000
E00E
E00E
601C
701C
701C
3838
3838
3830
1C70
1C70
0C60
0EE0
0EE0
06C0
07C0
03C0
0380
0380
0300
4F00
7E00
7C00
ENDCHAR
STARTCHAR 00FE
ENCODING 254
SWIDTH 633 0
DWIDTH 19 0
BBX 15 28 2 -4
BITMAP
E000
E000
E000
E000
E000
E000
E7F0
FFF8
FEFC
F01E
E00E
E006
E006
E006
E006
E006
E006
E006
E006
E00E
F00E
FEFC
FFF8
E7F0
E000
E000
E000
E000
ENDCHAR
STARTCHAR 00FF
ENCODING 255
SWIDTH 566 0
DWIDTH 17 0
BBX 15 28 1 -4
BITMAP
1C70
1C70
1C70
0000
0000
0000
E00E
E00E
601C
701C
701C
3838
3838
3830
1C70
1C70
0C60
0EE0
0EE0
06C0
07C0
03C0
0380
0380
0300
4F00
7E00
7C00
ENDCHAR
STARTCHAR 0100
ENCODING 256
SWIDTH 766 0
DWIDTH 23 0
BBX 21 29 1 0
BITMAP
03FE00
03FE00
000000
000000
000000
00F000
00F800
00F800
01DC00
01DC00
039C00
038E00
038E00
070E00
070700
070700
0E0700
0E0380
0E0380
1C03C0
1FFFC0
3FFFC0
3FFFE0
3800E0
7800E0
7000F0
700070
F00070
E00038
ENDCHAR
STARTCHAR 0101
ENCODING 257
SWIDTH 633 0
DWIDTH 19 0
BBX 15 23 2 0
BITMAP
1FF0
1FF0
0000
0000
0000
0FF0
3FF8
7E7C
E00E
E00E
000E
000E
1FFE
7FFE
F80E
E00E
C00E
C00E
C00E
E01E
F87E
7FFE
3FC6
ENDCHAR
STARTCHAR 0112
ENCODING 274
SWIDTH 700 0
DWIDTH 21 0
BBX 17 29 2 0
BITMAP
0FF800
0FF800
000000
000000
000000
FFFF80
FFFF80
FFFF80
E00000
E00000
E00000
E00000
E00000
E00000
E00000
FFFF00
FFFF00
FFFF00
E00000
E00000
E00000
E00000
E00000
E00000
E00000
E00000
FFFF80
FFFF80
FFFF80
ENDCHAR
STARTCHAR 0113
ENCODING 275
SWIDTH 633 0
DWIDTH 19 0
BBX 16 23 1 0
BITMAP
0FF8
0FF8
0000
0000
0000
07F8
1FFC
3F7E
7007
7007
6003
6003
E003
FFFF
FFFF
E000
E000
6003
7003
7007
3F3F
1FFE
07F8
ENDCHAR
STARTCHAR 011A
ENCODING 282
SWIDTH 700 0
DWIDTH 21 0
BBX 17 30 2 0
BITMAP
0C3800
067000
03E000
03C000
000000
000000
FFFF80
FFFF80
FFFF80
E00000
E00000
E00000
E00000
E00000
E00000
E00000
FFFF00
FFFF00
FFFF00
E00000
E00000
E00000
E00000
E00000
E00000
E00000
E00000
FFFF80
FFFF80
FFFF80
ENDCHAR
STARTCHAR 011B
ENCODING 283
SWIDTH 633 0
DWIDTH 19 0
BBX 16 24 1 0
BITMAP
0C18
0670
03E0
01C0
0000
0000
07F8
1FFC
3F7E
7007
7007
6003
6003
E003
FFFF
FFFF
E000
E000
6003
7003
7007
3F3F
1FFE
07F8
ENDCHAR
STARTCHAR 0127
ENCODING 295
SWIDTH 1000 0
DWIDTH 30 0
BBX 17 25 6 -1
BITMAP
060000
0EC000
0F8000
0F8000
0F0000
1C0000
3C0000
7CFF00
5FFF80
9F0780
1C0380
3C0380
380380
380380
300380
300300
700700
700700
700700
600700
600600
E00E00
E00E00
E00E00
C00E00
ENDCHAR
STARTCHAR 0128
ENCODING 296
SWIDTH 266 0
DWIDTH 8 0
BBX 10 29 -1 0
BITMAP
78C0
FF80
8700
0000
0000
1C00
1C00
1C00
1C00
1C00
1C00
1C00
1C00
1C00
1C00
1C00
1C00
1C00
1C00
1C00
1C00
1C00
1C00
1C00
1C00
1C00
1C00
1C00
1C00
ENDCHAR
STARTCHAR 0129
ENCODING 297
SWIDTH 266 0
DWIDTH 8 0
BBX 10 23 -1 0
BITMAP
78C0
FF80
8700
0000
0000
0C00
0C00
0C00
0C00
0C00
0C00
0C00
0C00
0C00
0C00
0C00
0C00
0C00
0C00
0C00
0C00
0C00
0C00
ENDCHAR
STARTCHAR 012A
ENCODING 298
SWIDTH 266 0
DWIDTH 8 0
BBX 10 29 -1 0
BITMAP
FFC0
FFC0
0000
0000
0000
1C00
1C00
1C00
1C00
1C00
1C00
1C00
1C00
1C00
1C00
1C00
1C00
1C00
1C00
1C00
1C00
1C00
1C00
1C00
1C00
1C00
1C00
1C00
1C00
ENDCHAR
STARTCHAR 012B
ENCODING 299
SWIDTH 266 0
DWIDTH 8 0
BBX 10 23 -1 0
BITMAP
FFC0
FFC0
0000
0000
0000
0C00
0C00
0C00
0C00
0C00
0C00
0C00
0C00
0C00
0C00
0C00
0C00
0C00
0C00
0C00
0C00
0C00
0C00
ENDCHAR
STARTCHAR 0131
ENCODING 305
SWIDTH 266 0
DWIDTH 8 0
BBX 2 18 3 0
BITMAP
C0
C0
C0
C0
C0
C0
C0
C0
C0
C0
C0
C0
C0
C0
C0
C0
C0
C0
ENDCHAR
STARTCHAR 0141
ENCODING 321
SWIDTH 633 0
DWIDTH 19 0
BBX 17 24 1 0
BITMAP
700000
700000
700000
700000
700000
700000
704000
70C000
738000
770000
7C0000
780000
700000
F00000
F00000
700000
700000
700000
700000
700000
700000
7FFF80
7FFF80
7FFF80
ENDCHAR
STARTCHAR 0142
ENCODING 322
SWIDTH 266 0
DWIDTH 8 0
BBX 6 24 1 0
BITMAP
30
30
30
30
30
30
30
30
34
3C
38
30
70
F0
B0
30
30
30
30
30
30
30
30
30
ENDCHAR
STARTCHAR 014B
ENCODING 331
SWIDTH 633 0
DWIDTH 19 0
BBX 15 22 2 -4
BITMAP
E7F0
EFF8
FEFC
F01E
E00E
E00E
E00E
E00E
E00E
E00E
E00E
E00E
E00E
E00E
E00E
E00E
E00E
E00E
000E
013C
01FC
01F0
ENDCHAR
STARTCHAR 014C
ENCODING 332
SWIDTH 800 0
DWIDTH 24 0
BBX 20 29 2 0
BITMAP
07FE00
07FE00
000000
000000
000000
03FE00
1FFF80
3FFFC0
7801E0
7000F0
700070
E00070
E00070
E00070
E00030
E00030
E00030
E00030
E00030
E00030
E00030
E00070
E00070
700070
7000F0
7801E0
3FFFC0
1FFF80
03FE00
ENDCHAR
STARTCHAR 014D
ENCODING 333
SWIDTH 633 0
DWIDTH 19 0
BBX 16 23 1 0
BITMAP
0FF8
0FF8
0000
0000
0000
07F8
1FFC
3F7E
7007
7007
6003
6003
E003
E003
E003
E003
E003
6003
7007
7007
3F7E
3FFC
0FF0
ENDCHAR
STARTCHAR 0152
ENCODING 338
SWIDTH 1000 0
DWIDTH 30 0
BBX 27 24 2 0
BITMAP
03FFFFE0
1FFFFFE0
3FFFFFE0
78070000
70070000
70070000
E0070000
E0070000
E0070000
E0070000
E0070000
E007FFC0
E007FFC0
E0070000
E0070000
E0070000
E0070000
E0070000
E0070000
70070000
78070000
3FFFFFE0
1FFFFFE0
03FFFFE0
ENDCHAR
STARTCHAR 0153
ENCODING 339
SWIDTH 1000 0
DWIDTH 30 0
BBX 28 18 1 0
BITMAP
0FE07F00
1FF9FF80
3FFDE7C0
700F80E0
700F0060
60070070
E0070070
E0060070
E007FFF0
E007FFF0
E0060000
E0070000
E0070070
700F0070
700F00E0
3FFFF7E0
3FF9FFC0
0FE07F00
ENDCHAR
STARTCHAR 0160
ENCODING 352
SWIDTH 766 0
DWIDTH 23 0
BBX 19 30 2 0
BITMAP
060C00
033800
01F000
01E000
000000
000000
0FF800
3FFF00
7FFF80
700380
E001C0
E001C0
E001C0
E00000
E00000
700000
7FC000
3FFF00
07FF80
0007C0
0001E0
0000E0
E000E0
E000E0
E000E0
E000E0
7801C0
7FFFC0
3FFF80
07FC00
ENDCHAR
STARTCHAR 0161
ENCODING 353
SWIDTH 633 0
DWIDTH 19 0
BBX 15 24 2 0
BITMAP
1830
0CE0
07C0
0380
0000
0000
0FE0
3FF8
7CFC
E01C
E00E
E000
E000
FC00
7FF8
1FFC
001E
000E
C006
C006
E00E
FE7E
7FFC
1FF0
ENDCHAR
STARTCHAR 0168
ENCODING 360
SWIDTH 800 0
DWIDTH 24 0
BBX 20 29 2 0
BITMAP
01E200
03FE00
063800
000000
000000
E00070
E00070
E00070
E00070
E00070
E00070
E00070
E00070
E00070
E00070
E00070
E00070
E00070
E00070
E00070
E00070
E00070
E00070
700070
7000E0
3C01E0
3FFFC0
1FFF80
03FC00
ENDCHAR
STARTCHAR 0169
ENCODING 361
SWIDTH 633 0
DWIDTH 19 0
BBX 15 23 2 0
BITMAP
0F10
1FF0
30C0
0000
0000
E00E
E00E
E00E
E00E
E00E
E00E
E00E
E00E
E00E
E00E
E00E
E00E
E00E
E00E
F01E
7EFE
3FEE
1FCE
ENDCHAR
STARTCHAR 016A
ENCODING 362
SWIDTH 800 0
DWIDTH 24 0
BBX 20 29 2 0
BITMAP
07FE00
07FE00
000000
000000
000000
E00070
E00070
E00070
E00070
E00070
E00070
E00070
E00070
E00070
E00070
E00070
E00070
E00070
E00070
E00070
E00070
E00070
E00070
700070
7000E0
3C01E0
3FFFC0
1FFF80
03FC00
ENDCHAR
STARTCHAR 016B
ENCODING 363
SWIDTH 633 0
DWIDTH 19 0
BBX 15 23 2 0
BITMAP
1FF0
1FF0
0000
0000
0000
E00E
E00E
E00E
E00E
E00E
E00E
E00E
E00E
E00E
E00E
E00E
E00E
E00E
E00E
F01E
7EFE
3FEE
1FCE
ENDCHAR
STARTCHAR 016E
ENCODING 366
SWIDTH 800 0
DWIDTH 24 0
BBX 20 31 2 0
BITMAP
00F000
019800
010800
019800
00F000
000000
000000
E00070
E00070
E00070
E00070
E00070
E00070
E00070
E00070
E00070
E00070
E00070
E00070
E00070
E00070
E00070
E00070
E00070
E00070
700070
7000E0
3C01E0
3FFFC0
1FFF80
03FC00
ENDCHAR
STARTCHAR 016F
ENCODING 367
SWIDTH 633 0
DWIDTH 19 0
BBX 15 25 2 0
BITMAP
07C0
0440
0C40
0440
07C0
0000
0000
E00E
E00E
E00E
E00E
E00E
E00E
E00E
E00E
E00E
E00E
E00E
E00E
E00E
E00E
F01E
7EFE
3FEE
1FCE
ENDCHAR
STARTCHAR 0178
ENCODING 376
SWIDTH 766 0
DWIDTH 23 0
BBX 21 30 1 0
BITMAP
038E00
038E00
038E00
000000
000000
000000
E00078
700070
7800F0
3801E0
1C01C0
1E03C0
0E0380
0F0700
070F00
038E00
03DC00
01FC00
00F800
00F000
007000
007000
007000
007000
007000
007000
007000
007000
007000
007000
ENDCHAR
STARTCHAR 017D
ENCODING 381
SWIDTH 766 0
DWIDTH 23 0
BBX 20 30 1 0
BITMAP
030600
019C00
00F800
00F000
000000
000000
7FFFF0
7FFFF0
7FFFF0
0001E0
0001C0
000380
000780
000F00
001E00
003C00
003800
007000
00F000
01E000
03C000
078000
070000
0E0000
1E0000
3C0000
780000
FFFFF0
FFFFF0
FFFFF0
ENDCHAR
STARTCHAR 017E
ENCODING 382
SWIDTH 500 0
DWIDTH 15 0
BBX 13 24 1 0
BITMAP
3060
18C0
0F80
0700
0000
0000
FFF8
FFF8
0078
0070
00E0
01E0
01C0
0380
0780
0F00
0E00
1C00
3C00
3800
7000
E000
FFF8
FFF8
ENDCHAR
STARTCHAR 01C0
ENCODING 448
SWIDTH 266 0
DWIDTH 8 0
BBX 2 28 3 -4
BITMAP
C0
C0
C0
C0
C0
C0
C0
C0
C0
C0
C0
C0
C0
C0
C0
C0
C0
C0
C0
C0
C0
C0
C0
C0
C0
C0
C0
C0
ENDCHAR
STARTCHAR 01CD
ENCODING 461
SWIDTH 766 0
DWIDTH 23 0
BBX 21 30 1 0
BITMAP
030600
019C00
00F800
00F000
000000
000000
00F000
00F800
00F800
01DC00
01DC00
039C00
038E00
038E00
070E00
070700
070700
0E0700
0E0380
0E0380
1C03C0
1FFFC0
3FFFC0
3FFFE0
3800E0
7800E0
7000F0
700070
F00070
E00038
ENDCHAR
STARTCHAR 01CE
ENCODING 462
SWIDTH 633 0
DWIDTH 19 0
BBX 15 24 2 0
BITMAP
1830
0CE0
07C0
0380
0000
0000
0FF0
3FF8
7E7C
E00E
E00E
000E
000E
1FFE
7FFE
F80E
E00E
C00E
C00E
C00E
E01E
F87E
7FFE
3FC6
ENDCHAR
STARTCHAR 01CF
ENCODING 463
SWIDTH 266 0
DWIDTH 8 0
BBX 9 30 -1 0
BITMAP
E180
7300
3F00
1E00
0000
0000
1C00
1C00
1C00
1C00
1C00
1C00
1C00
1C00
1C00
1C00
1C00
1C00
1C00
1C00
1C00
1C00
1C00
1C00
1C00
1C00
1C00
1C00
1C00
1C00
ENDCHAR
STARTCHAR 01D0
ENCODING 464
SWIDTH 266 0
DWIDTH 8 0
BBX 9 24 -1 0
BITMAP
E180
7300
3F00
1E00
0000
0000
0C00
0C00
0C00
0C00
0C00
0C00
0C00
0C00
0C00
0C00
0C00
0C00
0C00
0C00
0C00
0C00
0C00
0C00
ENDCHAR
STARTCHAR 01D1
ENCODING 465
SWIDTH 800 0
DWIDTH 24 0
BBX 20 30 2 0
BITMAP
030E00
019C00
01F800
00F000
000000
000000
03FE00
1FFF80
3FFFC0
7801E0
7000F0
700070
E00070
E00070
E00070
E00030
E00030
E00030
E00030
E00030
E00030
E00030
E00070
E00070
700070
7000F0
7801E0
3FFFC0
1FFF80
03FE00
ENDCHAR
STARTCHAR 01D2
ENCODING 466
SWIDTH 633 0
DWIDTH 19 0
BBX 16 24 1 0
BITMAP
0C18
0670
03E0
01C0
0000
0000
07F8
1FFC
3F7E
7007
7007
6003
6003
E003
E003
E003
E003
E003
6003
7007
7007
3F7E
3FFC
0FF0
ENDCHAR
STARTCHAR 01D3
ENCODING 467
SWIDTH 800 0
DWIDTH 24 0
BBX 20 30 2 0
BITMAP
030E00
019C00
01F800
00F000
000000
000000
E00070
E00070
E00070
E00070
E00070
E00070
E00070
E00070
E00070
E00070
E00070
E00070
E00070
E00070
E00070
E00070
E00070
E00070
700070
7000E0
3C01E0
3FFFC0
1FFF80
03FC00
ENDCHAR
STARTCHAR 01D4
ENCODING 468
SWIDTH 633 0
DWIDTH 19 0
BBX 15 24 2 0
BITMAP
1830
0CE0
07C0
0380
0000
0000
E00E
E00E
E00E
E00E
E00E
E00E
E00E
E00E
E00E
E00E
E00E
E00E
E00E
E00E
F01E
7EFE
3FEE
1FCE
ENDCHAR
STARTCHAR 01FD
ENCODING 509
SWIDTH 1000 0
DWIDTH 30 0
BBX 28 24 1 0
BITMAP
00038000
00070000
000E0000
001C0000
00000000
00000000
0FF07F00
1FFDFF80
3E3FE7C0
700F00E0
700700E0
70060060
000E0060
0FFE0070
3FFFFFF0
7807FFF0
70060000
E0060000
E0060070
E00F0060
601F00E0
7EFBF7E0
3FF1FFC0
1FC07F00
ENDCHAR
STARTCHAR 0251
ENCODING 593
SWIDTH 633 0
DWIDTH 19 0
BBX 16 18 1 0
BITMAP
0FE7
1FFF
3F7F
700F
700F
6007
6007
E007
E007
E007
E007
E007
6007
7007
700F
3E7F
3FFF
0FE7
ENDCHAR
STARTCHAR 0254
ENCODING 596
SWIDTH 633 0
DWIDTH 19 0
BBX 16 18 1 0
BITMAP
0FF0
3FFC
3F7E
700F
6007
6003
E003
0003
0003
0003
0003
0003
6003
7007
7007
3E7E
3FFC
0FF0
ENDCHAR
STARTCHAR 0259
ENCODING 601
SWIDTH 633 0
DWIDTH 19 0
BBX 16 18 1 0
BITMAP
0FF0
3FFC
7E7E
7007
6007
E003
0003
0003
FFFF
FFFF
E003
E003
6003
7007
7007
3F7E
3FFC
0FF0
ENDCHAR
STARTCHAR 025A
ENCODING 602
SWIDTH 900 0
DWIDTH 27 0
BBX 25 18 1 0
BITMAP
0FF00000
3FFC0000
7EFE0000
700E0000
60070000
E0070000
00070000
00070000
FFFFF000
FFFFF000
E0077000
60077000
60077000
70067000
700E7180
3F7E7B80
3FFC3F80
0FF01E00
ENDCHAR
STARTCHAR 025B
ENCODING 603
SWIDTH 633 0
DWIDTH 19 0
BBX 16 18 1 0
BITMAP
0FF8
3FFE
7F7E
7007
6007
6000
7000
7C00
1FC0
3FC0
7000
6000
E003
E003
7007
7F7F
3FFE
0FF8
ENDCHAR
STARTCHAR 0275
ENCODING 629
SWIDTH 633 0
DWIDTH 19 0
BBX 16 24 1 0
BITMAP
07F0
1FFC
3F7E
380E
7007
7007
6007
6003
6003
E003
E003
FFFF
FFFF
E003
E003
6003
6003
6003
7007
7007
380E
3F7E
1FFC
07F0
ENDCHAR
STARTCHAR 0283
ENCODING 643
SWIDTH 433 0
DWIDTH 13 0
BBX 11 28 1 -4
BITMAP
01E0
07E0
0780
0E00
0E00
0E00
0E00
0E00
0E00
0E00
0E00
0E00
0E00
0E00
0E00
0E00
0E00
0E00
0E00
0E00
0E00
0E00
0E00
0E00
0E00
3E00
FC00
F800
ENDCHAR
STARTCHAR 028C
ENCODING 652
SWIDTH 566 0
DWIDTH 17 0
BBX 15 18 1 0
BITMAP
0780
07C0
07C0
0EC0
0EE0
0CE0
1C60
1C70
1870
3830
3838
3038
7038
701C
701C
E01C
E00E
E00E
ENDCHAR
STARTCHAR 0292
ENCODING 658
SWIDTH 633 0
DWIDTH 19 0
BBX 16 22 1 -4
BITMAP
7FFE
7FFE
001E
003C
00F0
01E0
03C0
0780
0FFC
0FFE
080F
0007
0003
0003
0003
E003
E003
6007
7007
7F7E
3FFC
0FF0
ENDCHAR
STARTCHAR 02D0
ENCODING 720
SWIDTH 266 0
DWIDTH 8 0
BBX 4 18 2 0
BITMAP
F0
F0
60
40
00
00
00
00
00
00
00
00
00
00
40
60
F0
F0
ENDCHAR
STARTCHAR 0300
ENCODING 768
SWIDTH 300 0
DWIDTH 9 0
BBX 5 4 2 20
BITMAP
E0
70
30
18
ENDCHAR
STARTCHAR 0301
ENCODING 769
SWIDTH 300 0
DWIDTH 9 0
BBX 6 4 2 20
BITMAP
1C
38
60
C0
ENDCHAR
STARTCHAR 0302
ENCODING 770
SWIDTH 300 0
DWIDTH 9 0
BBX 9 4 0 20
BITMAP
1C00
3E00
7300
E180
ENDCHAR
STARTCHAR 0303
ENCODING 771
SWIDTH 300 0
DWIDTH 9 0
BBX 10 3 0 20
BITMAP
78C0
FF80
8700
ENDCHAR
STARTCHAR 0304
ENCODING 772
SWIDTH 300 0
DWIDTH 9 0
BBX 9 2 0 21
BITMAP
FF80
FF80
ENDCHAR
STARTCHAR 0305
ENCODING 773
SWIDTH 500 0
DWIDTH 15 0
BBX 15 1 0 25
BITMAP
FFFE
ENDCHAR
STARTCHAR 0306
ENCODING 774
SWIDTH 300 0
DWIDTH 9 0
BBX 9 4 0 20
BITMAP
C080
C180
7F00
3E00
ENDCHAR
STARTCHAR 0307
ENCODING 775
SWIDTH 266 0
DWIDTH 8 0
BBX 4 3 2 20
BITMAP
F0
F0
F0
ENDCHAR
STARTCHAR 0308
ENCODING 776
SWIDTH 300 0
DWIDTH 9 0
BBX 9 3 0 20
BITMAP
E380
E380
E380
ENDCHAR
STARTCHAR 030A
ENCODING 778
SWIDTH 300 0
DWIDTH 9 0
BBX 6 6 2 19
BITMAP
78
CC
8C
8C
D8
70
ENDCHAR
STARTCHAR 030B
ENCODING 779
SWIDTH 433 0
DWIDTH 13 0
BBX 11 4 2 20
BITMAP
3DE0
3180
6300
C600
ENDCHAR
STARTCHAR 030C
ENCODING 780
SWIDTH 300 0
DWIDTH 9 0
BBX 9 4 0 20
BITMAP
E180
7300
3E00
1E00
ENDCHAR
STARTCHAR 0327
ENCODING 807
SWIDTH 200 0
DWIDTH 6 0
BBX 4 5 1 -5
BITMAP
40
40
F0
30
F0
ENDCHAR
STARTCHAR 0328
ENCODING 808
SWIDTH 266 0
DWIDTH 8 0
BBX 5 5 1 -5
BITMAP
30
60
40
E0
78
ENDCHAR
STARTCHAR 0332
ENCODING 818
SWIDTH 500 0
DWIDTH 15 0
BBX 15 1 0 -3
BITMAP
FFFE
ENDCHAR
STARTCHAR 0336
ENCODING 822
SWIDTH 1000 0
DWIDTH 30 0
BBX 30 2 0 8
BITMAP
FFFFFFFC
FFFFFFFC
ENDCHAR
STARTCHAR 0361
ENCODING 865
SWIDTH 1000 0
DWIDTH 30 0
BBX 30 9 0 17
BITMAP
001FE000
00FFFC00
03E01F00
0F0003C0
1C0001E0
38000070
70000038
E000001C
40000008
ENDCHAR
STARTCHAR 0391
ENCODING 913
SWIDTH 1000 0
DWIDTH 30 0
BBX 20 24 5 0
BITMAP
00F000
00F000
01F800
01F800
01B800
039C00
039C00
070E00
070E00
070E00
0E0700
0E0700
0E0700
1C0380
1C0380
1FFF80
3FFFC0
3FFFC0
7801E0
7000E0
7000E0
F000F0
E00070
E00070
ENDCHAR
STARTCHAR 0392
ENCODING 914
SWIDTH 1000 0
DWIDTH 30 0
BBX 18 24 6 0
BITMAP
FFF000
FFFF00
FFFF80
E00780
E00380
E001C0
E001C0
E001C0
E00180
E00380
E01F00
FFFE00
FFFF80
E003C0
E001C0
E001C0
E000C0
E000C0
E000C0
E001C0
E001C0
FFFFC0
FFFF80
FFFE00
ENDCHAR
STARTCHAR 0393
ENCODING 915
SWIDTH 1000 0
DWIDTH 30 0
BBX 16 24 8 0
BITMAP
FFFF
FFFF
FFFF
E000
E000
E000
E000
E000
E000
E000
E000
E000
E000
E000
E000
E000
E000
E000
E000
E000
E000
E000
E000
E000
ENDCHAR
STARTCHAR 0394
ENCODING 916
SWIDTH 1000 0
DWIDTH 30 0
BBX 22 24 4 0
BITMAP
007800
007800
00FC00
00FC00
00FC00
01CE00
01CE00
038700
038700
038700
070380
070380
070380
0E01C0
0E01C0
1C01E0
1C00E0
1C00E0
380070
380070
380070
7FFFF8
7FFFF8
FFFFFC
ENDCHAR
STARTCHAR 0395
ENCODING 917
SWIDTH 1000 0
DWIDTH 30 0
BBX 17 24 7 0
BITMAP
FFFF80
FFFF80
FFFF80
E00000
E00000
E00000
E00000
E00000
E00000
E00000
FFFF00
FFFF00
FFFF00
E00000
E00000
E00000
E00000
E00000
E00000
E00000
E00000
FFFF80
FFFF80
FFFF80
ENDCHAR
STARTCHAR 0396
ENCODING 918
SWIDTH 1000 0
DWIDTH 30 0
BBX 20 24 5 0
BITMAP
7FFFE0
7FFFE0
7FFFE0
0001E0
0001C0
000380
000700
000F00
001E00
003C00
007800
007000
00E000
01C000
03C000
078000
0F0000
1E0000
1C0000
380000
700000
FFFFF0
FFFFF0
FFFFF0
ENDCHAR
STARTCHAR 0397
ENCODING 919
SWIDTH 1000 0
DWIDTH 30 0
BBX 20 24 5 0
BITMAP
E00070
E00070
E00070
E00070
E00070
E00070
E00070
E00070
E00070
E00070
FFFFF0
FFFFF0
FFFFF0
E00070
E00070
E00070
E00070
E00070
E00070
E00070
E00070
E00070
E00070
E00070
ENDCHAR
STARTCHAR 0398
ENCODING 920
SWIDTH 1000 0
DWIDTH 30 0
BBX 20 24 5 0
BITMAP
03FE00
1FFF80
3FFFC0
7801E0
7000E0
E00070
E00070
E00070
E00070
E00070
E00070
EFFF70
EFFF70
E00070
E00070
E00070
E00070
E00070
E00070
7000E0
7801E0
3FFFC0
1FFF80
07FC00
ENDCHAR
STARTCHAR 0399
ENCODING 921
SWIDTH 1000 0
DWIDTH 30 0
BBX 2 24 14 0
BITMAP
C0
C0
C0
C0
C0
C0
C0
C0
C0
C0
C0
C0
C0
C0
C0
C0
C0
C0
C0
C0
C0
C0
C0
C0
ENDCHAR
STARTCHAR 039A
ENCODING 922
SWIDTH 1000 0
DWIDTH 30 0
BBX 19 24 6 0
BITMAP
E001E0
E003C0
E00780
E00F00
E01E00
E03800
E0F000
E1E000
E3C000
E78000
EF0000
FE0000
FE0000
EF0000
E38000
E1E000
E0F000
E07800
E03C00
E01E00
E00F00
E00780
E003C0
E001E0
ENDCHAR
STARTCHAR 039B
ENCODING 923
SWIDTH 1000 0
DWIDTH 30 0
BBX 20 24 5 0
BITMAP
00F000
00F000
01F800
01F800
03FC00
039C00
039C00
071E00
070E00
070E00
0E0700
0E0700
0E0700
1C0380
1C0380
1C0380
3801C0
3801C0
7801E0
7000E0
7000E0
F000F0
E00070
E00070
ENDCHAR
STARTCHAR 039C
ENCODING 924
SWIDTH 1000 0
DWIDTH 30 0
BBX 24 23 3 0
BITMAP
F8001F
F8001F
FC003F
FC0037
EE0037
EE0077
E60067
E700E7
E700E7
E300C7
E381C7
E381C7
E18187
E1C387
E1C387
E0C307
E0E707
E0E707
E06607
E07E07
E07E07
E03C07
E03C07
ENDCHAR
STARTCHAR 039D
ENCODING 925
SWIDTH 1000 0
DWIDTH 30 0
BBX 20 24 5 0
BITMAP
F80070
F80070
FC0070
FC0070
EE0070
EF0070
E70070
E38070
E38070
E1C070
E1E070
E0E070
E07070
E07070
E03870
E03C70
E01C70
E00E70
E00E70
E00770
E007F0
E003F0
E001F0
E001F0
ENDCHAR
STARTCHAR 039E
ENCODING 926
SWIDTH 1000 0
DWIDTH 30 0
BBX 18 24 6 0
BITMAP
FFFFC0
FFFFC0
FFFFC0
000000
000000
000000
000000
000000
000000
000000
7FFF80
7FFF80
7FFF80
000000
000000
000000
000000
000000
000000
000000
000000
FFFFC0
FFFFC0
FFFFC0
ENDCHAR
STARTCHAR 039F
ENCODING 927
SWIDTH 1000 0
DWIDTH 30 0
BBX 20 24 5 0
BITMAP
03FE00
1FFF80
3FFFC0
7801E0
7000E0
E00070
E00070
E00070
E00070
E00070
E00070
E00070
E00070
E00070
E00070
E00070
E00070
E00070
E00070
7000E0
7801E0
3FFFC0
1FFF80
07FC00
ENDCHAR
STARTCHAR 03A0
ENCODING 928
SWIDTH 1000 0
DWIDTH 30 0
BBX 20 24 5 0
BITMAP
FFFFF0
FFFFF0
FFFFF0
E00070
E00070
E00070
E00070
E00070
E00070
E00070
E00070
E00070
E00070
E00070
E00070
E00070
E00070
E00070
E00070
E00070
E00070
E00070
E00070
E00070
ENDCHAR
STARTCHAR 03A1
ENCODING 929
SWIDTH 1000 0
DWIDTH 30 0
BBX 19 24 6 0
BITMAP
FFF800
FFFF80
FFFFC0
E001E0
E000E0
E000E0
E000E0
E00060
E00060
E000E0
E000E0
E001E0
FFFFC0
FFFF80
FFFF00
E00000
E00000
E00000
E00000
E00000
E00000
E00000
E00000
E00000
ENDCHAR
STARTCHAR 03A3
ENCODING 931
SWIDTH 1000 0
DWIDTH 30 0
BBX 20 24 5 0
BITMAP
7FFFE0
7FFFE0
7FFFE0
780000
3C0000
1E0000
0F0000
078000
03C000
00F000
007800
003C00
003C00
00F000
01E000
03C000
078000
0F0000
1E0000
3C0000
780000
FFFFF0
FFFFF0
FFFFF0
ENDCHAR
STARTCHAR 03A4
ENCODING 932
SWIDTH 1000 0
DWIDTH 30 0
BBX 20 24 5 0
BITMAP
FFFFF0
FFFFF0
FFFFF0
006000
006000
006000
006000
006000
006000
006000
006000
006000
006000
006000
006000
006000
006000
006000
006000
006000
006000
006000
006000
006000
ENDCHAR
STARTCHAR 03A5
ENCODING 933
SWIDTH 1000 0
DWIDTH 30 0
BBX 22 24 4 0
BITMAP
F0003C
700038
380070
3C00F0
1C00E0
0E01C0
0F03C0
070380
038700
03CF00
01CE00
00FC00
00FC00
007800
003000
003000
003000
003000
003000
003000
003000
003000
003000
003000
ENDCHAR
STARTCHAR 03A6
ENCODING 934
SWIDTH 1000 0
DWIDTH 30 0
BBX 20 24 5 0
BITMAP
006000
006000
006000
0FFF00
3FFFC0
7C63E0
7060E0
F060F0
E06070
E06070
E06070
E06030
E06030
E06070
E06070
E06070
E06070
7060E0
7C63E0
3FFFC0
0FFF00
00F000
006000
006000
ENDCHAR
STARTCHAR 03A7
ENCODING 935
SWIDTH 1000 0
DWIDTH 30 0
BBX 20 24 5 0
BITMAP
F000F0
7000E0
3801C0
3C03C0
1C0380
0E0700
0F0F00
070E00
039C00
03FC00
01F800
00F000
01F800
01F800
039C00
079E00
070E00
0E0700
1E0780
3C03C0
3801C0
7801E0
F000F0
E00070
ENDCHAR
STARTCHAR 03A8
ENCODING 936
SWIDTH 1000 0
DWIDTH 30 0
BBX 22 23 4 0
BITMAP
E0301C
E0301C
E0301C
E0301C
E0301C
E0301C
E0301C
E0301C
E0301C
E0301C
E0301C
E0301C
E0301C
703038
783078
3E30F0
1FFFE0
0FFFC0
007800
003000
003000
003000
003000
ENDCHAR
STARTCHAR 03A9
ENCODING 937
SWIDTH 1000 0
DWIDTH 30 0
BBX 22 24 4 0
BITMAP
01FF00
0FFFC0
1FFFE0
3C00F0
380070
780038
700038
700038
700038
700038
700038
700038
700038
700038
700038
700038
700038
700038
380070
3C0070
1E01E0
FF87FC
FF87FC
FF87FC
ENDCHAR
STARTCHAR 03B1
ENCODING 945
SWIDTH 1000 0
DWIDTH 30 0
BBX 22 18 5 0
BITMAP
03F81C
0FFE18
1FFF38
1C0730
380370
380360
7003E0
7003C0
6003C0
E00380
E00380
E00700
E00700
E00F00
E01F00
783F80
7FF7E0
1FE3C0
ENDCHAR
STARTCHAR 03B2
ENCODING 946
SWIDTH 1000 0
DWIDTH 30 0
BBX 19 28 5 -4
BITMAP
007F00
00FFC0
01FFE0
03C0E0
0380E0
0300E0
0700E0
0700E0
0700C0
0601C0
0E7F80
0E7E00
0E1F00
1C0380
1C0380
1C0180
180380
380380
380380
380380
3C0700
7FFF00
77FE00
63F800
E00000
E00000
E00000
C00000
ENDCHAR
STARTCHAR 03B3
ENCODING 947
SWIDTH 1000 0
DWIDTH 30 0
BBX 19 22 7 -4
BITMAP
6001E0
F003C0
F80380
380700
180E00
1C1E00
1C1C00
1C3800
0C7000
0CF000
0EE000
0FC000
0F8000
070000
070000
070000
0E0000
0E0000
0E0000
0C0000
1C0000
1C0000
ENDCHAR
STARTCHAR 03B4
ENCODING 948
SWIDTH 1000 0
DWIDTH 30 0
BBX 19 24 6 0
BITMAP
03FFE0
03FFE0
03FFE0
03C000
01E000
00F000
007800
07FC00
0FFE00
1E0F00
380700
380380
300380
700380
700300
600300
600700
E00700
E00E00
E00E00
701C00
7FFC00
3FF800
0FE000
ENDCHAR
STARTCHAR 03B5
ENCODING 949
SWIDTH 1000 0
DWIDTH 30 0
BBX 16 18 7 0
BITMAP
03F8
0FFE
1F3F
1C07
3807
3807
3800
1C00
1FE0
3FC0
7000
6000
E000
E00C
E01C
F03C
7FF8
3FF0
ENDCHAR
STARTCHAR 03B6
ENCODING 950
SWIDTH 1000 0
DWIDTH 30 0
BBX 16 27 7 -4
BITMAP
0FFF
0FFF
003C
00F0
01E0
0380
0700
0E00
1C00
3800
3800
7000
7000
E000
E000
E000
E000
E000
F000
FFC0
7FF0
03F0
0070
0070
0070
0060
00E0
ENDCHAR
STARTCHAR 03B7
ENCODING 951
SWIDTH 1000 0
DWIDTH 30 0
BBX 19 22 5 -4
BITMAP
307F00
3DFF80
7FFFC0
0F01E0
0E00E0
0C00E0
1C00C0
1C01C0
1C01C0
1801C0
380180
380380
300380
700300
700700
700700
600700
E00600
000E00
000E00
000E00
000C00
ENDCHAR
STARTCHAR 03B8
ENCODING 952
SWIDTH 1000 0
DWIDTH 30 0
BBX 18 24 6 0
BITMAP
00FE00
03FF80
07FFC0
0701C0
0E01C0
0E01C0
1C01C0
1C01C0
3801C0
380380
3FFF80
3FFF80
7FFF00
700700
600700
600700
E00E00
E00E00
E00E00
E01C00
E01C00
F07800
7FF000
3FE000
ENDCHAR
STARTCHAR 03B9
ENCODING 953
SWIDTH 1000 0
DWIDTH 30 0
BBX 6 18 12 0
BITMAP
1C
1C
1C
18
38
38
38
30
70
70
60
E0
E0
E0
C0
FC
FC
7C
ENDCHAR
STARTCHAR 03BA
ENCODING 954
SWIDTH 1000 0
DWIDTH 30 0
BBX 18 18 7 0
BITMAP
0E03C0
0E0780
0E0F00
0C1C00
1C7800
1CF000
1DE000
1BC000
3F0000
3B8000
3B8000
71C000
70E000
70E000
607000
E03800
E03800
E01C00
ENDCHAR
STARTCHAR 03BB
ENCODING 955
SWIDTH 1000 0
DWIDTH 30 0
BBX 18 23 5 0
BITMAP
00F800
01F800
003800
001800
001800
001C00
001C00
003C00
003C00
007C00
00FC00
00EC00
01CE00
03CE00
038E00
070E00
0F0E00
0E0600
1C0600
3C0700
3807C0
7007C0
F003C0
ENDCHAR
STARTCHAR 03BC
ENCODING 956
SWIDTH 1000 0
DWIDTH 30 0
BBX 20 22 5 -4
BITMAP
060030
070070
070070
0E0070
0E00E0
0E00E0
0C00E0
1C00C0
1C01C0
1C01C0
1801C0
380180
380380
380380
780780
7C0FC0
7FFFE0
67F9E0
E00000
E00000
E00000
C00000
ENDCHAR
STARTCHAR 03BD
ENCODING 957
SWIDTH 1000 0
DWIDTH 30 0
BBX 17 18 8 0
BITMAP
E00380
E00700
E00F00
E00E00
E01C00
E03C00
E03800
607000
607000
70E000
71C000
71C000
738000
770000
770000
3E0000
3C0000
3C0000
ENDCHAR
STARTCHAR 03BE
ENCODING 958
SWIDTH 1000 0
DWIDTH 30 0
BBX 16 27 7 -4
BITMAP
1FFF
1FFF
0700
0600
0E00
0C00
0C00
0E00
0F80
0FF8
3FF8
7800
7000
E000
E000
E000
C000
E000
E000
FFE0
7FF0
01F0
0030
0030
0070
0070
00E0
ENDCHAR
STARTCHAR 03BF
ENCODING 959
SWIDTH 1000 0
DWIDTH 30 0
BBX 18 18 6 0
BITMAP
01FE00
07FF00
0FFF80
1C0380
3801C0
3801C0
3001C0
700180
700180
700380
600380
600380
E00700
E00700
700E00
781E00
7FFC00
3FF800
ENDCHAR
STARTCHAR 03C0
ENCODING 960
SWIDTH 1000 0
DWIDTH 30 0
BBX 20 18 6 0
BITMAP
7FFFF0
7FFFE0
7FFFE0
0C0700
1C0700
1C0600
180E00
380E00
380C00
381C00
301C00
701C00
701800
603800
E03800
E03F00
E03F00
C01E00
ENDCHAR
STARTCHAR 03C1
ENCODING 961
SWIDTH 1000 0
DWIDTH 30 0
BBX 20 22 5 -4
BITMAP
007F00
01FFC0
03FFE0
0780E0
070060
0E0070
0E0060
0E0060
0C00E0
1C00E0
1C00E0
1C00C0
3C01C0
3C01C0
3C0380
3F0780
77FF00
73FC00
700000
600000
E00000
E00000
ENDCHAR
STARTCHAR 03C3
ENCODING 963
SWIDTH 1000 0
DWIDTH 30 0
BBX 21 18 6 0
BITMAP
01FFF8
07FFF0
1FFFF0
1C0700
380380
380380
700380
700380
700380
600380
E00300
E00700
E00700
E00600
E00E00
F03C00
7FFC00
3FF000
ENDCHAR
STARTCHAR 03C4
ENCODING 964
SWIDTH 1000 0
DWIDTH 30 0
BBX 15 18 8 0
BITMAP
7FFE
7FFE
FFFC
0700
0700
0700
0600
0E00
0E00
0C00
1C00
1C00
1C00
1800
3800
3F80
3F00
1F00
ENDCHAR
STARTCHAR 03C5
ENCODING 965
SWIDTH 1000 0
DWIDTH 30 0
BBX 19 18 6 0
BITMAP
0C00E0
1C00C0
1C01C0
1801C0
380180
380380
380380
300380
700300
700700
700700
600700
E00600
E00E00
F01E00
7FFC00
7FF800
1FE000
ENDCHAR
STARTCHAR 03C6
ENCODING 966
SWIDTH 1000 0
DWIDTH 30 0
BBX 20 26 5 -4
BITMAP
000E00
000E00
001C00
001C00
01FF00
07FFC0
1FFFE0
1C38E0
383870
303070
707070
707070
607070
E0E060
E0E0E0
E0E0E0
E0C0C0
E1C1C0
71C380
7FFF80
3FFF00
0FF800
038000
038000
070000
070000
ENDCHAR
STARTCHAR 03C7
ENCODING 967
SWIDTH 1000 0
DWIDTH 30 0
BBX 20 22 5 -4
BITMAP
0C00F0
0F00E0
1F01C0
038380
038780
01CF00
01CE00
01DC00
00F800
00F800
00F000
00F000
01F000
03B800
07B800
0F1800
0E1C00
1C1C00
380E00
780F00
F007C0
E00780
ENDCHAR
STARTCHAR 03C8
ENCODING 968
SWIDTH 1000 0
DWIDTH 30 0
BBX 21 26 5 -4
BITMAP
000C00
001C00
001C00
001C00
1C1838
1C3830
183870
383870
387070
387060
3070E0
7060E0
70E0E0
70E0C0
60E1C0
E0C1C0
E1C1C0
E1C380
E1C780
7FFF00
3FFE00
0FF800
030000
070000
070000
070000
ENDCHAR
STARTCHAR 03C9
ENCODING 969
SWIDTH 1000 0
DWIDTH 30 0
BBX 21 18 4 0
BITMAP
038070
070038
0E0038
0E0038
1C0018
181C18
381818
303818
703818
703818
603038
607038
E07038
E07070
E0F070
7FFFE0
7FBFC0
3F1F80
ENDCHAR
STARTCHAR 03D0
ENCODING 976
SWIDTH 1000 0
DWIDTH 30 0
BBX 18 25 6 -1
BITMAP
00FF00
03FFC0
0781C0
0E00C0
0C00C0
1C03C0
1FFF80
1FFC00
380000
380000
37F800
7FFE00
7C1E00
780700
700700
600700
E00700
E00700
E00600
E00E00
E00E00
F01C00
7FFC00
3FF800
1FC000
ENDCHAR
STARTCHAR 03D1
ENCODING 977
SWIDTH 1000 0
DWIDTH 30 0
BBX 19 25 5 -1
BITMAP
007F00
00FFC0
01F7E0
0380E0
070060
070060
070060
0600E0
0600E0
0700E0
0700C0
03C0C0
01F1C0
00FDC0
783F80
F80FE0
3803E0
380360
300700
700700
700E00
381E00
3F7C00
1FF800
07F000
ENDCHAR
STARTCHAR 03DB
ENCODING 987
SWIDTH 1000 0
DWIDTH 30 0
BBX 16 22 7 -5
BITMAP
0FFC
1FFE
3C0E
3807
7007
7007
6006
E000
E000
E000
E000
E000
7800
7E00
1FC0
07F0
00F8
0038
0038
0038
0038
0070
ENDCHAR
STARTCHAR 0401
ENCODING 1025
SWIDTH 1000 0
DWIDTH 30 0
BBX 17 29 7 0
BITMAP
1E7800
1E7800
1E7800
000000
000000
FFFF80
FFFF80
FFFF80
E00000
E00000
E00000
E00000
E00000
E00000
E00000
FFFF00
FFFF00
FFFF00
E00000
E00000
E00000
E00000
E00000
E00000
E00000
E00000
FFFF80
FFFF80
FFFF80
ENDCHAR
STARTCHAR 0410
ENCODING 1040
SWIDTH 1000 0
DWIDTH 30 0
BBX 20 24 5 0
BITMAP
00F000
00F000
01F800
01F800
01B800
039C00
039C00
070E00
070E00
070E00
0E0700
0E0700
0E0700
1C0380
1C0380
1FFF80
3FFFC0
3FFFC0
7801E0
7000E0
7000E0
F000F0
E00070
E00070
ENDCHAR
STARTCHAR 0411
ENCODING 1041
SWIDTH 1000 0
DWIDTH 30 0
BBX 18 24 6 0
BITMAP
FFFFC0
FFFFC0
FFFFC0
E00000
E00000
E00000
E00000
E00000
E00000
E00000
FFF800
FFFF00
FFFF80
E003C0
E001C0
E001C0
E001C0
E001C0
E001C0
E001C0
E001C0
FFFF80
FFFF80
FFFE00
ENDCHAR
STARTCHAR 0412
ENCODING 1042
SWIDTH 1000 0
DWIDTH 30 0
BBX 18 24 6 0
BITMAP
FFF000
FFFF00
FFFF80
E00780
E00380
E001C0
E001C0
E001C0
E00180
E00380
E01F00
FFFE00
FFFF80
E003C0
E001C0
E001C0
E000C0
E000C0
E000C0
E001C0
E001C0
FFFFC0
FFFF80
FFFE00
ENDCHAR
STARTCHAR 0413
ENCODING 1043
SWIDTH 1000 0
DWIDTH 30 0
BBX 16 24 8 0
BITMAP
FFFF
FFFF
FFFF
E000
E000
E000
E000
E000
E000
E000
E000
E000
E000
E000
E000
E000
E000
E000
E000
E000
E000
E000
E000
E000
ENDCHAR
STARTCHAR 0414
ENCODING 1044
SWIDTH 1000 0
DWIDTH 30 0
BBX 22 28 4 -4
BITMAP
0FFFF0
0FFFF0
0FFFF0
0E0070
0E0070
0E0070
0E0070
0E0070
0E0070
0E0070
0E0070
0E0070
0E0070
0E0070
0E0070
0E0070
0E0070
0E0070
1C0070
1C0070
380070
FFFFFC
FFFFFC
FFFFFC
E0001C
E0001C
E0001C
E0001C
ENDCHAR
STARTCHAR 0415
ENCODING 1045
SWIDTH 1000 0
DWIDTH 30 0
BBX 17 24 7 0
BITMAP
FFFF80
FFFF80
FFFF80
E00000
E00000
E00000
E00000
E00000
E00000
E00000
FFFF00
FFFF00
FFFF00
E00000
E00000
E00000
E00000
E00000
E00000
E00000
E00000
FFFF80
FFFF80
FFFF80
ENDCHAR
STARTCHAR 0416
ENCODING 1046
SWIDTH 1000 0
DWIDTH 30 0
BBX 28 24 1 0
BITMAP
F00600F0
700600E0
380601C0
1C060380
1E060780
0F060F00
07060E00
03861C00
01C63800
00E67000
00F6E000
007FE000
0076E000
00F6F000
00E67000
01C63800
03861C00
07861E00
0F060F00
1E060700
1C060380
380601C0
780601E0
F00600F0
ENDCHAR
STARTCHAR 0417
ENCODING 1047
SWIDTH 1000 0
DWIDTH 30 0
BBX 18 24 6 0
BITMAP
07FC00
1FFF00
3FFF80
7003C0
7001C0
E001C0
E001C0
0001C0
0001C0
000380
01FF80
01FE00
01FF80
0003C0
0001C0
0001C0
C000C0
E000C0
E001C0
E001C0
F003C0
7FFF80
3FFF00
07FC00
ENDCHAR
STARTCHAR 0418
ENCODING 1048
SWIDTH 1000 0
DWIDTH 30 0
BBX 20 24 5 0
BITMAP
E001F0
E001F0
E003F0
E003F0
E00770
E00E70
E00E70
E01C70
E01C70
E03870
E07870
E07070
E0E070
E0E070
E1C070
E3C070
E38070
E70070
E70070
EE0070
FE0070
FC0070
F80070
F80070
ENDCHAR
STARTCHAR 0419
ENCODING 1049
SWIDTH 1000 0
DWIDTH 30 0
BBX 20 30 5 0
BITMAP
060400
020C00
03FC00
01F000
000000
000000
E001F0
E001F0
E003F0
E003F0
E00770
E00E70
E00E70
E01C70
E01C70
E03870
E07870
E07070
E0E070
E0E070
E1C070
E3C070
E38070
E70070
E70070
EE0070
FE0070
FC0070
F80070
F80070
ENDCHAR
STARTCHAR 041A
ENCODING 1050
SWIDTH 1000 0
DWIDTH 30 0
BBX 19 24 6 0
BITMAP
E001E0
E003C0
E00780
E00F00
E01E00
E03800
E0F000
E1E000
E3C000
E78000
EF0000
FE0000
FE0000
EF0000
E38000
E1E000
E0F000
E07800
E03C00
E01E00
E00F00
E00780
E003C0
E001E0
ENDCHAR
STARTCHAR 041B
ENCODING 1051
SWIDTH 1000 0
DWIDTH 30 0
BBX 22 24 3 0
BITMAP
03FFFC
03FFFC
03FFFC
03801C
03801C
03801C
03801C
03801C
03801C
03801C
03801C
03801C
03801C
03801C
03801C
03801C
03801C
03801C
03801C
03001C
C7001C
FF001C
FE001C
7C001C
ENDCHAR
STARTCHAR 041C
ENCODING 1052
SWIDTH 1000 0
DWIDTH 30 0
BBX 24 23 3 0
BITMAP
F8001F
F8001F
FC003F
FC0037
EE0037
EE0077
E60067
E700E7
E700E7
E300C7
E381C7
E381C7
E18187
E1C387
E1C387
E0C307
E0E707
E0E707
E06607
E07E07
E07E07
E03C07
E03C07
ENDCHAR
STARTCHAR 041D
ENCODING 1053
SWIDTH 1000 0
DWIDTH 30 0
BBX 20 24 5 0
BITMAP
E00070
E00070
E00070
E00070
E00070
E00070
E00070
E00070
E00070
E00070
FFFFF0
FFFFF0
FFFFF0
E00070
E00070
E00070
E00070
E00070
E00070
E00070
E00070
E00070
E00070
E00070
ENDCHAR
STARTCHAR 041E
ENCODING 1054
SWIDTH 1000 0
DWIDTH 30 0
BBX 20 24 5 0
BITMAP
03FE00
1FFF80
3FFFC0
7801E0
7000E0
E00070
E00070
E00070
E00070
E00070
E00070
E00070
E00070
E00070
E00070
E00070
E00070
E00070
E00070
7000E0
7801E0
3FFFC0
1FFF80
07FC00
ENDCHAR
STARTCHAR 041F
ENCODING 1055
SWIDTH 1000 0
DWIDTH 30 0
BBX 20 24 5 0
BITMAP
FFFFF0
FFFFF0
FFFFF0
E00070
E00070
E00070
E00070
E00070
E00070
E00070
E00070
E00070
E00070
E00070
E00070
E00070
E00070
E00070
E00070
E00070
E00070
E00070
E00070
E00070
ENDCHAR
STARTCHAR 0420
ENCODING 1056
SWIDTH 1000 0
DWIDTH 30 0
BBX 19 24 6 0
BITMAP
FFF800
FFFF80
FFFFC0
E001E0
E000E0
E000E0
E000E0
E00060
E00060
E000E0
E000E0
E001E0
FFFFC0
FFFF80
FFFF00
E00000
E00000
E00000
E00000
E00000
E00000
E00000
E00000
E00000
ENDCHAR
STARTCHAR 0421
ENCODING 1057
SWIDTH 1000 0
DWIDTH 30 0
BBX 18 24 6 0
BITMAP
07F800
1FFE00
3FFF80
780780
7003C0
E001C0
E001C0
E001C0
E00000
E00000
C00000
C00000
C00000
C00000
C00000
E000C0
E000C0
E001C0
E001C0
F001C0
780380
3FFF80
1FFF00
07F800
ENDCHAR
STARTCHAR 0422
ENCODING 1058
SWIDTH 1000 0
DWIDTH 30 0
BBX 20 24 5 0
BITMAP
FFFFF0
FFFFF0
FFFFF0
006000
006000
006000
006000
006000
006000
006000
006000
006000
006000
006000
006000
006000
006000
006000
006000
006000
006000
006000
006000
006000
ENDCHAR
STARTCHAR 0423
ENCODING 1059
SWIDTH 1000 0
DWIDTH 30 0
BBX 17 24 7 0
BITMAP
F00380
700380
700380
380700
380700
380E00
1C0E00
1C0E00
1C1C00
0E1C00
0E3800
073800
073800
077000
03F000
03E000
03E000
01E000
01C000
01C000
038000
7F8000
7F0000
7E0000
ENDCHAR
STARTCHAR 0424
ENCODING 1060
SWIDTH 1000 0
DWIDTH 30 0
BBX 20 24 5 0
BITMAP
006000
006000
006000
0FFF00
3FFFC0
7C63E0
7060E0
F060F0
E06070
E06070
E06070
E06030
E06030
E06070
E06070
E06070
E06070
7060E0
7C63E0
3FFFC0
0FFF00
00F000
006000
006000
ENDCHAR
STARTCHAR 0425
ENCODING 1061
SWIDTH 1000 0
DWIDTH 30 0
BBX 20 24 5 0
BITMAP
F000F0
7000E0
3801C0
3C03C0
1C0380
0E0700
0F0F00
070E00
039C00
03FC00
01F800
00F000
01F800
01F800
039C00
079E00
070E00
0E0700
1E0780
3C03C0
3801C0
7801E0
F000F0
E00070
ENDCHAR
STARTCHAR 0426
ENCODING 1062
SWIDTH 1000 0
DWIDTH 30 0
BBX 21 28 6 -4
BITMAP
C001C0
C001C0
C001C0
C001C0
C001C0
C001C0
C001C0
C001C0
C001C0
C001C0
C001C0
C001C0
C001C0
C001C0
C001C0
C001C0
C001C0
C001C0
C001C0
C001C0
C001C0
FFFFF8
FFFFF8
FFFFF8
000038
000038
000038
000038
ENDCHAR
STARTCHAR 0427
ENCODING 1063
SWIDTH 1000 0
DWIDTH 30 0
BBX 18 24 6 0
BITMAP
E001C0
E001C0
E001C0
E001C0
E001C0
E001C0
E001C0
E001C0
E001C0
E001C0
E001C0
F007C0
781FC0
7FFFC0
3FF9C0
0301C0
0001C0
0001C0
0001C0
0001C0
0001C0
0001C0
0001C0
0001C0
ENDCHAR
STARTCHAR 0428
ENCODING 1064
SWIDTH 1000 0
DWIDTH 30 0
BBX 24 24 3 0
BITMAP
C01803
C01803
C01803
C01803
C01803
C01803
C01803
C01803
C01803
C01803
C01803
C01803
C01803
C01803
C01803
C01803
C01803
C01803
C01803
C01803
C01803
FFFFFF
FFFFFF
FFFFFF
ENDCHAR
STARTCHAR 0429
ENCODING 1065
SWIDTH 1000 0
DWIDTH 30 0
BBX 27 28 2 -4
BITMAP
E01C0380
E01C0380
E01C0380
E01C0380
E01C0380
E01C0380
E01C0380
E01C0380
E01C0380
E01C0380
E01C0380
E01C0380
E01C0380
E01C0380
E01C0380
E01C0380
E01C0380
E01C0380
E01C0380
E01C0380
E01C0380
FFFFFFE0
FFFFFFE0
FFFFFFE0
00000060
00000060
00000060
00000060
ENDCHAR
STARTCHAR 042A
ENCODING 1066
SWIDTH 1000 0
DWIDTH 30 0
BBX 23 24 4 0
BITMAP
FF8000
FF8000
FF8000
038000
038000
038000
038000
038000
038000
03FF80
03FFF0
03FFF8
03803C
03801C
03801C
03800C
03800E
03800E
03800C
03801C
03801C
03FFF8
03FFF8
03FFE0
ENDCHAR
STARTCHAR 042B
ENCODING 1067
SWIDTH 1000 0
DWIDTH 30 0
BBX 22 24 4 0
BITMAP
E0001C
E0001C
E0001C
E0001C
E0001C
E0001C
E0001C
E0001C
E0001C
FFC01C
FFFC1C
FFFE1C
E00F1C
E0071C
E0071C
E0071C
E0071C
E0071C
E0071C
E0071C
E00F1C
FFFE1C
FFFC1C
FFF81C
ENDCHAR
STARTCHAR 042C
ENCODING 1068
SWIDTH 1000 0
DWIDTH 30 0
BBX 18 24 7 0
BITMAP
E00000
E00000
E00000
E00000
E00000
E00000
E00000
E00000
E00000
FFF800
FFFE00
FFFF00
E00780
E00380
E00380
E001C0
E001C0
E001C0
E001C0
E00380
E00380
FFFF80
FFFF00
FFFC00
ENDCHAR
STARTCHAR 042D
ENCODING 1069
SWIDTH 1000 0
DWIDTH 30 0
BBX 20 24 5 0
BITMAP
03FC00
1FFF80
3FFFC0
7803C0
7000E0
7000E0
E00070
E00070
000070
000070
000070
00FFF0
00FFF0
000070
000070
000070
E00070
E00070
E000E0
7000E0
7801C0
3FFFC0
1FFF80
07FC00
ENDCHAR
STARTCHAR 042E
ENCODING 1070
SWIDTH 1000 0
DWIDTH 30 0
BBX 24 24 4 0
BITMAP
E00FE0
E03FF8
E07FFC
E0F01C
E0E00E
E1C00E
E1C00E
E1C00E
E1C007
E1C007
E1C007
FFC007
FFC007
E1C007
E1C007
E1C007
E1C006
E1C00E
E1C00E
E0E00E
E0E01C
E07FFC
E03FF8
E01FE0
ENDCHAR
STARTCHAR 042F
ENCODING 1071
SWIDTH 1000 0
DWIDTH 30 0
BBX 19 24 5 0
BITMAP
03FFE0
1FFFE0
3FFFE0
7800E0
7000E0
6000E0
E000E0
E000E0
7000E0
7000E0
7800E0
3FFFE0
0FFFE0
3FFFE0
7800E0
7000E0
7000E0
7000E0
7000E0
7000E0
7000E0
7000E0
7000E0
E000E0
ENDCHAR
STARTCHAR 0430
ENCODING 1072
SWIDTH 1000 0
DWIDTH 30 0
BBX 16 18 7 0
BITMAP
0FF0
3FFC
3C3E
700E
7006
6006
0006
000E
1FFE
7FF6
7006
E006
E006
E006
E00E
F01E
7FFE
3FE7
ENDCHAR
STARTCHAR 0431
ENCODING 1073
SWIDTH 1000 0
DWIDTH 30 0
BBX 16 24 7 0
BITMAP
001C
0FFC
3FF8
7F00
7000
6000
E000
FFF8
FFFC
F81E
F007
E007
E007
E007
E007
E007
E007
E007
E007
E007
7007
781E
3FFC
1FF8
ENDCHAR
STARTCHAR 0432
ENCODING 1074
SWIDTH 1000 0
DWIDTH 30 0
BBX 14 17 9 0
BITMAP
FFF0
FFF8
C038
C018
C018
C038
C078
FFE0
FFF0
C038
C01C
C01C
C01C
C01C
C07C
FFF8
FFF0
ENDCHAR
STARTCHAR 0433
ENCODING 1075
SWIDTH 1000 0
DWIDTH 30 0
BBX 13 17 9 0
BITMAP
FFF8
FFF8
E000
E000
E000
E000
E000
E000
E000
E000
E000
E000
E000
E000
E000
E000
E000
ENDCHAR
STARTCHAR 0434
ENCODING 1076
SWIDTH 1000 0
DWIDTH 30 0
BBX 18 21 6 -4
BITMAP
0FFF00
0FFF00
0E0700
0E0700
0E0700
0E0700
0E0700
0E0700
0E0700
0C0700
0C0700
1C0700
1C0700
380700
380700
FFFFC0
FFFFC0
E001C0
E001C0
E001C0
E001C0
ENDCHAR
STARTCHAR 0435
ENCODING 1077
SWIDTH 1000 0
DWIDTH 30 0
BBX 16 18 7 0
BITMAP
0FF0
3FFC
7F7E
700E
6007
E007
E007
E007
FFFF
FFFF
E000
E000
E007
E007
6007
780E
3FFE
1FF8
ENDCHAR
STARTCHAR 0436
ENCODING 1078
SWIDTH 1000 0
DWIDTH 30 0
BBX 21 18 4 0
BITMAP
703038
303030
383070
1C30E0
0E31C0
073380
033300
03B700
01FE00
01B600
03B700
073380
0E31C0
0C30C0
1C30E0
383070
703038
E03018
ENDCHAR
STARTCHAR 0437
ENCODING 1079
SWIDTH 1000 0
DWIDTH 30 0
BBX 16 18 7 0
BITMAP
0FF0
3FFC
7FFE
700E
7006
0006
000E
001E
01F8
01FC
000E
0006
E007
E007
7006
781E
3FFE
1FF8
ENDCHAR
STARTCHAR 0438
ENCODING 1080
SWIDTH 1000 0
DWIDTH 30 0
BBX 14 18 8 0
BITMAP
E03C
E07C
E07C
E0FC
E0FC
E1DC
E1DC
E39C
E39C
E71C
E71C
EE1C
EE1C
FC1C
FC1C
F81C
F81C
F01C
ENDCHAR
STARTCHAR 0439
ENCODING 1081
SWIDTH 1000 0
DWIDTH 30 0
BBX 14 24 8 0
BITMAP
3020
1020
1FE0
0F80
0000
0000
E03C
E07C
E07C
E0FC
E0FC
E1DC
E1DC
E39C
E39C
E71C
E71C
EE1C
EE1C
FC1C
FC1C
F81C
F81C
F01C
ENDCHAR
STARTCHAR 043A
ENCODING 1082
SWIDTH 1000 0
DWIDTH 30 0
BBX 14 18 9 0
BITMAP
C038
C070
C0E0
C1C0
C380
C700
CE00
DC00
F800
DC00
CE00
C700
C380
C1C0
C1E0
C0F0
C078
C03C
ENDCHAR
STARTCHAR 043B
ENCODING 1083
SWIDTH 1000 0
DWIDTH 30 0
BBX 17 17 5 0
BITMAP
07FF80
07FF80
060380
060380
060380
060380
060380
060380
060380
060380
060380
060380
060380
0E0380
7E0380
FE0380
F80380
ENDCHAR
STARTCHAR 043C
ENCODING 1084
SWIDTH 1000 0
DWIDTH 30 0
BBX 18 18 6 0
BITMAP
F003C0
F807C0
F807C0
F807C0
FC0FC0
FC0FC0
EC0DC0
EC1DC0
EE1DC0
E619C0
E619C0
E739C0
E331C0
E331C0
E3F1C0
E1E1C0
E1E1C0
E1E1C0
ENDCHAR
STARTCHAR 043D
ENCODING 1085
SWIDTH 1000 0
DWIDTH 30 0
BBX 14 18 8 0
BITMAP
E01C
E01C
E01C
E01C
E01C
E01C
E01C
E01C
FFFC
FFFC
E01C
E01C
E01C
E01C
E01C
E01C
E01C
E01C
ENDCHAR
STARTCHAR 043E
ENCODING 1086
SWIDTH 1000 0
DWIDTH 30 0
BBX 16 18 7 0
BITMAP
0FF0
3FFC
7FFE
700E
E007
E007
E007
E007
E007
E007
E007
E007
E007
E007
6007
781E
3FFC
1FF8
ENDCHAR
STARTCHAR 043F
ENCODING 1087
SWIDTH 1000 0
DWIDTH 30 0
BBX 14 17 8 0
BITMAP
FFFC
FFFC
E01C
E01C
E01C
E01C
E01C
E01C
E01C
E01C
E01C
E01C
E01C
E01C
E01C
E01C
E01C
ENDCHAR
STARTCHAR 0440
ENCODING 1088
SWIDTH 1000 0
DWIDTH 30 0
BBX 15 22 8 -4
BITMAP
C7E0
DFF8
FCFC
F01C
E00E
E00E
C00E
C00E
C00E
C00E
C00E
C00E
E00E
E00E
E01C
F83C
FFF8
CFF0
C000
C000
C000
C000
ENDCHAR
STARTCHAR 0441
ENCODING 1089
SWIDTH 1000 0
DWIDTH 30 0
BBX 16 18 7 0
BITMAP
0FF0
3FFC
7F7E
700E
E007
E007
E007
E000
E000
E000
E000
E000
E007
E007
7007
780E
3FFE
1FF8
ENDCHAR
STARTCHAR 0442
ENCODING 1090
SWIDTH 1000 0
DWIDTH 30 0
BBX 14 17 8 0
BITMAP
FFFC
FFFC
0300
0300
0300
0300
0300
0300
0300
0300
0300
0300
0300
0300
0300
0300
0300
ENDCHAR
STARTCHAR 0443
ENCODING 1091
SWIDTH 1000 0
DWIDTH 30 0
BBX 16 22 7 -4
BITMAP
E007
700E
700E
700E
381C
381C
1C1C
1C38
1C38
0E30
0E70
0670
0760
07E0
03E0
03C0
01C0
01C0
0380
2780
3F00
3E00
ENDCHAR
STARTCHAR 0444
ENCODING 1092
SWIDTH 1000 0
DWIDTH 30 0
BBX 20 28 5 -4
BITMAP
006000
006000
006000
006000
006000
006000
3E67C0
7F6FE0
7FFFE0
E1F870
E0F070
E0F030
C07030
C06030
C06030
C06030
C06030
C06030
C0F030
E0F070
E0F070
F1F8F0
7FFFE0
3F6FC0
006000
006000
006000
006000
ENDCHAR
STARTCHAR 0445
ENCODING 1093
SWIDTH 1000 0
DWIDTH 30 0
BBX 15 18 7 0
BITMAP
700E
781E
381C
1C38
1C38
0E70
06E0
07E0
03C0
07E0
07E0
0E70
0E70
1C38
383C
381C
700E
F00E
ENDCHAR
STARTCHAR 0446
ENCODING 1094
SWIDTH 1000 0
DWIDTH 30 0
BBX 16 22 8 -4
BITMAP
C018
C018
C018
C018
C018
C018
C018
C018
C018
C018
C018
C018
C018
C018
C018
C018
FFFF
FFFF
0007
0007
0007
0007
ENDCHAR
STARTCHAR 0447
ENCODING 1095
SWIDTH 1000 0
DWIDTH 30 0
BBX 14 17 8 0
BITMAP
E01C
E01C
E01C
E01C
E01C
E01C
E01C
E03C
70FC
7FFC
3FDC
001C
001C
001C
001C
001C
001C
ENDCHAR
STARTCHAR 0448
ENCODING 1096
SWIDTH 1000 0
DWIDTH 30 0
BBX 20 18 5 0
BITMAP
E06070
E06070
E06070
E06070
E06070
E06070
E06070
E06070
E06070
E06070
E06070
E06070
E06070
E06070
E06070
E06070
FFFFF0
FFFFF0
ENDCHAR
STARTCHAR 0449
ENCODING 1097
SWIDTH 1000 0
DWIDTH 30 0
BBX 22 22 5 -4
BITMAP
C0E060
C0E060
C0E060
C0E060
C0E060
C0E060
C0E060
C0E060
C0E060
C0E060
C0E060
C0E060
C0E060
C0E060
C0E060
C0E060
FFFFFC
FFFFFC
00001C
00001C
00001C
00001C
ENDCHAR
STARTCHAR 044A
ENCODING 1098
SWIDTH 1000 0
DWIDTH 30 0
BBX 18 17 6 0
BITMAP
FE0000
FE0000
0E0000
0E0000
0E0000
0E0000
0FFE00
0FFF00
0E0F80
0E01C0
0E01C0
0E01C0
0E01C0
0E01C0
0E0F80
0FFF80
0FFE00
ENDCHAR
STARTCHAR 044B
ENCODING 1099
SWIDTH 1000 0
DWIDTH 30 0
BBX 20 18 5 0
BITMAP
E00070
E00070
E00070
E00070
E00070
E00070
E00070
FFE070
FFF070
E0F870
E03870
E01C70
E01C70
E01C70
E03870
E0F870
FFF070
FFE070
ENDCHAR
STARTCHAR 044C
ENCODING 1100
SWIDTH 1000 0
DWIDTH 30 0
BBX 14 18 9 0
BITMAP
E000
E000
E000
E000
E000
E000
E000
FFF0
FFF8
E07C
E01C
E00C
E00C
E00C
E01C
E07C
FFF8
FFF0
ENDCHAR
STARTCHAR 044D
ENCODING 1101
SWIDTH 1000 0
DWIDTH 30 0
BBX 16 18 7 0
BITMAP
0FF0
3FFC
7FFE
700E
E007
E007
E007
0007
03FF
03FF
0007
0007
E007
E007
F00E
781E
7FFC
1FF8
ENDCHAR
STARTCHAR 044E
ENCODING 1102
SWIDTH 1000 0
DWIDTH 30 0
BBX 19 18 6 0
BITMAP
E07F00
E0FF80
E1FFC0
E1C1C0
E180E0
E380E0
E380E0
E380E0
FF80E0
FF80E0
E380E0
E380E0
E380E0
E380E0
E1C1C0
E1FFC0
E0FF80
E07F00
ENDCHAR
STARTCHAR 044F
ENCODING 1103
SWIDTH 1000 0
DWIDTH 30 0
BBX 14 17 7 0
BITMAP
3FFC
7FFC
700C
600C
600C
600C
700C
3FFC
1FFC
780C
700C
700C
700C
700C
600C
600C
E00C
ENDCHAR
STARTCHAR 0451
ENCODING 1105
SWIDTH 1000 0
DWIDTH 30 0
BBX 16 23 7 0
BITMAP
1E78
1E78
1E78
0000
0000
0FF0
3FFC
7F7E
700E
6007
E007
E007
E007
FFFF
FFFF
E000
E000
E007
E007
6007
780E
3FFE
1FF8
ENDCHAR
STARTCHAR 045B
ENCODING 1115
SWIDTH 1000 0
DWIDTH 30 0
BBX 17 25 6 -1
BITMAP
060000
0EC000
0F8000
0F8000
0F0000
1C0000
3C0000
7CFF00
5FFF80
9F0780
1C0380
3C0380
380380
380380
300380
300300
700700
700700
700700
600700
600600
E00E00
E00E00
E00E00
C00E00
ENDCHAR
STARTCHAR 1EBC
ENCODING 7868
SWIDTH 700 0
DWIDTH 21 0
BBX 17 29 2 0
BITMAP
078800
0FF800
186000
000000
000000
FFFF80
FFFF80
FFFF80
E00000
E00000
E00000
E00000
E00000
E00000
E00000
FFFF00
FFFF00
FFFF00
E00000
E00000
E00000
E00000
E00000
E00000
E00000
E00000
FFFF80
FFFF80
FFFF80
ENDCHAR
STARTCHAR 1EBD
ENCODING 7869
SWIDTH 633 0
DWIDTH 19 0
BBX 16 23 1 0
BITMAP
0788
0FF8
1860
0000
0000
07F8
1FFC
3F7E
7007
7007
6003
6003
E003
FFFF
FFFF
E000
E000
6003
7003
7007
3F3F
1FFE
07F8
ENDCHAR
STARTCHAR 2002
ENCODING 8194
SWIDTH 500 0
DWIDTH 15 0
BBX 0 0 0 0
BITMAP
ENDCHAR
STARTCHAR 2003
ENCODING 8195
SWIDTH 1000 0
DWIDTH 30 0
BBX 0 0 0 0
BITMAP
ENDCHAR
STARTCHAR 2010
ENCODING 8208
SWIDTH 1000 0
DWIDTH 30 0
BBX 8 3 11 10
BITMAP
FF
FF
FF
ENDCHAR
STARTCHAR 2011
ENCODING 8209
SWIDTH 300 0
DWIDTH 9 0
BBX 8 3 1 7
BITMAP
FF
FF
FF
ENDCHAR
STARTCHAR 2012
ENCODING 8210
SWIDTH 500 0
DWIDTH 15 0
BBX 13 2 1 8
BITMAP
FFF8
FFF8
ENDCHAR
STARTCHAR 2013
ENCODING 8211
SWIDTH 500 0
DWIDTH 15 0
BBX 13 2 1 8
BITMAP
FFF8
FFF8
ENDCHAR
STARTCHAR 2014
ENCODING 8212
SWIDTH 1000 0
DWIDTH 30 0
BBX 30 2 0 8
BITMAP
FFFFFFFC
FFFFFFFC
ENDCHAR
STARTCHAR 2015
ENCODING 8213
SWIDTH 1000 0
DWIDTH 30 0
BBX 30 2 0 10
BITMAP
FFFFFFFC
FFFFFFFC
ENDCHAR
STARTCHAR 2016
ENCODING 8214
SWIDTH 1000 0
DWIDTH 30 0
BBX 8 30 11 -4
BITMAP
C3
C3
C3
C3
C3
C3
C3
C3
C3
C3
C3
C3
C3
C3
C3
C3
C3
C3
C3
C3
C3
C3
C3
C3
C3
C3
C3
C3
C3
C3
ENDCHAR
STARTCHAR 2018
ENCODING 8216
SWIDTH 1000 0
DWIDTH 30 0
BBX 3 6 25 19
BITMAP
60
C0
C0
E0
E0
E0
ENDCHAR
STARTCHAR 2019
ENCODING 8217
SWIDTH 1000 0
DWIDTH 30 0
BBX 3 6 2 19
BITMAP
E0
E0
E0
60
E0
C0
ENDCHAR
STARTCHAR 201A
ENCODING 8218
SWIDTH 266 0
DWIDTH 8 0
BBX 4 6 2 -3
BITMAP
F0
F0
F0
30
E0
C0
ENDCHAR
STARTCHAR 201C
ENCODING 8220
SWIDTH 1000 0
DWIDTH 30 0
BBX 8 6 20 19
BITMAP
63
C6
C6
E7
E7
E7
ENDCHAR
STARTCHAR 201D
ENCODING 8221
SWIDTH 1000 0
DWIDTH 30 0
BBX 8 6 2 19
BITMAP
EF
EF
EF
63
E6
CC
ENDCHAR
STARTCHAR 201E
ENCODING 8222
SWIDTH 366 0
DWIDTH 11 0
BBX 8 6 2 -3
BITMAP
EF
EF
EF
62
EE
CC
ENDCHAR
STARTCHAR 2020
ENCODING 8224
SWIDTH 1000 0
DWIDTH 30 0
BBX 16 29 7 -3
BITMAP
0180
0180
0180
0180
0180
0180
0180
FFFF
FFFF
0180
0180
0180
0180
0180
0180
0180
0180
0180
0180
0180
0180
0180
0180
0180
0180
0180
0180
0180
0180
ENDCHAR
STARTCHAR 2021
ENCODING 8225
SWIDTH 1000 0
DWIDTH 30 0
BBX 16 29 7 -3
BITMAP
0180
0180
0180
0180
0180
0180
0180
FFFF
FFFF
0180
0180
0180
0180
0180
0180
0180
0180
0180
0180
0180
FFFF
FFFF
0180
0180
0180
0180
0180
0180
0180
ENDCHAR
STARTCHAR 2022
ENCODING 8226
SWIDTH 433 0
DWIDTH 13 0
BBX 9 8 2 8
BITMAP
3C00
7F00
7F00
FF80
FF80
FF00
7F00
3E00
ENDCHAR
STARTCHAR 2025
ENCODING 8229
SWIDTH 1000 0
DWIDTH 30 0
BBX 18 4 6 9
BITMAP
E001C0
E001C0
E001C0
E001C0
ENDCHAR
STARTCHAR 2026
ENCODING 8230
SWIDTH 1000 0
DWIDTH 30 0
BBX 24 4 3 9
BITMAP
601806
F03C0F
F03C0F
601806
ENDCHAR
STARTCHAR 2030
ENCODING 8240
SWIDTH 1000 0
DWIDTH 30 0
BBX 28 25 1 -1
BITMAP
3C038000
7E030000
E7070000
C3060000
C30E0000
C30C0000
C31C0000
C3180000
C3380000
C3300000
E7700000
7E600000
3CE783C0
00CFC7E0
01CC6E70
01986C30
03986C30
03186C30
07186C30
06186C30
0E186C30
0C1C6C30
1C0C6E70
180FC7E0
380783C0
ENDCHAR
STARTCHAR 2032
ENCODING 8242
SWIDTH 1000 0
DWIDTH 30 0
BBX 5 6 2 18
BITMAP
10
38
30
60
60
C0
ENDCHAR
STARTCHAR 2033
ENCODING 8243
SWIDTH 1000 0
DWIDTH 30 0
BBX 10 6 2 18
BITMAP
1100
39C0
7380
6700
C600
8C00
ENDCHAR
STARTCHAR 2039
ENCODING 8249
SWIDTH 300 0
DWIDTH 9 0
BBX 5 12 2 3
BITMAP
18
18
30
70
60
E0
E0
60
70
30
18
18
ENDCHAR
STARTCHAR 203A
ENCODING 8250
SWIDTH 300 0
DWIDTH 9 0
BBX 5 12 2 3
BITMAP
C0
60
60
30
38
18
18
38
30
60
60
C0
ENDCHAR
STARTCHAR 203B
ENCODING 8251
SWIDTH 1000 0
DWIDTH 30 0
BBX 22 22 4 0
BITMAP
403808
607818
307830
187860
0C78C0
060180
030300
018600
70CC38
787878
F8307C
787878
70CC38
018600
030300
060180
040080
083840
107860
30F830
607818
407008
ENDCHAR
STARTCHAR 203C
ENCODING 8252
SWIDTH 1000 0
DWIDTH 30 0
BBX 10 24 10 -1
BITMAP
E1C0
E1C0
E1C0
E1C0
E1C0
E1C0
E180
6180
6180
6180
6180
6180
6180
6180
6180
6180
6180
0000
0000
0000
0000
F3C0
F3C0
F3C0
ENDCHAR
STARTCHAR 203E
ENCODING 8254
SWIDTH 500 0
DWIDTH 15 0
BBX 15 1 0 25
BITMAP
FFFE
ENDCHAR
STARTCHAR 2044
ENCODING 8260
SWIDTH 66 0
DWIDTH 2 0
BBX 17 24 -8 0
BITMAP
000080
000080
000100
000200
000600
000400
000800
001800
001000
002000
006000
004000
008000
010000
030000
020000
040000
0C0000
080000
100000
200000
200000
400000
800000
ENDCHAR
STARTCHAR 2049
ENCODING 8265
SWIDTH 1000 0
DWIDTH 30 0
BBX 20 24 6 -1
BITMAP
E1FFC0
E3FFE0
E780F0
E70070
E70070
E60030
E60030
E60030
E00070
E00070
E001E0
E007C0
E01F00
E01E00
E03800
E03800
E03800
000000
000000
000000
000000
E03800
E03800
E03800
ENDCHAR
STARTCHAR 2070
ENCODING 8304
SWIDTH 433 0
DWIDTH 13 0
BBX 9 13 2 11
BITMAP
3F00
7F80
E180
C180
C180
C180
C180
C180
C180
C180
E180
7F80
3F00
ENDCHAR
STARTCHAR 2074
ENCODING 8308
SWIDTH 433 0
DWIDTH 13 0
BBX 11 13 1 11
BITMAP
0380
0780
0F80
0D80
1980
3180
7180
E180
FFE0
FFE0
0180
0180
0180
ENDCHAR
STARTCHAR 2075
ENCODING 8309
SWIDTH 433 0
DWIDTH 13 0
BBX 10 13 2 11
BITMAP
FF80
FF80
C000
C000
DF00
FF80
E180
01C0
01C0
C1C0
C180
FF80
3E00
ENDCHAR
STARTCHAR 2076
ENCODING 8310
SWIDTH 433 0
DWIDTH 13 0
BBX 10 13 2 11
BITMAP
3F00
7F80
E180
C180
C000
DF00
FF80
C180
C1C0
C1C0
C180
7F80
3F00
ENDCHAR
STARTCHAR 2077
ENCODING 8311
SWIDTH 433 0
DWIDTH 13 0
BBX 9 13 2 11
BITMAP
FF80
FF80
0180
0380
0300
0700
0600
0E00
0C00
1800
1800
3000
7000
ENDCHAR
STARTCHAR 2078
ENCODING 8312
SWIDTH 433 0
DWIDTH 13 0
BBX 10 13 2 11
BITMAP
3F00
FF80
C180
C180
C180
7F80
7F80
C180
C0C0
C0C0
C1C0
FF80
7F00
ENDCHAR
STARTCHAR 2079
ENCODING 8313
SWIDTH 433 0
DWIDTH 13 0
BBX 10 13 2 11
BITMAP
3F00
FF80
C180
C180
C1C0
C1C0
FFC0
7FC0
0180
C180
C180
7F80
3E00
ENDCHAR
STARTCHAR 2080
ENCODING 8320
SWIDTH 433 0
DWIDTH 13 0
BBX 9 13 2 0
BITMAP
3E00
7F80
E180
C180
C180
C180
C180
C180
C180
C180
E180
7F80
3F00
ENDCHAR
STARTCHAR 2081
ENCODING 8321
SWIDTH 433 0
DWIDTH 13 0
BBX 4 12 4 0
BITMAP
F0
F0
30
30
30
30
30
30
30
30
30
30
ENDCHAR
STARTCHAR 2082
ENCODING 8322
SWIDTH 433 0
DWIDTH 13 0
BBX 10 13 2 0
BITMAP
3F00
7F80
E180
C1C0
C1C0
0180
0F80
7F00
F000
C000
C000
FF80
FF80
ENDCHAR
STARTCHAR 2083
ENCODING 8323
SWIDTH 433 0
DWIDTH 13 0
BBX 10 13 2 0
BITMAP
3F00
7F80
C180
C180
0180
0F80
0F80
0180
00C0
C0C0
C1C0
FF80
3F00
ENDCHAR
STARTCHAR 2084
ENCODING 8324
SWIDTH 433 0
DWIDTH 13 0
BBX 11 13 1 0
BITMAP
0380
0780
0F80
0D80
1980
3980
7180
E180
C180
FFE0
0180
0180
0180
ENDCHAR
STARTCHAR 2085
ENCODING 8325
SWIDTH 433 0
DWIDTH 13 0
BBX 10 13 2 0
BITMAP
FF80
FF80
C000
C000
DF00
FF80
E180
01C0
01C0
C1C0
C180
FF80
7F00
ENDCHAR
STARTCHAR 2086
ENCODING 8326
SWIDTH 433 0
DWIDTH 13 0
BBX 10 13 2 0
BITMAP
3E00
7F80
E180
C180
C000
DF00
FF80
C180
C1C0
C1C0
C180
7F80
3F00
ENDCHAR
STARTCHAR 2087
ENCODING 8327
SWIDTH 433 0
DWIDTH 13 0
BBX 9 13 2 0
BITMAP
FF80
FF80
0180
0380
0300
0700
0600
0E00
0C00
1C00
1800
3800
3000
ENDCHAR
STARTCHAR 2088
ENCODING 8328
SWIDTH 433 0
DWIDTH 13 0
BBX 10 13 2 0
BITMAP
3E00
7F80
C180
C180
C180
7F80
7F80
C180
C0C0
C0C0
C1C0
FF80
7F00
ENDCHAR
STARTCHAR 2089
ENCODING 8329
SWIDTH 433 0
DWIDTH 13 0
BBX 10 13 2 0
BITMAP
3F00
FF80
C180
C180
C1C0
C1C0
FFC0
7FC0
0180
C180
C180
7F80
3E00
ENDCHAR
STARTCHAR 20AC
ENCODING 8364
SWIDTH 800 0
DWIDTH 24 0
BBX 21 24 1 0
BITMAP
00FF00
03FFC0
07FFE0
0F00F0
1C0070
1C0038
1C0038
380038
380000
FFFF80
FFFF80
380000
380000
FFFF00
FFFF00
380038
380038
1C0038
1C0038
1C0078
0F00F0
0FFFE0
03FFC0
00FF00
ENDCHAR
STARTCHAR 20DD
ENCODING 8413
SWIDTH 1000 0
DWIDTH 30 0
BBX 28 30 1 -4
BITMAP
003FC000
00E07000
03000C00
06000600
08000100
10000080
300000C0
20000040
40000020
40000020
C0000030
80000010
80000010
80000010
80000010
80000010
80000010
80000010
80000010
C0000010
40000020
40000020
20000040
30000040
10000080
08000100
06000200
03000C00
00E07000
003FC000
ENDCHAR
STARTCHAR 2100
ENCODING 8448
SWIDTH 1000 0
DWIDTH 30 0
BBX 26 27 2 -2
BITMAP
1F000040
7FC00080
60C00100
C0600200
C0600400
00E00800
3FE01800
FF603000
C0606000
C060C000
C0E18000
C1E30000
FF660000
3E6C0000
0018FE00
0031FF00
00638380
00C30180
01830180
03030000
02030000
04030000
08030180
10030180
20038380
4001FF00
80007E00
ENDCHAR
STARTCHAR 2103
ENCODING 8451
SWIDTH 1000 0
DWIDTH 30 0
BBX 25 27 1 -1
BITMAP
78000000
CC000000
840FF000
843FFC00
C4FFFE00
ECE00F00
79C00700
01C00700
03800380
03800380
03800180
03800000
03800000
03800000
03800000
03800000
03800000
03800000
03800380
03800380
03800380
01C00380
01C00700
01F00F00
00FFFE00
007FFC00
000FF000
ENDCHAR
STARTCHAR 2105
ENCODING 8453
SWIDTH 1000 0
DWIDTH 30 0
BBX 26 27 2 -2
BITMAP
0F800040
3FE00080
70700100
60300200
60300400
60000800
60001800
60003000
60006000
6030C000
60318000
70730000
3FE60000
0FCC0000
0018FE00
0031FF00
00638380
00C30180
01830180
03030180
02030180
04030180
08030180
10030180
20038380
4001FF00
80007C00
ENDCHAR
STARTCHAR 2109
ENCODING 8457
SWIDTH 1000 0
DWIDTH 30 0
BBX 24 27 1 -1
BITMAP
780000
CC0000
84FFFF
84FFFF
84FFFF
ECE000
78E000
00E000
00E000
00E000
00E000
00E000
00E000
00FFFE
00FFFE
00FFFE
00E000
00E000
00E000
00E000
00E000
00E000
00E000
00E000
00E000
00E000
00E000
ENDCHAR
STARTCHAR 210A
ENCODING 8458
SWIDTH 1000 0
DWIDTH 30 0
BBX 19 23 6 -5
BITMAP
07F9E0
1FFFE0
3E1F00
380700
300380
300380
300380
380300
3E0F00
3FFE00
67FC00
E00000
F00000
7FFC00
3FFF80
700F80
E001C0
E001C0
E001C0
E001C0
7FFF80
3FFF00
0FFC00
ENDCHAR
STARTCHAR 210F
ENCODING 8463
SWIDTH 1000 0
DWIDTH 30 0
BBX 17 25 6 -1
BITMAP
060000
0EC000
0F8000
0F8000
0F0000
1C0000
3C0000
7CFF00
5FFF80
9F0780
1C0380
3C0380
380380
380380
300380
300300
700700
700700
700700
600700
600600
E00E00
E00E00
E00E00
C00E00
ENDCHAR
STARTCHAR 2113
ENCODING 8467
SWIDTH 1000 0
DWIDTH 30 0
BBX 14 25 7 -1
BITMAP
07E0
0FF8
1FF8
1C1C
1C1C
181C
181C
181C
381C
3818
3838
3838
3870
38F0
39E0
3BC0
3F80
3F00
7C1C
F81C
F81C
9C1C
1F7C
0FF8
07E0
ENDCHAR
STARTCHAR 2116
ENCODING 8470
SWIDTH 1000 0
DWIDTH 30 0
BBX 28 25 2 -1
BITMAP
F0700000
F0700000
F0700000
F8700000
F8700000
D8700000
D8700000
DC70FE00
CC71FF00
CC738700
CC730380
CE730380
C6770380
C6770380
C6770180
C7770180
C3770180
C3770180
C3F70380
C3F70380
C1F30380
C1F38300
C1F3FF70
C0F1FE70
C0F0FC70
ENDCHAR
STARTCHAR 2121
ENCODING 8481
SWIDTH 1000 0
DWIDTH 30 0
BBX 28 25 1 -1
BITMAP
FFC00000
FFC00000
FFC00000
0C000000
0C000000
0C000000
0C3FEE00
0C3FEE00
0C3FEE00
0C380E00
0C380E00
0C380E00
0C380E00
0C380E00
0C3FCE00
0C3FCE00
0C3FCE00
0C380E00
0C380E00
0C380E00
0C380E00
0C380E00
0C3FEFF0
0C3FEFF0
0C3FEFF0
ENDCHAR
STARTCHAR 2122
ENCODING 8482
SWIDTH 866 0
DWIDTH 26 0
BBX 24 12 1 12
BITMAP
FFCE07
FFCE0F
0C0F0F
0C0F0B
0C0D1B
0C0D9B
0C0D93
0C0C93
0C0CF3
0C0CF3
0C0CE3
0C0C63
ENDCHAR
STARTCHAR 2126
ENCODING 8486
SWIDTH 800 0
DWIDTH 24 0
BBX 22 24 1 0
BITMAP
01FF00
0FFFC0
1FFFE0
3C00F0
380070
380038
700038
700038
700038
700018
700018
700018
700018
700018
700038
700038
700038
300038
380070
1C0070
1E00E0
FF87FC
FF87FC
FF87FC
ENDCHAR
STARTCHAR 212B
ENCODING 8491
SWIDTH 1000 0
DWIDTH 30 0
BBX 21 32 4 -1
BITMAP
007800
00CC00
008400
00C400
007800
003000
000000
007800
007800
00FC00
00FC00
00DC00
01CE00
01CE00
018E00
038700
038700
070780
070380
070380
0E03C0
0E01C0
0E01C0
1FFFE0
1FFFE0
1FFFE0
380070
380070
380070
700038
700038
F00038
ENDCHAR
STARTCHAR 2135
ENCODING 8501
SWIDTH 1000 0
DWIDTH 30 0
BBX 22 25 3 -1
BITMAP
0807F8
0C03FC
0E03FC
0E0380
0F0380
078380
03C380
01E300
07F700
0E7700
0E7E00
1C3E00
1C1E00
1C0F00
1C0780
1C0380
1C01C0
0E01E0
0E00F0
0E0078
0F003C
07801C
7F800C
7F800C
FF0004
ENDCHAR
STARTCHAR 2153
ENCODING 8531
SWIDTH 933 0
DWIDTH 28 0
BBX 23 24 3 0
BITMAP
F00020
F00040
3000C0
300080
300100
300200
300600
300400
300800
301800
301000
3021F8
3043FC
00460C
00860C
01000C
03007C
02007C
04000C
0C0006
080606
10060E
2007FC
2001F8
ENDCHAR
STARTCHAR 2154
ENCODING 8532
SWIDTH 933 0
DWIDTH 28 0
BBX 25 24 2 0
BITMAP
3F000800
7F801000
C1802000
C1C02000
C1C04000
01808000
1F818000
7F010000
E0020000
C0060000
C0040000
FF887E00
FF90FF00
00318300
00218300
00400300
00C01F00
00801F00
01000300
03000180
02018180
04018380
0801FF00
08007E00
ENDCHAR
STARTCHAR 215B
ENCODING 8539
SWIDTH 933 0
DWIDTH 28 0
BBX 23 24 4 0
BITMAP
F00020
F00040
300080
300080
300100
300200
300600
300400
300800
301800
301000
3021F8
3047FC
00C60C
00860C
01060C
0303FC
0203FC
04060C
0C0606
080606
10060E
2007FC
2003F8
ENDCHAR
STARTCHAR 215C
ENCODING 8540
SWIDTH 933 0
DWIDTH 28 0
BBX 25 24 2 0
BITMAP
3F000800
7F801000
C1802000
C1802000
01804000
0F808000
0F818000
01810000
00C20000
C0C60000
C1C40000
FF887E00
3F11FF00
00318300
00218300
00418300
00C0FF00
0080FF00
01018300
03018180
02018180
04018380
0801FF00
0800FE00
ENDCHAR
STARTCHAR 215D
ENCODING 8541
SWIDTH 933 0
DWIDTH 28 0
BBX 25 24 2 0
BITMAP
FF800800
FF801000
C0002000
C0002000
DF004000
FF808000
E1818000
01C10000
01C20000
C1C60000
C1840000
FF887E00
3E11FF00
00318300
00218300
00418300
00C0FF00
0080FF00
01018300
03018180
02018180
04018380
0801FF00
0800FE00
ENDCHAR
STARTCHAR 215E
ENCODING 8542
SWIDTH 933 0
DWIDTH 28 0
BBX 25 24 2 0
BITMAP
FF800800
FF801000
01802000
03802000
03004000
07008000
06018000
0E010000
0C020000
1C060000
18040000
30087E00
3011FF00
00318300
00218300
00418300
00C0FF00
0080FF00
01018300
03018180
02018180
04018380
0801FF00
0800FE00
ENDCHAR
STARTCHAR 2160
ENCODING 8544
SWIDTH 1000 0
DWIDTH 30 0
BBX 8 24 11 -1
BITMAP
FF
FF
18
18
18
18
18
18
18
18
18
18
18
18
18
18
18
18
18
18
18
18
FF
FF
ENDCHAR
STARTCHAR 2161
ENCODING 8545
SWIDTH 1000 0
DWIDTH 30 0
BBX 16 24 7 -1
BITMAP
FFFF
FFFF
381C
381C
381C
381C
381C
381C
381C
381C
381C
381C
381C
381C
381C
381C
381C
381C
381C
381C
381C
381C
FFFF
FFFF
ENDCHAR
STARTCHAR 2162
ENCODING 8546
SWIDTH 1000 0
DWIDTH 30 0
BBX 20 24 5 -1
BITMAP
FFFFF0
FFFFF0
3861C0
3861C0
3861C0
3861C0
3861C0
3861C0
3861C0
3861C0
3861C0
3861C0
3861C0
3861C0
3861C0
3861C0
3861C0
3861C0
3861C0
3861C0
3861C0
3861C0
FFFFF0
FFFFF0
ENDCHAR
STARTCHAR 2163
ENCODING 8547
SWIDTH 1000 0
DWIDTH 30 0
BBX 26 24 2 -1
BITMAP
FFF03FC0
FFF03FC0
39C00E00
39E00E00
38E00E00
38E00E00
38E01C00
38701C00
38701C00
38703800
38703800
38383800
38383800
38387000
38187000
381C7000
381C6000
380CE000
380EE000
380EE000
380FC000
3807C000
FE07C000
FE078000
ENDCHAR
STARTCHAR 2164
ENCODING 8548
SWIDTH 1000 0
DWIDTH 30 0
BBX 24 24 3 -1
BITMAP
FF00FF
FF00FF
1C0038
1C0038
1C0038
0E0070
0E0070
0E0070
0700E0
0700E0
0700E0
0381C0
0381C0
0381C0
01C380
01C380
01C380
00E700
00E700
00E700
007E00
007E00
007E00
003C00
ENDCHAR
STARTCHAR 2165
ENCODING 8549
SWIDTH 1000 0
DWIDTH 30 0
BBX 26 24 2 -1
BITMAP
FF03FFC0
FF03FFC0
1C00E700
1C01E700
1C01C700
1C01C700
0E01C700
0E038700
0E038700
07038700
07030700
07070700
07070700
03870700
03860700
038E0700
018E0700
01CC0700
01DC0700
01DC0700
00FC0700
00F80700
00F81FC0
00781FC0
ENDCHAR
STARTCHAR 2166
ENCODING 8550
SWIDTH 1000 0
DWIDTH 30 0
BBX 28 24 1 -1
BITMAP
FE1FFFF0
FE1FFFF0
380738C0
380738C0
380738C0
180738C0
1C0638C0
1C0E38C0
1C0E38C0
0C0E38C0
0E0C38C0
0E1C38C0
0E1C38C0
061C38C0
061838C0
071838C0
073838C0
033838C0
033038C0
03B038C0
03F038C0
01F038C0
01E0FFF0
01E0FFF0
ENDCHAR
STARTCHAR 2167
ENCODING 8551
SWIDTH 1000 0
DWIDTH 30 0
BBX 28 24 1 -1
BITMAP
F83FFFF0
F83FFFF0
701DCCE0
701DCCE0
3019CCE0
3019CCE0
3819CCE0
3839CCE0
3839CCE0
1831CCE0
1831CCE0
1C31CCE0
1C71CCE0
0C71CCE0
0C61CCE0
0C61CCE0
0E61CCE0
0EE1CCE0
06E1CCE0
06C1CCE0
06C1CCE0
07C1CCE0
07C3FFF0
0383FFF0
ENDCHAR
STARTCHAR 2168
ENCODING 8552
SWIDTH 1000 0
DWIDTH 30 0
BBX 24 24 3 -1
BITMAP
FFF8FF
FFF8FF
30E038
30E038
307070
307070
3038E0
3038E0
301DC0
301DC0
300F80
300780
300F80
301DC0
301DC0
3038E0
3038E0
307070
307070
30E038
31E03C
31C01C
FFF07F
FFF07F
ENDCHAR
STARTCHAR 2169
ENCODING 8553
SWIDTH 1000 0
DWIDTH 30 0
BBX 22 24 4 -1
BITMAP
7F03F8
7F03F8
1E01E0
0E01C0
070380
070380
038700
03CF00
01CE00
00FC00
00FC00
007800
00FC00
00FC00
01CE00
038F00
038700
070380
0F03C0
0E01C0
1C00E0
1C00E0
FF03FC
FF03FC
ENDCHAR
STARTCHAR 216A
ENCODING 8554
SWIDTH 1000 0
DWIDTH 30 0
BBX 24 24 3 -1
BITMAP
FF1FFF
FF1FFF
3C071C
1C071C
0E0E1C
0E0E1C
071C1C
071C1C
03B81C
03B81C
01F01C
01E01C
01F01C
03B81C
03B81C
071C1C
071C1C
0E0E1C
0E0E1C
1C071C
3C079C
38039C
FE0FFF
FE0FFF
ENDCHAR
STARTCHAR 216B
ENCODING 8555
SWIDTH 1000 0
DWIDTH 30 0
BBX 28 24 1 -1
BITMAP
FE1FFFF0
FE1FFFF0
1C0738C0
1C0E38C0
0E1C38C0
0E1C38C0
073838C0
07B838C0
03F038C0
01F038C0
01E038C0
00E038C0
01E038C0
03F038C0
03F038C0
073838C0
071C38C0
0E1C38C0
0E0E38C0
1C0E38C0
380738C0
380738C0
FE1FFFF0
FE1FFFF0
ENDCHAR
STARTCHAR 2170
ENCODING 8560
SWIDTH 1000 0
DWIDTH 30 0
BBX 4 25 13 -1
BITMAP
F0
F0
F0
00
00
00
60
60
60
60
60
60
60
60
60
60
60
60
60
60
60
60
60
60
60
ENDCHAR
STARTCHAR 2171
ENCODING 8561
SWIDTH 1000 0
DWIDTH 30 0
BBX 12 25 9 -1
BITMAP
F0F0
F0F0
F0F0
0000
0000
0000
6060
6060
6060
6060
6060
6060
6060
6060
6060
6060
6060
6060
6060
6060
6060
6060
6060
6060
6060
ENDCHAR
STARTCHAR 2172
ENCODING 8562
SWIDTH 1000 0
DWIDTH 30 0
BBX 16 25 7 -1
BITMAP
E3C7
E3C7
E3C7
0000
0000
0000
6186
6186
6186
6186
6186
6186
6186
6186
6186
6186
6186
6186
6186
6186
6186
6186
6186
6186
6186
ENDCHAR
STARTCHAR 2173
ENCODING 8563
SWIDTH 1000 0
DWIDTH 30 0
BBX 19 24 6 0
BITMAP
E00000
E00000
E00000
000000
000000
000000
E700E0
E700E0
E380E0
E380C0
E381C0
E181C0
E1C1C0
E1C180
E0C380
E0E380
E0E300
E0E700
E06700
E07700
E07600
E03E00
E03E00
E03C00
ENDCHAR
STARTCHAR 2174
ENCODING 8564
SWIDTH 1000 0
DWIDTH 30 0
BBX 16 18 7 -1
BITMAP
E007
700E
700E
700E
381C
381C
381C
1C38
1C38
1C38
0C70
0E70
0E60
0660
07E0
03C0
03C0
03C0
ENDCHAR
STARTCHAR 2175
ENCODING 8565
SWIDTH 1000 0
DWIDTH 30 0
BBX 19 24 5 0
BITMAP
0000E0
0000E0
0000E0
000000
000000
000000
E01CE0
E018E0
E038E0
6038E0
7038E0
7030E0
7070E0
3070E0
3860E0
38E0E0
18E0E0
1CE0E0
1CC0E0
1DC0E0
0DC0E0
0F80E0
0F80E0
0780E0
ENDCHAR
STARTCHAR 2176
ENCODING 8566
SWIDTH 1000 0
DWIDTH 30 0
BBX 22 25 3 -1
BITMAP
0003DC
0003DC
0003DC
000000
000000
000000
E0399C
60399C
70399C
70319C
70719C
30719C
38719C
38619C
38E19C
18E19C
18E19C
1CC19C
1DC19C
0DC19C
0D819C
0F819C
0F819C
07819C
07019C
ENDCHAR
STARTCHAR 2177
ENCODING 8567
SWIDTH 1000 0
DWIDTH 30 0
BBX 23 25 3 -1
BITMAP
000EEE
000EEE
000EEE
000000
000000
000000
E06EEE
E0EEEE
E0EEEE
60EEEE
60CEEE
70CEEE
71CEEE
71CEEE
31CEEE
398EEE
398EEE
3B8EEE
1B8EEE
1B0EEE
1B0EEE
1F0EEE
1F0EEE
0F0EEE
0E0EEE
ENDCHAR
STARTCHAR 2178
ENCODING 8568
SWIDTH 1000 0
DWIDTH 30 0
BBX 19 25 6 -1
BITMAP
E00000
E00000
E00000
000000
000000
000000
E700E0
E381C0
E381C0
E1C380
E0E300
E0E700
E07E00
E07E00
E03C00
E03C00
E07E00
E06600
E0E700
E1C380
E1C380
E381C0
E381C0
E700E0
E700E0
ENDCHAR
STARTCHAR 2179
ENCODING 8569
SWIDTH 1000 0
DWIDTH 30 0
BBX 16 18 7 -1
BITMAP
700E
381C
381C
1C38
0E70
0E70
07E0
07E0
03C0
07E0
07E0
0E70
1C38
1C38
381C
381C
700E
F00F
ENDCHAR
STARTCHAR 217A
ENCODING 8570
SWIDTH 1000 0
DWIDTH 30 0
BBX 19 25 5 -1
BITMAP
0000E0
0000E0
0000E0
000000
000000
000000
E01CE0
7038E0
7030E0
3870E0
18E0E0
1CE0E0
0FC0E0
0FC0E0
0780E0
0780E0
0FC0E0
0CC0E0
1CE0E0
3870E0
3870E0
7038E0
7038E0
E01CE0
E01CE0
ENDCHAR
STARTCHAR 217B
ENCODING 8571
SWIDTH 1000 0
DWIDTH 30 0
BBX 23 25 3 -1
BITMAP
0001DE
0001DE
0001DE
000000
000000
000000
E039CC
7071CC
7071CC
38E1CC
38E1CC
1DC1CC
1DC1CC
0F81CC
0F81CC
0F81CC
0D81CC
1DC1CC
19C1CC
38E1CC
38E1CC
7071CC
7071CC
E039CC
E039CC
ENDCHAR
STARTCHAR 217F
ENCODING 8575
SWIDTH 1000 0
DWIDTH 30 0
BBX 24 18 3 -1
BITMAP
CFE1FC
FFF7FE
F07E0F
E03C07
E01C07
E01807
E01807
E01807
E01807
E01807
E01807
E01807
E01807
E01807
E01807
E01807
E01807
E01807
ENDCHAR
STARTCHAR 2190
ENCODING 8592
SWIDTH 1000 0
DWIDTH 30 0
BBX 26 10 2 6
BITMAP
03000000
07000000
1F000000
7F000000
FFFFFFC0
FFFFFFC0
3F000000
1F000000
07000000
01000000
ENDCHAR
STARTCHAR 2191
ENCODING 8593
SWIDTH 1000 0
DWIDTH 30 0
BBX 10 26 10 -1
BITMAP
0C00
0C00
1E00
3F00
3F00
7F80
7F80
FFC0
0C00
0C00
0C00
0C00
0C00
0C00
0C00
0C00
0C00
0C00
0C00
0C00
0C00
0C00
0C00
0C00
0C00
0C00
ENDCHAR
STARTCHAR 2192
ENCODING 8594
SWIDTH 1000 0
DWIDTH 30 0
BBX 26 10 2 6
BITMAP
00003000
00003800
00003E00
00003F80
FFFFFFC0
FFFFFFC0
00003F00
00003E00
00003800
00002000
ENDCHAR
STARTCHAR 2193
ENCODING 8595
SWIDTH 1000 0
DWIDTH 30 0
BBX 10 26 10 -3
BITMAP
0C00
0C00
0C00
0C00
0C00
0C00
0C00
0C00
0C00
0C00
0C00
0C00
0C00
0C00
0C00
0C00
0C00
0C00
FFC0
7F80
7F80
3F00
3F00
1E00
0C00
0C00
ENDCHAR
STARTCHAR 2194
ENCODING 8596
SWIDTH 1000 0
DWIDTH 30 0
BBX 27 9 1 7
BITMAP
00801000
03000C00
06000600
18000180
FFFFFFE0
38000180
0E000600
03000C00
00801000
ENDCHAR
STARTCHAR 2195
ENCODING 8597
SWIDTH 1000 0
DWIDTH 30 0
BBX 10 27 10 -3
BITMAP
0800
0C00
0C00
1E00
3F00
3F00
7F80
7F80
8C40
0C00
0C00
0C00
0C00
0C00
0C00
0C00
0C00
0C00
0C00
FFC0
7F80
7F80
3F00
3E00
1E00
0C00
0C00
ENDCHAR
STARTCHAR 2196
ENCODING 8598
SWIDTH 1000 0
DWIDTH 30 0
BBX 19 19 6 1
BITMAP
C00000
F80000
E78000
500000
480000
640000
220000
210000
208000
004000
002000
001000
000800
000400
000200
000100
000080
000040
000020
ENDCHAR
STARTCHAR 2197
ENCODING 8599
SWIDTH 1000 0
DWIDTH 30 0
BBX 19 19 5 1
BITMAP
000060
0003E0
003CC0
000140
000240
000440
000880
001080
002080
004000
008000
010000
020000
040000
080000
100000
200000
400000
800000
ENDCHAR
STARTCHAR 2198
ENCODING 8600
SWIDTH 1000 0
DWIDTH 30 0
BBX 19 19 5 2
BITMAP
800000
400000
200000
100000
080000
040000
020000
010000
008000
004000
002080
001080
000880
0004C0
000240
000140
003CE0
0003E0
000060
ENDCHAR
STARTCHAR 2199
ENCODING 8601
SWIDTH 1000 0
DWIDTH 30 0
BBX 19 19 6 2
BITMAP
000020
000040
000080
000100
000200
000400
000800
001000
002000
004000
208000
210000
220000
440000
480000
500000
678000
F80000
C00000
ENDCHAR
STARTCHAR 21C4
ENCODING 8644
SWIDTH 1000 0
DWIDTH 30 0
BBX 28 20 1 1
BITMAP
00001000
00000C00
00000700
000001C0
7FFFFFF0
00000180
00000600
00000C00
00001000
00000000
00000000
00800000
03000000
06000000
18000000
FFFFFFE0
38000000
0E000000
03000000
00800000
ENDCHAR
STARTCHAR 21C5
ENCODING 8645
SWIDTH 1000 0
DWIDTH 30 0
BBX 20 27 5 -2
BITMAP
080100
080100
0C0100
1C0100
3A0100
2A0100
690100
498100
888100
080100
080100
080100
080100
080100
080100
080100
080100
080100
081110
081920
080920
080540
0805C0
080380
080380
080100
080100
ENDCHAR
STARTCHAR 21C6
ENCODING 8646
SWIDTH 1000 0
DWIDTH 30 0
BBX 27 20 1 1
BITMAP
00800000
03000000
06000000
18000000
FFFFFFE0
18000000
06000000
03000000
00800000
00000000
00000000
00001000
00000C00
00000600
00000180
7FFFFFE0
00000180
00000700
00000C00
00001000
ENDCHAR
STARTCHAR 21CC
ENCODING 8652
SWIDTH 1000 0
DWIDTH 30 0
BBX 26 20 2 1
BITMAP
0000C000
00003000
00001800
00000600
FFFFFF80
00000040
00000000
00000000
00000000
00000000
00000000
00000000
00000000
00000000
00000000
FFFFFFC0
18000000
06000000
01800000
00C00000
ENDCHAR
STARTCHAR 21D0
ENCODING 8656
SWIDTH 1000 0
DWIDTH 30 0
BBX 28 19 1 2
BITMAP
00C00000
01E00000
01C00000
03800000
07000000
0FFFFFF0
1FFFFFF0
38000000
70000000
E0000000
70000000
38000000
1FFFFFF0
0FFFFFF0
07000000
03800000
03C00000
01E00000
00C00000
ENDCHAR
STARTCHAR 21D2
ENCODING 8658
SWIDTH 1000 0
DWIDTH 30 0
BBX 28 19 1 2
BITMAP
00003000
00007800
00003800
00001C00
00000E00
FFFFFF00
FFFFFF80
000001C0
000000E0
00000070
000000E0
000001C0
FFFFFF80
FFFFFF00
00000E00
00001C00
00003C00
00007800
00003000
ENDCHAR
STARTCHAR 21D4
ENCODING 8660
SWIDTH 1000 0
DWIDTH 30 0
BBX 28 19 1 2
BITMAP
00801000
01C03800
03801C00
07000E00
0E000700
1FFFFF80
3FFFFFC0
700000E0
E00000F0
E0000070
E0000070
700000E0
3FFFFFC0
1FFFFF80
0E000700
07000E00
03801C00
01C03800
00801000
ENDCHAR
STARTCHAR 21E6
ENCODING 8678
SWIDTH 1000 0
DWIDTH 30 0
BBX 27 24 1 -1
BITMAP
00100000
00300000
00700000
00D00000
01900000
03100000
06100000
0C1FFFE0
18000020
30000020
60000020
40000020
C0000020
60000020
30000020
18000020
0C1FFFE0
06100000
03100000
01900000
00D00000
00700000
00300000
00100000
ENDCHAR
STARTCHAR 21E7
ENCODING 8679
SWIDTH 1000 0
DWIDTH 30 0
BBX 24 28 3 -3
BITMAP
001800
003C00
006600
00C300
018180
0300C0
060060
0C0030
180018
30000C
600006
FF00FF
010080
010080
010080
010080
010080
010080
010080
010080
010080
010080
010080
010080
010080
010080
010080
01FF80
ENDCHAR
STARTCHAR 21E8
ENCODING 8680
SWIDTH 1000 0
DWIDTH 30 0
BBX 27 24 2 -1
BITMAP
00010000
00018000
0001C000
00016000
00013000
00011800
00010C00
FFFF0600
80000300
80000180
800000C0
80000040
80000060
800000C0
80000180
80000300
FFFF0600
00010C00
00011800
00013000
00016000
0001C000
00018000
00010000
ENDCHAR
STARTCHAR 21E9
ENCODING 8681
SWIDTH 1000 0
DWIDTH 30 0
BBX 24 28 3 -3
BITMAP
01FF80
010080
010080
010080
010080
010080
010080
010080
010080
010080
010080
010080
010080
010080
010080
010080
FF00FF
600006
30000C
180018
0C0030
060060
0300C0
018180
00C300
006600
003C00
001800
ENDCHAR
STARTCHAR 2200
ENCODING 8704
SWIDTH 1000 0
DWIDTH 30 0
BBX 18 21 6 0
BITMAP
E001C0
600180
600180
700380
300300
380700
1FFE00
1FFE00
1C0C00
0C0C00
0E1C00
061800
073800
033000
033000
03F000
01E000
01E000
00C000
00C000
008000
ENDCHAR
STARTCHAR 2202
ENCODING 8706
SWIDTH 1000 0
DWIDTH 30 0
BBX 18 25 6 -1
BITMAP
01FE00
07FF80
0FFF80
1E03C0
1C01C0
1801C0
3801C0
0001C0
07F1C0
0FFDC0
1F7D80
380F80
700780
700700
600700
E00700
E00700
E00E00
C00E00
C00E00
E01C00
E03C00
FDF800
7FF000
1FC000
ENDCHAR
STARTCHAR 2203
ENCODING 8707
SWIDTH 1000 0
DWIDTH 30 0
BBX 14 21 8 1
BITMAP
FFFC
FFFC
000C
000C
000C
000C
000C
000C
000C
000C
FFFC
FFFC
000C
000C
000C
000C
000C
000C
000C
FFFC
FFFC
ENDCHAR
STARTCHAR 2205
ENCODING 8709
SWIDTH 1000 0
DWIDTH 30 0
BBX 16 16 7 3
BITMAP
07F2
1FFF
3C3E
701E
603F
C077
C0E3
C1C3
C383
C703
EE03
FC07
780E
7C3C
FFF8
4FE0
ENDCHAR
STARTCHAR 2207
ENCODING 8711
SWIDTH 1000 0
DWIDTH 30 0
BBX 22 25 4 -1
BITMAP
FFFFFC
7FFFF8
7FFFF8
780078
380070
380070
3C00F0
1C00E0
1C00E0
0E01C0
0E01C0
0E01C0
070380
070380
070380
038700
038700
038700
01CE00
01CE00
00FC00
00FC00
00FC00
007800
007800
ENDCHAR
STARTCHAR 2208
ENCODING 8712
SWIDTH 1000 0
DWIDTH 30 0
BBX 22 17 4 3
BITMAP
07FFFC
1FFFFC
3E0000
380000
700000
600000
600000
E00000
FFFFFC
FFFFFC
E00000
600000
600000
700000
3C0000
1FFFFC
07FFFC
ENDCHAR
STARTCHAR 220A
ENCODING 8714
SWIDTH 1000 0
DWIDTH 30 0
BBX 16 18 7 -1
BITMAP
07FF
0FFF
1E00
1C00
3800
3800
3000
7FF8
7FF8
7000
6000
6000
E000
E000
7000
7C00
3FF8
1FF0
ENDCHAR
STARTCHAR 220B
ENCODING 8715
SWIDTH 1000 0
DWIDTH 30 0
BBX 22 17 4 3
BITMAP
FFFF80
FFFFE0
0001F0
000070
000038
000018
000018
00001C
FFFFFC
FFFFFC
00001C
000018
000018
000038
0000F0
FFFFE0
FFFF80
ENDCHAR
STARTCHAR 2211
ENCODING 8721
SWIDTH 1000 0
DWIDTH 30 0
BBX 20 25 5 -1
BITMAP
7FFFE0
7FFFE0
7FFFE0
780000
3C0000
1E0000
0F0000
078000
03C000
01E000
00F000
007800
003C00
007800
00F000
01E000
03C000
078000
0F0000
1E0000
3C0000
780000
FFFFF0
FFFFF0
FFFFF0
ENDCHAR
STARTCHAR 2212
ENCODING 8722
SWIDTH 1000 0
DWIDTH 30 0
BBX 22 2 4 10
BITMAP
FFFFFC
FFFFFC
ENDCHAR
STARTCHAR 2213
ENCODING 8723
SWIDTH 1000 0
DWIDTH 30 0
BBX 22 23 4 -1
BITMAP
FFFFFC
FFFFFC
000000
000000
003000
003000
003000
003000
003000
003000
003000
003000
FFFFFC
FFFFFC
003000
003000
003000
003000
003000
003000
003000
003000
003000
ENDCHAR
STARTCHAR 221A
ENCODING 8730
SWIDTH 1000 0
DWIDTH 30 0
BBX 30 31 0 -4
BITMAP
00000FFC
00000FFC
00001000
00001000
00002000
00002000
00004000
00004000
00004000
00008000
00008000
00010000
00010000
00010000
00020000
00020000
04040000
0C040000
1C040000
3E080000
6E080000
4F100000
CF100000
07900000
07A00000
03E00000
03C00000
01C00000
01C00000
00800000
00800000
ENDCHAR
STARTCHAR 221D
ENCODING 8733
SWIDTH 1000 0
DWIDTH 30 0
BBX 24 13 3 5
BITMAP
0F807C
3FC0FF
38E1C6
707380
603F00
E01E00
C00C00
E01E00
E03F00
707380
78E1C6
3FC0FF
0F807C
ENDCHAR
STARTCHAR 221E
ENCODING 8734
SWIDTH 1000 0
DWIDTH 30 0
BBX 26 13 2 5
BITMAP
0F807C00
3FC0FF00
79E1C780
60738180
E03F01C0
C01E00C0
C00C00C0
C01E00C0
E03F01C0
60738180
78E1C780
3FC0FF00
0F807C00
ENDCHAR
STARTCHAR 221F
ENCODING 8735
SWIDTH 1000 0
DWIDTH 30 0
BBX 23 21 4 1
BITMAP
C00000
C00000
C00000
C00000
C00000
C00000
C00000
C00000
C00000
C00000
C00000
C00000
C00000
C00000
C00000
C00000
C00000
C00000
C00000
FFFFFE
FFFFFE
ENDCHAR
STARTCHAR 2220
ENCODING 8736
SWIDTH 1000 0
DWIDTH 30 0
BBX 23 24 3 1
BITMAP
000008
00001C
000038
000070
0000E0
0000E0
0001C0
000380
000700
000E00
001C00
001C00
003800
007000
00E000
01C000
038000
038000
070000
0E0000
1C0000
380000
7FFFFE
FFFFFE
ENDCHAR
STARTCHAR 2225
ENCODING 8741
SWIDTH 1000 0
DWIDTH 30 0
BBX 8 30 11 -4
BITMAP
C3
C3
C3
C3
C3
C3
C3
C3
C3
C3
C3
C3
C3
C3
C3
C3
C3
C3
C3
C3
C3
C3
C3
C3
C3
C3
C3
C3
C3
C3
ENDCHAR
STARTCHAR 2227
ENCODING 8743
SWIDTH 1000 0
DWIDTH 30 0
BBX 22 23 4 1
BITMAP
002000
003000
003000
007800
007800
00FC00
00CC00
018E00
018600
030300
070380
060180
0E01C0
0C00C0
1C00E0
180060
380070
300030
700038
600018
E0001C
C0000C
C0000C
ENDCHAR
STARTCHAR 2228
ENCODING 8744
SWIDTH 1000 0
DWIDTH 30 0
BBX 22 23 4 -1
BITMAP
C0000C
C0000C
E0001C
600018
700038
300030
380070
180060
1C00E0
0C00C0
0E01C0
060180
070380
030300
038600
018600
00CC00
00FC00
007800
007800
003000
003000
002000
ENDCHAR
STARTCHAR 2229
ENCODING 8745
SWIDTH 1000 0
DWIDTH 30 0
BBX 16 22 7 0
BITMAP
0FF0
3FFC
781E
6006
E007
C003
C003
C003
C003
C003
C003
C003
C003
C003
C003
C003
C003
C003
C003
C003
C003
C003
ENDCHAR
STARTCHAR 222A
ENCODING 8746
SWIDTH 1000 0
DWIDTH 30 0
BBX 16 21 7 1
BITMAP
C003
C003
C003
C003
C003
C003
C003
C003
C003
C003
C003
C003
C003
C003
C003
C003
E007
6006
781E
3FFC
0FF0
ENDCHAR
STARTCHAR 222B
ENCODING 8747
SWIDTH 1000 0
DWIDTH 30 0
BBX 12 28 9 -3
BITMAP
03F0
07F0
0700
0600
0600
0600
0600
0600
0600
0600
0600
0600
0600
0600
0600
0600
0600
0600
0600
0600
0600
0600
0600
0600
0600
0E00
FE00
FC00
ENDCHAR
STARTCHAR 222C
ENCODING 8748
SWIDTH 1000 0
DWIDTH 30 0
BBX 20 28 5 -3
BITMAP
03E1F0
07E3F0
0E0380
0E0700
0E0700
0E0700
0E0700
0E0700
0E0700
0E0700
0E0700
0E0700
0E0700
0E0700
0E0700
0E0700
0E0700
0E0700
0E0700
0E0700
0E0700
0E0700
0E0700
0E0700
0E0700
1C0700
FC7E00
F87E00
ENDCHAR
STARTCHAR 222D
ENCODING 8749
SWIDTH 1000 0
DWIDTH 30 0
BBX 28 28 1 -3
BITMAP
03F3F3F0
03F7F7F0
07070700
07060600
07060E00
07060E00
07060E00
07060E00
07060E00
07060E00
07060E00
07060E00
07060E00
07060E00
07060E00
07060E00
07060E00
07060E00
07060E00
07060E00
07060E00
07060E00
07060E00
07060E00
06060E00
0E0E0E00
FEFEFE00
FCFCFC00
ENDCHAR
STARTCHAR 222E
ENCODING 8750
SWIDTH 1000 0
DWIDTH 30 0
BBX 12 28 9 -3
BITMAP
03F0
07F0
0700
0600
0600
0600
0600
0600
0600
1F80
3FC0
36C0
6660
6660
6660
6660
36C0
3FC0
1F80
0600
0600
0600
0600
0600
0600
0E00
FE00
FC00
ENDCHAR
STARTCHAR 2234
ENCODING 8756
SWIDTH 1000 0
DWIDTH 30 0
BBX 22 20 4 1
BITMAP
003000
007800
007800
003000
000000
000000
000000
000000
000000
000000
000000
000000
000000
000000
000000
000000
600018
F0003C
F0003C
600018
ENDCHAR
STARTCHAR 2235
ENCODING 8757
SWIDTH 1000 0
DWIDTH 30 0
BBX 22 20 4 1
BITMAP
600018
F0003C
F0003C
600018
000000
000000
000000
000000
000000
000000
000000
000000
000000
000000
000000
000000
003000
007800
007800
003000
ENDCHAR
STARTCHAR 223C
ENCODING 8764
SWIDTH 1000 0
DWIDTH 30 0
BBX 27 6 1 8
BITMAP
07F00000
1FFC0060
781F00E0
F00781C0
4003FF80
0000FE00
ENDCHAR
STARTCHAR 223D
ENCODING 8765
SWIDTH 1000 0
DWIDTH 30 0
BBX 26 13 2 5
BITMAP
0F807C00
3F80FF00
7801C780
60038180
E00701C0
C00E00C0
C00C00C0
C01C00C0
E03801C0
60700180
78E00780
3FC07F00
0F807C00
ENDCHAR
STARTCHAR 2243
ENCODING 8771
SWIDTH 1000 0
DWIDTH 30 0
BBX 22 11 4 7
BITMAP
0F8000
3FE008
70F018
E03C78
001FF0
0007C0
000000
000000
000000
FFFFFC
FFFFFC
ENDCHAR
STARTCHAR 2252
ENCODING 8786
SWIDTH 1000 0
DWIDTH 30 0
BBX 22 23 4 0
BITMAP
030000
078000
078000
070000
000000
000000
000000
FFFFFC
FFFFFC
000000
000000
000000
000000
000000
FFFFFC
FFFFFC
000000
000000
000000
000380
000780
000780
000300
ENDCHAR
STARTCHAR 2260
ENCODING 8800
SWIDTH 1000 0
DWIDTH 30 0
BBX 22 23 4 0
BITMAP
000200
000300
000300
000700
000600
000E00
000C00
FFFFFC
FFFFFC
001800
003800
003000
007000
006000
FFFFFC
FFFFFC
00C000
01C000
018000
038000
030000
030000
030000
ENDCHAR
STARTCHAR 2261
ENCODING 8801
SWIDTH 1000 0
DWIDTH 30 0
BBX 22 13 4 5
BITMAP
FFFFFC
FFFFFC
000000
000000
000000
000000
FFFFFC
FFFFFC
000000
000000
000000
FFFFFC
FFFFFC
ENDCHAR
STARTCHAR 2266
ENCODING 8806
SWIDTH 1000 0
DWIDTH 30 0
BBX 22 23 4 0
BITMAP
000038
0000F8
0007F0
001F80
00FC00
03F000
1F8000
7E0000
1F8000
07E000
00FC00
003F00
0007E0
0001FC
000038
000008
000000
FFFFFC
FFFFFC
000000
000000
FFFFFC
FFFFFC
ENDCHAR
STARTCHAR 2267
ENCODING 8807
SWIDTH 1000 0
DWIDTH 30 0
BBX 22 23 4 0
BITMAP
700000
FC0000
3F8000
07E000
01FC00
003F00
0007E0
0001F8
0007E0
001F80
00FC00
03F000
1F8000
FE0000
700000
400000
000000
FFFFFC
FFFFFC
000000
000000
FFFFFC
FFFFFC
ENDCHAR
STARTCHAR 226A
ENCODING 8810
SWIDTH 1000 0
DWIDTH 30 0
BBX 22 23 4 0
BITMAP
000400
000E1C
001C3C
007878
00F0E0
01E3C0
038780
070F00
1E1C00
3C7800
78F000
E1E000
70F000
3C7800
1E3C00
0F0E00
038780
01C3C0
00F1E0
007870
003C3C
000E1C
000408
ENDCHAR
STARTCHAR 226B
ENCODING 8811
SWIDTH 1000 0
DWIDTH 30 0
BBX 22 23 4 0
BITMAP
008000
E1C000
F0E000
787800
1C3C00
0F1E00
078700
03C380
00E1E0
0078F0
003C78
001E1C
003C38
0078F0
00F1E0
01C3C0
078700
0F0E00
1E3C00
387800
F0F000
E1C000
408000
ENDCHAR
STARTCHAR 2272
ENCODING 8818
SWIDTH 1000 0
DWIDTH 30 0
BBX 21 23 5 0
BITMAP
000070
0001F0
000FE0
003F00
01F800
07E000
3F0000
FC0000
3F0000
0FC000
01F800
007E00
000FC0
0003F0
000070
000010
000000
1F0000
7FC000
F1E038
C07870
C03FE0
000F80
ENDCHAR
STARTCHAR 2273
ENCODING 8819
SWIDTH 1000 0
DWIDTH 30 0
BBX 22 23 4 0
BITMAP
700000
7C0000
3F8000
07E000
01FC00
003F00
0007E0
0001F8
0007E0
001F80
00FC00
03F000
1F8000
FE0000
700000
400000
000000
0F8000
3FE000
78F01C
603C38
601FF0
0007C0
ENDCHAR
STARTCHAR 2282
ENCODING 8834
SWIDTH 1000 0
DWIDTH 30 0
BBX 22 17 4 3
BITMAP
03FFFC
1FFFFC
3E0000
380000
700000
600000
600000
E00000
E00000
E00000
600000
600000
600000
700000
3C0000
1FFFFC
0FFFFC
ENDCHAR
STARTCHAR 2283
ENCODING 8835
SWIDTH 1000 0
DWIDTH 30 0
BBX 22 17 4 3
BITMAP
FFFF80
FFFFE0
0001F0
000078
000038
000018
000018
00001C
00001C
00001C
000018
000018
000018
000038
0000F0
FFFFE0
FFFF80
ENDCHAR
STARTCHAR 2286
ENCODING 8838
SWIDTH 1000 0
DWIDTH 30 0
BBX 22 21 4 1
BITMAP
07FFFC
1FFFFC
3C0000
700000
600000
600000
E00000
E00000
E00000
E00000
600000
600000
700000
3E0000
1FFFFC
07FFFC
000000
000000
000000
FFFFFC
FFFFFC
ENDCHAR
STARTCHAR 2287
ENCODING 8839
SWIDTH 1000 0
DWIDTH 30 0
BBX 22 21 4 1
BITMAP
FFFF80
FFFFE0
0001F0
000038
000018
000018
00001C
00001C
00001C
00001C
000018
000018
000038
0000F0
FFFFE0
FFFF80
000000
000000
000000
FFFFFC
FFFFFC
ENDCHAR
STARTCHAR 2295
ENCODING 8853
SWIDTH 1000 0
DWIDTH 30 0
BBX 24 24 3 -1
BITMAP
007F00
0381C0
040060
181818
101808
201804
401802
401802
C01803
801801
801801
9FFFF9
9FFFF9
801801
801801
C01803
401802
601802
201804
101808
181818
060020
0381C0
00FF00
ENDCHAR
STARTCHAR 2296
ENCODING 8854
SWIDTH 1000 0
DWIDTH 30 0
BBX 24 24 3 -1
BITMAP
007F00
0381C0
040060
180018
100008
200004
400002
400002
C00003
800001
800001
9FFFF9
9FFFF9
800001
800001
C00003
400002
600002
200004
100008
180018
060020
0381C0
00FF00
ENDCHAR
STARTCHAR 2297
ENCODING 8855
SWIDTH 1000 0
DWIDTH 30 0
BBX 24 24 3 -1
BITMAP
007F00
0381C0
040060
180018
100008
220044
4700E2
4381C2
41C383
80E701
807E01
803C01
803C01
807E01
80E701
C1C383
4381C2
6700E2
220044
100008
180018
060020
0381C0
00FF00
ENDCHAR
STARTCHAR 2298
ENCODING 8856
SWIDTH 1000 0
DWIDTH 30 0
BBX 24 24 3 -1
BITMAP
007F00
0381C0
040060
180018
100008
200044
4000E2
4001C2
400383
800701
800E01
801C01
803801
807001
80E001
C1C003
438002
670002
220004
100008
180018
060020
0381C0
00FF00
ENDCHAR
STARTCHAR 229D
ENCODING 8861
SWIDTH 1000 0
DWIDTH 30 0
BBX 24 24 3 -1
BITMAP
007F00
0381C0
040060
180018
100008
200004
400002
400002
C00003
800001
800001
9FFFF9
9FFFF9
800001
800001
C00003
400002
600002
200004
100008
180018
060020
0381C0
00FF00
ENDCHAR
STARTCHAR 229E
ENCODING 8862
SWIDTH 1000 0
DWIDTH 30 0
BBX 26 26 2 -2
BITMAP
FFFFFFC0
800C0040
800C0040
800C0040
800C0040
800C0040
800C0040
800C0040
800C0040
800C0040
800C0040
800C0040
FFFFFFC0
800C0040
800C0040
800C0040
800C0040
800C0040
800C0040
800C0040
800C0040
800C0040
800C0040
800C0040
800C0040
FFFFFFC0
ENDCHAR
STARTCHAR 22A0
ENCODING 8864
SWIDTH 1000 0
DWIDTH 30 0
BBX 26 26 2 -2
BITMAP
FFFFFFC0
80000040
80000040
80000040
84000840
8E001C40
87003840
83807040
81C0E040
80E1C040
80738040
803F0040
801E0040
801E0040
803F0040
80738040
80E1C040
81C0E040
83807040
87003840
8E001C40
84000840
80000040
80000040
80000040
FFFFFFC0
ENDCHAR
STARTCHAR 22A5
ENCODING 8869
SWIDTH 1000 0
DWIDTH 30 0
BBX 20 23 5 0
BITMAP
006000
006000
006000
006000
006000
006000
006000
006000
006000
006000
006000
006000
006000
006000
006000
006000
006000
006000
006000
006000
006000
FFFFF0
FFFFF0
ENDCHAR
STARTCHAR 22BF
ENCODING 8895
SWIDTH 1000 0
DWIDTH 30 0
BBX 21 22 4 2
BITMAP
000008
000018
000038
000078
0000F8
0001D8
000398
000718
000E18
001C18
001818
003018
006018
00E018
01C018
038018
070018
0E0018
1C0018
380018
7FFFF8
FFFFF8
ENDCHAR
STARTCHAR 22EE
ENCODING 8942
SWIDTH 1000 0
DWIDTH 30 0
BBX 4 24 13 -1
BITMAP
60
F0
F0
60
00
00
00
00
00
00
60
F0
F0
60
00
00
00
00
00
00
60
F0
F0
60
ENDCHAR
STARTCHAR 22EF
ENCODING 8943
SWIDTH 1000 0
DWIDTH 30 0
BBX 24 4 3 9
BITMAP
601806
F03C0F
F03C0F
601806
ENDCHAR
STARTCHAR 2300
ENCODING 8960
SWIDTH 1000 0
DWIDTH 30 0
BBX 16 16 7 3
BITMAP
07F2
1FFF
3C3E
701E
603F
C077
C0E3
C1C3
C383
C703
EE03
FC07
780E
7C3C
FFF8
4FE0
ENDCHAR
STARTCHAR 2307
ENCODING 8967
SWIDTH 1000 0
DWIDTH 30 0
BBX 6 30 12 -4
BITMAP
80
80
E0
70
18
0C
04
04
04
0C
18
70
C0
80
80
80
80
E0
70
18
0C
04
04
04
0C
18
70
C0
80
80
ENDCHAR
STARTCHAR 2312
ENCODING 8978
SWIDTH 1000 0
DWIDTH 30 0
BBX 30 9 0 17
BITMAP
001FE000
00FFFC00
03E01F00
0F0003C0
1C0001E0
38000070
70000038
E000001C
40000008
ENDCHAR
STARTCHAR 244A
ENCODING 9290
SWIDTH 1000 0
DWIDTH 30 0
BBX 27 27 1 -2
BITMAP
00000800
00001C00
00003C00
00007800
0000F000
0001E000
0003C060
000780E0
000F01C0
001E0380
003C0700
00780E00
00F01C00
01E03800
03C07000
0780E000
0F01C000
1E038000
3C070000
780E0000
F01C0000
40380000
00700000
00E00000
01C00000
03800000
01000000
ENDCHAR
STARTCHAR 2460
ENCODING 9312
SWIDTH 1000 0
DWIDTH 30 0
BBX 28 30 1 -4
BITMAP
001FC000
00E07000
03000C00
06000600
08000100
10000080
303E00C0
203E0040
40060020
40060020
40060030
80060010
80060010
80060010
80060010
80060010
80060010
80060010
80060010
C0060010
40060020
40060020
20060040
30060040
10000080
08000100
06000200
03000C00
00E07000
003FC000
ENDCHAR
STARTCHAR 2461
ENCODING 9313
SWIDTH 1000 0
DWIDTH 30 0
BBX 28 30 1 -4
BITMAP
001FC000
00E07000
03000C00
06000600
08000300
10000180
300F80C0
203FC040
4030E020
40306020
40306030
80306010
80006010
80006010
8000C010
8007C010
801F0010
80380010
80300010
C0300030
40200020
40200020
207FE040
307FE0C0
18000080
08000100
06000600
03000C00
00E07000
003F8000
ENDCHAR
STARTCHAR 2462
ENCODING 9314
SWIDTH 1000 0
DWIDTH 30 0
BBX 28 30 1 -4
BITMAP
001FC000
00E07000
03000C00
06000600
08000300
18000180
300F80C0
203FC040
4030E020
40306020
40306030
80306010
80006010
8000C010
800F8010
800FC010
8000E010
80006010
80606010
C0606030
40306020
4030E020
203FC040
301F80C0
18000080
0C000100
06000600
03000C00
00E07000
003F8000
ENDCHAR
STARTCHAR 2463
ENCODING 9315
SWIDTH 1000 0
DWIDTH 30 0
BBX 28 30 1 -4
BITMAP
001FC000
00E07000
03000C00
06000600
08000100
10000080
300380C0
20078040
40078020
400D8020
C00D8030
80198010
80198010
80318010
80318010
80618010
80618010
80C18010
80FFC010
C0FFC030
40018020
40018020
20018040
300180C0
10000080
08000100
06000600
03000C00
00E07000
003FC000
ENDCHAR
STARTCHAR 2464
ENCODING 9316
SWIDTH 1000 0
DWIDTH 30 0
BBX 28 30 1 -4
BITMAP
001FC000
00E07000
03000C00
06000600
08000100
10000080
303FE0C0
203FE040
40300020
40300020
C0300030
80300010
803F8010
803FC010
8030E010
80306010
80006010
80006010
80006010
C0606030
40306020
6030C020
203FC040
301F80C0
18000080
0C000100
06000600
03000C00
00E07000
003F8000
ENDCHAR
STARTCHAR 2465
ENCODING 9317
SWIDTH 1000 0
DWIDTH 30 0
BBX 28 30 1 -4
BITMAP
001FC000
00E07000
03000C00
06000600
0C000300
18000180
300F80C0
203FC040
4030C020
40306020
40206030
80600010
80600010
806F8010
807FC010
8070E010
80706010
80606010
80606010
C0606030
40306020
4030C020
203FC040
301F80C0
18000080
0C000100
06000600
03000C00
00E07000
003F8000
ENDCHAR
STARTCHAR 2466
ENCODING 9318
SWIDTH 1000 0
DWIDTH 30 0
BBX 28 30 1 -4
BITMAP
001FC000
00E07000
03000C00
06000600
08000100
10000080
307FE0C0
207FE040
40006020
40006020
4000C030
8000C010
80018010
80018010
80018010
80030010
80030010
80030010
80060010
C0060010
400E0020
400C0020
200C0040
30180040
10000080
08000100
06000200
03000C00
00E07000
003FC000
ENDCHAR
STARTCHAR 2467
ENCODING 9319
SWIDTH 1000 0
DWIDTH 30 0
BBX 28 30 1 -4
BITMAP
001FC000
00E07000
03000C00
06000600
0C000300
18000180
301F80C0
203FC040
4030C020
4030C020
40606030
80606010
80304010
8030C010
801F8010
801FC010
8030C010
80606010
80606010
C0606010
40606020
4070C020
203FC040
301F80C0
18000080
0C000100
06000600
03000C00
00E07000
003F8000
ENDCHAR
STARTCHAR 2468
ENCODING 9320
SWIDTH 1000 0
DWIDTH 30 0
BBX 28 30 1 -4
BITMAP
001FC000
00E07000
03000C00
06000600
08000100
10000180
301F80C0
203FC040
4030C020
40606020
C0606030
80606010
80606010
80606010
8030E010
803FE010
801F6010
80006010
80006010
40606030
4030C020
6030C020
203FC040
301F80C0
18000080
0C000100
06000600
03000C00
00E07000
003F8000
ENDCHAR
STARTCHAR 2469
ENCODING 9321
SWIDTH 1000 0
DWIDTH 30 0
BBX 28 30 1 -4
BITMAP
001FC000
00E07000
03000C00
06000600
08000100
10000080
37C0F8C0
27C1FC40
40C30C20
40C30620
C0C30630
80C20610
80C20610
80C20610
80C20610
80C20610
80C20610
80C20610
80C20610
C0C30630
40C30620
40C30C20
20C1FC40
30C0F8C0
18000080
08000100
06000600
03000C00
00E07000
003F8000
ENDCHAR
STARTCHAR 246A
ENCODING 9322
SWIDTH 1000 0
DWIDTH 30 0
BBX 28 30 1 -4
BITMAP
001FC000
00E07000
03000C00
06000600
08000100
10000080
37C0F8C0
27C0F840
40C01820
40C01820
C0C01830
80C01810
80C01810
80C01810
80C01810
80C01810
80C01810
80C01810
80C01810
C0C01810
40C01820
40C01820
20C01840
30C01840
10000080
08000100
06000200
03000C00
00E07000
003FC000
ENDCHAR
STARTCHAR 246B
ENCODING 9323
SWIDTH 1000 0
DWIDTH 30 0
BBX 28 30 1 -4
BITMAP
001FC000
00E07000
03000C00
06000600
08000100
10000080
37C0F8C0
27C1FC40
40C30E20
40C30620
C0C30630
80C30610
80C00610
80C00610
80C00C10
80C07C10
80C1F010
80C38010
80C30010
C0C30030
40C30020
40C30020
20C3FE40
30C3FEC0
10000080
08000100
06000600
03000C00
00E07000
003F8000
ENDCHAR
STARTCHAR 246C
ENCODING 9324
SWIDTH 1000 0
DWIDTH 30 0
BBX 28 30 1 -4
BITMAP
001FC000
00E07000
03000C00
06000600
08000100
10000080
37C0F8C0
27C1FC40
40C30E20
40C30620
40C30630
80C30610
80C00610
80C00C10
80C07810
80C07C10
80C00E10
80C00610
80C30610
C0C30610
40C30620
40C30E20
20C3FC40
30C0F8C0
10000080
08000100
06000600
03000C00
00E07000
003F8000
ENDCHAR
STARTCHAR 246D
ENCODING 9325
SWIDTH 1000 0
DWIDTH 30 0
BBX 28 30 1 -4
BITMAP
003FC000
00E07000
03000C00
06000600
08000100
10000080
37C01CC0
27C03C40
40C03C20
40C06C20
C0C06C30
80C0CC10
80C0CC10
80C18C10
80C18C10
80C30C10
80C30C10
80C20C10
80C7FE10
C0C7FE10
40C00C20
40C00C20
20C00C40
30C00C40
10000080
08000100
06000200
03000C00
00E07000
003FC000
ENDCHAR
STARTCHAR 246E
ENCODING 9326
SWIDTH 1000 0
DWIDTH 30 0
BBX 28 30 1 -4
BITMAP
001FC000
00E07000
03000C00
06000600
08000100
10000080
37C3FEC0
27C3FE40
40C30020
40C30020
C0C30030
80C30010
80C37010
80C3FC10
80C30C10
80C30610
80C00610
80C00610
80C00610
C0C30630
40C30620
40C30C20
20C1FC40
30C0F8C0
10000080
08000100
06000600
03000C00
00E07000
003F8000
ENDCHAR
STARTCHAR 246F
ENCODING 9327
SWIDTH 1000 0
DWIDTH 30 0
BBX 28 30 1 -4
BITMAP
001FC000
00E07000
03000C00
06000600
08000100
10000080
37C0F8C0
27C1FC40
40C30C20
40C30620
40C30630
80C30010
80C30010
80C37810
80C3FC10
80C30E10
80C30610
80C30610
80C30610
C0C30610
40C30620
40C30E20
20C1FC40
30C0F8C0
10000080
08000100
06000600
03000C00
00E07000
003F8000
ENDCHAR
STARTCHAR 2470
ENCODING 9328
SWIDTH 1000 0
DWIDTH 30 0
BBX 28 30 1 -4
BITMAP
001FC000
00E07000
03000C00
06000600
08000100
10000080
37C7FEC0
27C7FE40
40C00620
40C00620
C0C00630
80C00C10
80C00C10
80C01810
80C01810
80C01810
80C03010
80C03010
80C03010
C0C06010
40C06020
40C0E020
20C0C040
30C0C040
10000080
08000100
06000200
03000C00
00E07000
003FC000
ENDCHAR
STARTCHAR 2471
ENCODING 9329
SWIDTH 1000 0
DWIDTH 30 0
BBX 28 30 1 -4
BITMAP
001FC000
00E07000
03000C00
06000600
08000100
10000080
37C0F8C0
27C1FC40
40C30C20
40C30620
40C30630
80C30610
80C30610
80C38C10
80C1F810
80C1FC10
80C30E10
80C30610
80C30610
C0C30610
40C30620
40C30E20
20C3FC40
30C0F840
10000080
08000100
06000600
03000C00
00E07000
003F8000
ENDCHAR
STARTCHAR 2472
ENCODING 9330
SWIDTH 1000 0
DWIDTH 30 0
BBX 28 30 1 -4
BITMAP
001FC000
00E07000
03000C00
06000600
08000100
10000080
37C0F8C0
27C1FC40
40C30E20
40C30620
C0C30630
80C30610
80C30610
80C30610
80C30E10
80C3FE10
80C0F610
80C00610
80C00610
C0C30630
40C30620
40C30C20
20C1FC40
30C0F8C0
18000080
08000100
06000600
03000C00
00E07000
003F8000
ENDCHAR
STARTCHAR 2473
ENCODING 9331
SWIDTH 1000 0
DWIDTH 30 0
BBX 28 30 1 -4
BITMAP
001FC000
00E07000
03000C00
06000600
08000100
10000080
33F07CC0
27F8FE40
46198720
4C198320
CC098330
8C098310
80198310
80198310
80398310
80F18310
83C18310
87018310
86018310
CC018330
4C018320
4C01C720
2FF8FE40
3FF87CC0
10000080
08000100
06000600
03000C00
00E07000
003F8000
ENDCHAR
STARTCHAR 2474
ENCODING 9332
SWIDTH 1000 0
DWIDTH 30 0
BBX 28 30 1 -4
BITMAP
04000200
08000100
18000180
10000080
20000040
20000040
603E0060
403E0020
40060020
C0060030
80060010
80060010
80060010
80060010
80060010
80060010
80060010
80060010
80060010
80060010
C0060030
40060030
40060020
60060020
20060040
20000040
100000C0
10000080
08000100
04000200
ENDCHAR
STARTCHAR 2475
ENCODING 9333
SWIDTH 1000 0
DWIDTH 30 0
BBX 28 30 1 -4
BITMAP
04000300
08000100
10000080
100000C0
20000040
200F8060
403FC020
4030E020
40706030
C0606030
80606010
80006010
80006010
8000E010
8003C010
800F8010
803E0010
80300010
80700010
C0600010
C0600030
40600020
407FE020
607FE060
20000040
30000040
10000080
18000080
08000100
04000200
ENDCHAR
STARTCHAR 2476
ENCODING 9334
SWIDTH 1000 0
DWIDTH 30 0
BBX 28 30 1 -4
BITMAP
04000300
08000100
10000080
100000C0
20000040
201F8060
403FC020
4030E020
40706030
C0606030
80606010
80006010
80006010
8000C010
800F8010
800FC010
8000E010
80006010
80006010
80606010
C0606010
40606030
4070E020
403FC020
201F8060
20000040
300000C0
10000080
08000100
0C000300
ENDCHAR
STARTCHAR 2477
ENCODING 9335
SWIDTH 1000 0
DWIDTH 30 0
BBX 28 30 1 -4
BITMAP
04000200
08000100
10000080
100000C0
20000040
20000040
60078060
40078020
400D8020
C00D8030
80198010
80198010
80318010
80318010
80618010
80618010
80C18010
80C18010
80FFC010
80FFC010
C0018030
40018020
40018020
60018020
20000040
20000040
10000080
18000080
08000100
04000200
ENDCHAR
STARTCHAR 2478
ENCODING 9336
SWIDTH 1000 0
DWIDTH 30 0
BBX 28 30 1 -4
BITMAP
04000200
08000100
18000180
10000080
20000040
20000040
607FE060
407FE020
40600020
C0600030
80600010
80600010
806F8010
807FC010
8070C010
80606010
80006010
80006010
80006010
80606010
C0606030
40606030
4030C020
403FC020
201F8060
20000040
300000C0
10000080
08000100
0C000300
ENDCHAR
STARTCHAR 2479
ENCODING 9337
SWIDTH 1000 0
DWIDTH 30 0
BBX 28 30 1 -4
BITMAP
04000300
08000100
10000080
100000C0
20000040
200F8060
403FC020
4030C020
40306020
C0606030
80606010
80600010
80600010
806F8010
807FC010
8070E010
80706010
80606010
80606010
80606010
C0606010
C0706030
4030C020
403FC020
600F0060
20000040
300000C0
10000080
08000100
0C000300
ENDCHAR
STARTCHAR 247A
ENCODING 9338
SWIDTH 1000 0
DWIDTH 30 0
BBX 28 30 1 -4
BITMAP
04000200
08000100
18000180
10000080
20000040
20000040
607FE060
407FE020
40006020
C0006030
8000C010
8000C010
8000C010
80018010
80018010
80038010
80030010
80030010
80060010
80060010
C00E0030
400C0030
400C0020
601C0020
20180040
20000040
100000C0
10000080
08000100
04000200
ENDCHAR
STARTCHAR 247B
ENCODING 9339
SWIDTH 1000 0
DWIDTH 30 0
BBX 28 30 1 -4
BITMAP
04000300
08000100
10000080
100000C0
20000040
201F8060
403FC020
4030C020
4070E020
C0606030
80606010
80606010
80706010
8030C010
801F8010
801FC010
8030C010
80606010
80606010
80606010
C0606010
C0606030
4070E020
403FC020
601F8060
20000040
300000C0
10000080
08000100
0C000300
ENDCHAR
STARTCHAR 247C
ENCODING 9340
SWIDTH 1000 0
DWIDTH 30 0
BBX 28 30 1 -4
BITMAP
04000300
08000100
10000080
100000C0
20000040
200F0060
403FC020
4030C020
40606030
C0606030
80606010
80606010
80606010
80606010
8070E010
803FE010
801F6010
80006010
80006010
80606010
C0606030
4070E020
4030C020
603FC020
201F0040
20000040
300000C0
10000080
08000100
0C000300
ENDCHAR
STARTCHAR 247D
ENCODING 9341
SWIDTH 1000 0
DWIDTH 30 0
BBX 28 30 1 -4
BITMAP
04000200
08000100
18000180
10000080
20000040
20000040
67C0F860
47C1FC20
40C30E20
C0C30630
80C30610
80C60610
80C60610
80C60610
80C60610
80C60610
80C60610
80C60610
80C60610
80C30610
C0C30630
40C30E20
40C3FC20
60C0F860
20000040
20000040
10000080
18000080
08000100
04000200
ENDCHAR
STARTCHAR 247E
ENCODING 9342
SWIDTH 1000 0
DWIDTH 30 0
BBX 28 30 1 -4
BITMAP
04000200
08000100
18000180
10000080
20000040
20000040
67C0F860
47C0F820
40C01820
C0C01830
80C01810
80C01810
80C01810
80C01810
80C01810
80C01810
80C01810
80C01810
80C01810
80C01810
C0C01830
40C01820
40C01820
60C01820
20000040
20000040
10000080
10000080
08000100
04000200
ENDCHAR
STARTCHAR 247F
ENCODING 9343
SWIDTH 1000 0
DWIDTH 30 0
BBX 28 30 1 -4
BITMAP
04000200
08000100
18000080
10000080
20000040
20000040
6FC0F860
4FC1FE20
40C38620
C0C30630
80C30610
80C30610
80C00610
80C00610
80C00E10
80C03C10
80C1F010
80C18010
80C30010
80C30010
C0C30030
40C30020
40C3FE20
60C3FE60
20000040
20000040
10000080
18000080
08000100
04000200
ENDCHAR
STARTCHAR 2480
ENCODING 9344
SWIDTH 1000 0
DWIDTH 30 0
BBX 28 30 1 -4
BITMAP
04000200
08000100
18000180
10000080
20000040
20000040
6FC0F860
4FC1FC20
40C38E20
C0C30630
80C30610
80C30610
80C00610
80C00610
80C07C10
80C07C10
80C00610
80C00610
80C30610
80C30610
C0C30630
40C30620
40C1FE20
60C0F860
20000040
20000040
10000080
18000080
08000100
04000200
ENDCHAR
STARTCHAR 2481
ENCODING 9345
SWIDTH 1000 0
DWIDTH 30 0
BBX 28 30 1 -4
BITMAP
04000200
08000100
10000080
100000C0
20000040
20000040
6FC01C60
4FC03C20
40C03C30
C0C06C30
80C06C10
80C0CC10
80C0CC10
80C18C10
80C18C10
80C30C10
80C30C10
80C70C10
80C7FF10
80C7FF10
C0C00C30
40C00C20
40C00C20
60C00C20
20000040
20000040
10000080
10000080
08000100
04000200
ENDCHAR
STARTCHAR 2482
ENCODING 9346
SWIDTH 1000 0
DWIDTH 30 0
BBX 28 30 1 -4
BITMAP
04000200
08000100
10000080
10000080
20000040
20000040
6FC3FE60
4FC3FE20
40C30020
C0C30030
80C30010
80C30010
80C37810
80C3FE10
80C38610
80C30610
80C00610
80C00610
80C00610
80C30610
C0C30630
40C38620
40C1FC20
60C0F860
20000040
30000040
10000080
18000080
08000100
04000200
ENDCHAR
STARTCHAR 2483
ENCODING 9347
SWIDTH 1000 0
DWIDTH 30 0
BBX 28 30 1 -4
BITMAP
04000200
08000100
18000180
10000080
20000040
20000040
6FC0F860
4FC1FC20
40C38620
C0C30630
80C30610
80C30010
80C30010
80C37810
80C3FE10
80C38610
80C30610
80C30610
80C30610
80C30610
C0C30630
40C38620
40C1FC20
60C0F860
20000040
20000040
10000080
18000080
08000100
04000200
ENDCHAR
STARTCHAR 2484
ENCODING 9348
SWIDTH 1000 0
DWIDTH 30 0
BBX 28 30 1 -4
BITMAP
04000200
08000100
18000180
10000080
20000040
20000040
6FC7FF60
4FC7FF20
40C00320
C0C00630
80C00610
80C00C10
80C00C10
80C00C10
80C01810
80C01810
80C03810
80C03010
80C03010
80C06010
C0C06030
40C06020
40C0C020
60C0C020
20000040
20000040
10000080
10000080
08000100
04000200
ENDCHAR
STARTCHAR 2485
ENCODING 9349
SWIDTH 1000 0
DWIDTH 30 0
BBX 28 30 1 -4
BITMAP
04000200
08000100
18000180
10000080
20000040
20000040
6FC0F860
4FC1FC20
40C38E20
C0C30630
80C30610
80C30610
80C30610
80C38E10
80C1FC10
80C1FC10
80C30610
80C30610
80C30610
80C30610
C0C30630
40C30620
40C1FE20
60C0F860
20000040
20000040
10000080
18000080
08000100
04000200
ENDCHAR
STARTCHAR 2486
ENCODING 9350
SWIDTH 1000 0
DWIDTH 30 0
BBX 28 30 1 -4
BITMAP
04000200
08000100
18000180
10000080
20000040
20000040
6FC0F860
4FC1FC20
40C30E20
C0C30630
80C30610
80C30610
80C30610
80C30610
80C30E10
80C1FE10
80C0F610
80C00610
80C00610
80C30610
C0C30630
40C38E20
40C1FC20
60C0F860
20000040
30000040
10000080
18000080
08000100
04000200
ENDCHAR
STARTCHAR 2487
ENCODING 9351
SWIDTH 1000 0
DWIDTH 30 0
BBX 28 30 1 -4
BITMAP
04000200
08000100
18000180
10000080
20000040
20000040
63E07C60
47F0FE20
4E39C720
CC198330
8C198310
8C198310
80198310
80198310
80398310
81F18310
87C18310
8E018310
8C018310
8C018310
CC018330
4C01C720
4FF8FE20
6FF87C20
20000040
20000040
10000080
18000080
08000100
04000200
ENDCHAR
STARTCHAR 2488
ENCODING 9352
SWIDTH 1000 0
DWIDTH 30 0
BBX 19 25 10 -1
BITMAP
FE0000
FE0000
FE0000
060000
060000
060000
060000
060000
060000
060000
060000
060000
060000
060000
060000
060000
060000
060000
060000
060000
060000
060000
0600E0
0600E0
0600E0
ENDCHAR
STARTCHAR 2489
ENCODING 9353
SWIDTH 1000 0
DWIDTH 30 0
BBX 23 25 6 -1
BITMAP
07FC00
1FFF00
3FFF80
7803C0
7001C0
E001C0
E000C0
E000C0
0000C0
0001C0
0001C0
0003C0
003F80
07FE00
3FF800
7F0000
700000
E00000
E00000
E00000
E00000
E0000E
FFFFCE
FFFFCE
FFFFCE
ENDCHAR
STARTCHAR 248A
ENCODING 9354
SWIDTH 1000 0
DWIDTH 30 0
BBX 23 25 6 -1
BITMAP
07FC00
1FFF00
3FFF80
7803C0
F001C0
E001C0
E001C0
E001C0
0001C0
0001C0
000380
01FF00
01FF00
001F80
0003C0
0001C0
0001C0
C000C0
C000C0
E001C0
E001C0
F003C0
7FFF8E
3FFF0E
0FFC0E
ENDCHAR
STARTCHAR 248B
ENCODING 9355
SWIDTH 1000 0
DWIDTH 30 0
BBX 25 24 4 -1
BITMAP
00078000
000F8000
001D8000
00398000
00718000
00F18000
00E18000
01C18000
03818000
07018000
0E018000
1E018000
3C018000
38018000
70018000
FFFFF800
FFFFF800
FFFFF800
00018000
00018000
00018000
00018380
00018380
00018380
ENDCHAR
STARTCHAR 248C
ENCODING 9356
SWIDTH 1000 0
DWIDTH 30 0
BBX 23 25 6 -1
BITMAP
FFFF80
FFFF80
FFFF80
E00000
E00000
E00000
E00000
E00000
E04000
EFFE00
FFFF00
F80780
F003C0
E001C0
0001C0
0001C0
0000C0
C000C0
E001C0
E001C0
E001C0
F00380
7FFF8E
3FFF0E
0FF80E
ENDCHAR
STARTCHAR 248D
ENCODING 9357
SWIDTH 1000 0
DWIDTH 30 0
BBX 23 25 6 -1
BITMAP
07FC00
1FFF00
3FFF80
780380
7001C0
E001C0
E001C0
E00000
E00000
E00000
E7FE00
FFFF80
FC0780
F003C0
E001C0
E001C0
E000C0
E000C0
E000C0
E001C0
7001C0
7803C0
3FFF8E
1FFF0E
07FC0E
ENDCHAR
STARTCHAR 248E
ENCODING 9358
SWIDTH 1000 0
DWIDTH 30 0
BBX 24 25 5 -1
BITMAP
FFFFF0
FFFFF0
FFFFF0
0000E0
0000E0
0001C0
0001C0
000380
000380
000700
000F00
000E00
001E00
001C00
003800
003800
007000
00F000
00E000
01E000
01C000
03C000
038007
078007
0F0007
ENDCHAR
STARTCHAR 248F
ENCODING 9359
SWIDTH 1000 0
DWIDTH 30 0
BBX 24 25 5 -1
BITMAP
03FE00
1FFF80
3FFFC0
3801C0
7000E0
7000E0
7000E0
7000E0
7000E0
3801C0
3C03C0
1FFF80
1FFF80
3F0FC0
7801E0
7000E0
600070
E00070
E00070
E00070
7000E0
7801E0
3FFFC7
1FFF87
07FE07
ENDCHAR
STARTCHAR 2490
ENCODING 9360
SWIDTH 1000 0
DWIDTH 30 0
BBX 24 25 5 -1
BITMAP
03FC00
0FFF00
1FFF80
3801C0
7000E0
7000E0
7000E0
7000E0
7000E0
7000E0
7000F0
7801F0
3C03F0
1FFF70
0FFE70
000060
000060
0000E0
E000E0
6000E0
7001C0
7803C0
3FFF87
1FFF07
07FC07
ENDCHAR
STARTCHAR 249C
ENCODING 9372
SWIDTH 1000 0
DWIDTH 30 0
BBX 28 30 1 -4
BITMAP
04000200
08000100
10000080
100000C0
20000040
20000040
40000020
403FE020
40FFF030
C0E03830
81C01810
81C01810
80003810
807FF810
80FFF810
81E01810
81801810
81801810
81803810
81803810
C1C0F830
41FFD820
407F9820
60000020
20000040
20000040
10000080
10000080
08000100
04000200
ENDCHAR
STARTCHAR 249D
ENCODING 9373
SWIDTH 1000 0
DWIDTH 30 0
BBX 28 30 1 -4
BITMAP
04000200
08000100
10000080
100000C0
21C00040
21C00040
61C00060
41C00020
41C00030
C1CFC030
81FFF010
81F8F810
81E03810
81C01810
81C01C10
81C01C10
81C01C10
81C01C10
81C01C10
81C01C10
C1C01830
41E03820
41F07820
61FFF060
21DFE040
30000040
10000080
18000080
08000100
04000200
ENDCHAR
STARTCHAR 249E
ENCODING 9374
SWIDTH 1000 0
DWIDTH 30 0
BBX 28 30 1 -4
BITMAP
04000200
08000100
10000080
100000C0
20000040
20000040
60000020
407FE020
40FFF030
C1E07830
81C03810
81803810
83801810
83800010
83800010
83800010
83800010
83801810
81801810
81C03810
C1E07830
40FFF020
407FE020
60000020
20000040
20000040
100000C0
10000080
08000100
04000200
ENDCHAR
STARTCHAR 249F
ENCODING 9375
SWIDTH 1000 0
DWIDTH 30 0
BBX 28 30 1 -4
BITMAP
04000200
08000100
10000080
100000C0
20003840
20003840
60003860
40003820
40003830
C03F3830
80FFF810
81F1F810
81C07810
81803810
83803810
83803810
83803810
83803810
83803810
83803810
C3803830
41C07820
41E0F820
60FFF860
207FB840
30000040
10000080
18000080
08000100
04000200
ENDCHAR
STARTCHAR 24A0
ENCODING 9376
SWIDTH 1000 0
DWIDTH 30 0
BBX 28 30 1 -4
BITMAP
04000200
08000100
10000080
100000C0
20000040
20000040
60000060
403FC020
40FFF020
C1E07030
81C03810
81803810
81801810
81801810
83FFF810
83FFF810
83800010
81800010
81801810
81C03810
C1E07830
40FFF030
407FE020
60000020
20000040
20000040
100000C0
10000080
08000100
04000200
ENDCHAR
STARTCHAR 24A1
ENCODING 9377
SWIDTH 1000 0
DWIDTH 30 0
BBX 28 30 1 -4
BITMAP
04000200
08000100
18000180
10000080
20000040
2003E040
6007E060
400E0020
400E0020
C00E0030
807FE010
807FE010
800E0010
800E0010
800E0010
800E0010
800E0010
800E0010
800E0010
800E0010
C00E0030
400E0020
400E0020
600E0020
200E0040
200E0040
10000080
10000080
08000100
04000200
ENDCHAR
STARTCHAR 24A2
ENCODING 9378
SWIDTH 1000 0
DWIDTH 30 0
BBX 28 30 1 -4
BITMAP
04000200
08000100
10000080
100000C0
20000040
203FCE40
60FFFE60
41E07820
41C03820
C1801830
81801810
81C03810
81F0F810
81FFF010
83BFC010
83000010
83800010
83FFF010
81FFF810
83003C10
C3000C30
47000C30
43801C20
63FFF820
20FFF040
20000040
10000080
10000080
08000100
04000200
ENDCHAR
STARTCHAR 24A3
ENCODING 9379
SWIDTH 1000 0
DWIDTH 30 0
BBX 28 30 1 -4
BITMAP
04000200
08000100
10000080
100000C0
21800040
21800040
61800020
41800020
41800030
C18FC030
81BFF010
81F9F010
81C03810
81C03810
81C03810
81803810
81803810
81803810
81803810
81803810
C1803830
41803820
41803820
61803820
21803840
20000040
10000080
18000080
08000100
04000200
ENDCHAR
STARTCHAR 24A4
ENCODING 9380
SWIDTH 1000 0
DWIDTH 30 0
BBX 28 30 1 -4
BITMAP
04000300
08000100
10000080
100000C0
200E0040
200E0060
400E0020
40000020
40000030
C0060030
80060010
80060010
80060010
80060010
80060010
80060010
80060010
80060010
80060010
80060010
C0060030
40060020
40060020
60060060
20060040
20060040
10000080
18000080
08000100
04000200
ENDCHAR
STARTCHAR 24A5
ENCODING 9381
SWIDTH 1000 0
DWIDTH 30 0
BBX 28 30 1 -4
BITMAP
04000300
08000100
10000080
100700C0
20070040
20070060
40000020
40000020
40000030
C0070030
80070010
80070010
80070010
80070010
80070010
80070010
80070010
80070010
80070010
80070010
C0070030
40070020
40070020
40070020
20070040
200F0040
301E00C0
101C0080
08000100
0C000200
ENDCHAR
STARTCHAR 24A6
ENCODING 9382
SWIDTH 1000 0
DWIDTH 30 0
BBX 28 29 1 -3
BITMAP
04000200
08000100
18000180
10000080
20E00040
20E00040
60E00060
40E00020
40E00030
C0E00030
80E07010
80E0E010
80E1C010
80E38010
80E70010
80EE0010
80FC0010
80FC0010
80EE0010
C0E70010
C0E38030
40E1C020
40E0E020
60E07060
20E03840
300000C0
10000080
08000100
0C000300
ENDCHAR
STARTCHAR 24A7
ENCODING 9383
SWIDTH 1000 0
DWIDTH 30 0
BBX 28 29 1 -3
BITMAP
04000200
08000100
18000180
10000080
20060040
20060040
60060060
40060020
40060030
C0060030
80060010
80060010
80060010
80060010
80060010
80060010
80060010
80060010
80060010
C0060010
C0060030
40060020
40060020
60060060
20060040
300000C0
10000080
08000100
0C000300
ENDCHAR
STARTCHAR 24A8
ENCODING 9384
SWIDTH 1000 0
DWIDTH 30 0
BBX 28 30 1 -4
BITMAP
04000200
08000100
10000080
10000080
20000040
20000040
60000060
4CF87C20
4DFCFE20
CF9FCF30
8E0F0710
8E060710
8C060310
8C060310
8C060310
8C060310
8C060310
8C060310
8C060310
8C060310
CC060330
4C060320
4C060320
60000020
20000040
20000040
10000080
10000080
08000100
04000200
ENDCHAR
STARTCHAR 24A9
ENCODING 9385
SWIDTH 1000 0
DWIDTH 30 0
BBX 28 30 1 -4
BITMAP
04000200
08000100
10000080
10000080
20000040
20000040
60000060
40CFE020
40DFF020
C0FCF830
80E03810
80E01810
80C01810
80C01810
80C01810
80C01810
80C01810
80C01810
80C01810
80C01810
C0C01830
40C01820
40C01820
60000020
20000040
20000040
10000080
10000080
08000100
04000200
ENDCHAR
STARTCHAR 24AA
ENCODING 9386
SWIDTH 1000 0
DWIDTH 30 0
BBX 28 30 1 -4
BITMAP
04000300
08000100
10000080
100000C0
20000040
20000040
40000020
407FE020
40FFF030
C1E07830
81C03810
81801810
81801810
81801810
81801810
81801810
81801810
81801810
81801810
81C03810
C1E07830
40FFF020
407FE020
60000020
20000040
20000040
100000C0
10000080
08000100
04000200
ENDCHAR
STARTCHAR 24AB
ENCODING 9387
SWIDTH 1000 0
DWIDTH 30 0
BBX 28 30 1 -4
BITMAP
04000200
08000100
10000080
100000C0
20000040
20CFE040
60DFF060
40F8F820
40E03820
C0E01C30
80C01C10
80C01C10
80C01C10
80C01C10
80C01C10
80C01C10
80E01C10
80E03810
80F8F810
80FFF010
C0CFC030
40C00030
40C00020
60C00020
20C00040
20000040
100000C0
10000080
08000100
04000200
ENDCHAR
STARTCHAR 24AC
ENCODING 9388
SWIDTH 1000 0
DWIDTH 30 0
BBX 28 30 1 -4
BITMAP
04000200
08000100
10000080
100000C0
20000040
203F3040
60FFF060
41F1F020
41C07020
C3807030
83803010
83803010
83803010
83803010
83803010
83803010
83807010
81C07010
81F1F010
80FFF010
C07F3030
40003030
40003020
40003020
20003040
20000040
100000C0
10000080
08000100
04000200
ENDCHAR
STARTCHAR 24AD
ENCODING 9389
SWIDTH 1000 0
DWIDTH 30 0
BBX 28 30 1 -4
BITMAP
04000200
08000100
10000080
100000C0
20000040
20000040
60000060
401CF020
401FF020
C01F8030
801E0010
801C0010
801C0010
801C0010
801C0010
801C0010
801C0010
801C0010
801C0010
801C0010
C01C0030
401C0020
401C0020
60000020
20000040
20000040
10000080
10000080
08000100
04000200
ENDCHAR
STARTCHAR 24AE
ENCODING 9390
SWIDTH 1000 0
DWIDTH 30 0
BBX 28 30 1 -4
BITMAP
04000200
08000100
10000080
100000C0
20000040
20000040
60000060
403FC020
40FFF020
C0E07030
81C03810
81803810
81C00010
81F00010
80FFE010
803FF010
80007810
80001810
81801810
81C01810
C1E03830
40FFF020
407FE020
60000020
20000040
20000040
10000080
10000080
08000100
04000200
ENDCHAR
STARTCHAR 24AF
ENCODING 9391
SWIDTH 1000 0
DWIDTH 30 0
BBX 28 30 1 -4
BITMAP
04000200
08000100
10000080
10000080
20000040
200C0040
600C0060
400C0020
400C0020
C0FFE030
80FFE010
800C0010
800C0010
800C0010
800C0010
800C0010
800C0010
800C0010
800C0010
800C0010
C00C0030
400C0020
400F0020
600FE020
2003E040
20000040
10000080
18000080
08000100
04000200
ENDCHAR
STARTCHAR 24B0
ENCODING 9392
SWIDTH 1000 0
DWIDTH 30 0
BBX 28 30 1 -4
BITMAP
04000200
08000100
10000080
100000C0
20000040
20000040
60000060
41C03820
41C03820
C1C03830
81C03810
81C03810
81C03810
81C03810
81C03810
81C03810
81C03810
81C03810
81C03810
81C03810
C0E0F830
40FFF820
407FB820
60000020
20000040
20000040
10000080
10000080
08000100
04000200
ENDCHAR
STARTCHAR 24B1
ENCODING 9393
SWIDTH 1000 0
DWIDTH 30 0
BBX 28 30 1 -4
BITMAP
04000200
08000100
10000080
100000C0
20000040
20000040
60000060
41C03820
41C03820
C1C03830
80E07010
80E07010
80606010
8070E010
8070E010
8030C010
8039C010
8039C010
80198010
801F8010
C01F8030
400F0020
400F0020
60000020
20000040
20000040
10000080
18000080
08000100
04000200
ENDCHAR
STARTCHAR 24B2
ENCODING 9394
SWIDTH 1000 0
DWIDTH 30 0
BBX 28 30 1 -4
BITMAP
04000200
08000100
18000180
10000080
20000040
20000040
60000060
40000020
5C0F03A0
CC0F0330
8C0F0310
8E1F8710
8E198710
86198610
86198610
8739CE10
8730CE10
8330CC10
8330DC10
83F0FC10
C1F0F830
41E07820
41E07820
60000060
20000040
30000040
10000080
18000080
08000100
04000200
ENDCHAR
STARTCHAR 24B3
ENCODING 9395
SWIDTH 1000 0
DWIDTH 30 0
BBX 28 29 1 -3
BITMAP
04000200
08000100
18000180
10000080
20000040
20000040
60000060
40E07020
40E07030
C070E030
8030C010
8039C010
801F8010
800F0010
800F0010
801F8010
80198010
8039C010
8070E010
C070E010
C0E07030
41C03820
40000020
60000060
20000040
300000C0
10000080
08000100
0C000300
ENDCHAR
STARTCHAR 24B4
ENCODING 9396
SWIDTH 1000 0
DWIDTH 30 0
BBX 28 30 1 -4
BITMAP
04000200
08000100
10000080
100000C0
20000040
20000040
61C03860
40C03820
40E07020
C0E07030
80606010
8070E010
8030E010
8030C010
8039C010
8019C010
801D8010
800F8010
800F0010
800F0010
C0070030
40060020
400E0020
60FC0020
20F80040
20000040
10000080
10000080
08000100
04000200
ENDCHAR
STARTCHAR 24B5
ENCODING 9397
SWIDTH 1000 0
DWIDTH 30 0
BBX 28 30 1 -4
BITMAP
04000200
08000100
10000080
100000C0
20000040
20000040
60000060
40FFF820
40FFF820
C0007030
8000F010
8001E010
8003C010
80038010
80070010
800E0010
801C0010
803C0010
80780010
80F00010
C0E00030
41FFF820
41FFF820
60000020
20000040
20000040
10000080
10000080
08000100
04000200
ENDCHAR
STARTCHAR 24B6
ENCODING 9398
SWIDTH 1000 0
DWIDTH 30 0
BBX 28 30 1 -4
BITMAP
001FC000
00E07000
03000C00
06000600
08000100
100F0080
300F00C0
201F8040
401F8020
40198020
4039C030
8030C010
8070E010
8070E010
80606010
80E07010
80E07010
80FFF010
81FFF810
C1C03810
43801C20
43801C20
23000C40
37000E40
10000080
08000100
06000200
03000C00
00E07000
003FC000
ENDCHAR
STARTCHAR 24B7
ENCODING 9399
SWIDTH 1000 0
DWIDTH 30 0
BBX 28 30 1 -4
BITMAP
001FC000
00E07000
03000C00
06000600
08000100
10000080
31FFE0C0
21FFF840
41C03820
41C01C20
41C01C30
81C01C10
81C01810
81C03810
81FFF010
81FFF810
81C01C10
81C00C10
81C00C10
C1C00C30
41C00C20
41C03C20
21FFF840
31FFF0C0
18000080
08000100
06000600
03000C00
00E07000
003F8000
ENDCHAR
STARTCHAR 24B8
ENCODING 9400
SWIDTH 1000 0
DWIDTH 30 0
BBX 28 30 1 -4
BITMAP
001FC000
00E07000
03000C00
06000600
08000100
10000080
303FE0C0
20FFF840
41E03820
41C01C20
C1801C30
83800C10
83800010
83800010
83800010
83800010
83800010
83800010
83800C10
C1801C30
41C01C20
41E03820
20FFF040
303FE0C0
18000080
0C000100
06000600
03000C00
00E07000
003F8000
ENDCHAR
STARTCHAR 24B9
ENCODING 9401
SWIDTH 1000 0
DWIDTH 30 0
BBX 28 30 1 -4
BITMAP
001FC000
00E07000
03000C00
06000600
08000100
10000080
31FFE0C0
21FFF840
41803C20
41801C20
C1800E30
81800E10
81800E10
81800610
81800610
81800610
81800610
81800610
81800E10
C1800E30
41800C20
41803C20
21FFF840
31FFE0C0
18000080
08000100
06000600
03000C00
00E07000
003F8000
ENDCHAR
STARTCHAR 24BA
ENCODING 9402
SWIDTH 1000 0
DWIDTH 30 0
BBX 28 30 1 -4
BITMAP
001FC000
00E07000
03000C00
06000600
08000100
10000080
31FFF8C0
21FFF840
41C00020
41C00020
41C00030
81C00010
81C00010
81C00010
81FFF010
81FFF010
81C00010
81C00010
81C00010
C1C00030
41C00020
41C00020
21FFF840
31FFF8C0
18000080
08000100
06000600
03000C00
00E07000
003F8000
ENDCHAR
STARTCHAR 24BB
ENCODING 9403
SWIDTH 1000 0
DWIDTH 30 0
BBX 28 30 1 -4
BITMAP
001FC000
00E07000
03000C00
06000600
08000100
10000180
300000C0
207FF840
407FF820
40600020
40600030
80600010
80600010
80600010
80600010
807FF810
807FF810
80600010
80600010
C0600010
40600020
40600020
20600040
30600040
10600080
08000100
06000200
03000C00
00E07000
003FC000
ENDCHAR
STARTCHAR 24BC
ENCODING 9404
SWIDTH 1000 0
DWIDTH 30 0
BBX 28 30 1 -4
BITMAP
001FC000
00E07000
03000C00
06000600
08000100
10000080
307FE0C0
20FFF040
41E07820
43801C20
43801C30
83001C10
83000010
83000010
83000010
8303FC10
8303FC10
83000C10
83000C10
C3801C10
43801C20
41E03820
20FFF040
307FE0C0
10000080
08000100
06000600
03000C00
00E07000
003F8000
ENDCHAR
STARTCHAR 24BD
ENCODING 9405
SWIDTH 1000 0
DWIDTH 30 0
BBX 28 30 1 -4
BITMAP
001FC000
00E07000
03000C00
06000600
08000100
10000080
33801CC0
23801C40
43801C20
43801C20
C3801C30
83801C10
83801C10
83801C10
83FFFC10
83FFFC10
83801C10
83801C10
83801C10
C3801C10
43801C20
43801C20
23801C40
33801C40
10000080
08000100
06000200
03000C00
00E07000
003FC000
ENDCHAR
STARTCHAR 24BE
ENCODING 9406
SWIDTH 1000 0
DWIDTH 30 0
BBX 28 30 1 -4
BITMAP
003FC000
00E07000
03000C00
06000600
08000100
10000080
300600C0
20060040
40060020
40060020
C0060030
80060010
80060010
80060010
80060010
80060010
80060010
80060010
80060010
C0060010
40060020
40060020
20060040
30060040
10000080
08000100
06000200
03000C00
00E07000
003FC000
ENDCHAR
STARTCHAR 24BF
ENCODING 9407
SWIDTH 1000 0
DWIDTH 30 0
BBX 28 30 1 -4
BITMAP
003FC000
00E07000
03000C00
06000600
08000100
10006080
300060C0
20006040
40006020
40006020
C0006030
80006010
80006010
80006010
80006010
80006010
80006010
83806010
83806010
C3806030
4380E020
41E1E020
21FFC040
307F00C0
18000080
08000100
06000600
03000C00
00E07000
003F8000
ENDCHAR
STARTCHAR 24C0
ENCODING 9408
SWIDTH 1000 0
DWIDTH 30 0
BBX 28 30 1 -4
BITMAP
003FC000
00E07000
03000C00
06000600
08000100
10000080
30E03CC0
20E07840
40E0F020
40E1E020
C0E3C030
80E38010
80E70010
80EE0010
80FC0010
80FC0010
80EE0010
80E70010
80E38010
C0E1C010
40E0E020
40E07020
20E03840
30E01C40
10000080
08000100
06000200
03000C00
00E07000
003FC000
ENDCHAR
STARTCHAR 24C1
ENCODING 9409
SWIDTH 1000 0
DWIDTH 30 0
BBX 28 30 1 -4
BITMAP
003FC000
00E07000
03000C00
06000600
08000100
10300080
303000C0
20300040
40300020
40300020
C0300030
80300010
80300010
80300010
80300010
80300010
80300010
80300010
80300010
C0300030
40300020
403FF820
203FF840
300000C0
18000080
0C000100
06000600
03000C00
00E07000
003F8000
ENDCHAR
STARTCHAR 24C2
ENCODING 9410
SWIDTH 1000 0
DWIDTH 30 0
BBX 28 30 1 -4
BITMAP
003FC000
00E07000
03000C00
06000600
08000100
10000080
37801EC0
27801E40
47C03E20
47C03E20
C7C03E30
87E06E10
87606E10
87606E10
8770EE10
8730CE10
8730CE10
8739CE10
87198E10
C7198E30
471F8E20
470F0E20
270F0E40
370F0EC0
18000080
08000100
06000600
03000C00
00E07000
003F8000
ENDCHAR
STARTCHAR 24C3
ENCODING 9411
SWIDTH 1000 0
DWIDTH 30 0
BBX 28 30 1 -4
BITMAP
003FC000
00E07000
03000C00
06000600
08000100
10000080
31E018C0
21E01840
41F01820
41B01820
C1B81830
81981810
819C1810
818C1810
818E1810
81871810
81871810
81839810
81819810
C181D810
4180D820
4180F820
21807840
31807840
10000080
08000100
06000200
03000C00
00E07000
003FC000
ENDCHAR
STARTCHAR 24C4
ENCODING 9412
SWIDTH 1000 0
DWIDTH 30 0
BBX 28 30 1 -4
BITMAP
001FC000
00E07000
03000C00
06000600
08000100
10000080
303FC0C0
20FFF040
41E07820
41C03820
C1801830
81801810
83801C10
83801C10
83801C10
83801C10
83801C10
83801C10
81801810
C1801830
41C03820
41E07820
20FFF040
303FC0C0
18000080
08000100
06000600
03000C00
00E07000
003F8000
ENDCHAR
STARTCHAR 24C5
ENCODING 9413
SWIDTH 1000 0
DWIDTH 30 0
BBX 28 30 1 -4
BITMAP
001FC000
00E07000
03000C00
06000600
08000300
10000180
300000C0
20FFF040
40FFFC20
40E01C20
40E00C30
80E00C10
80E00C10
80E00C10
80E00C10
80E01C10
80FFF810
80FFF010
80E00010
C0E00010
40E00020
40E00020
20E00040
30E00040
10E00080
08000100
06000200
03000C00
00E07000
003FC000
ENDCHAR
STARTCHAR 24C6
ENCODING 9414
SWIDTH 1000 0
DWIDTH 30 0
BBX 28 30 1 -4
BITMAP
001FC000
00E07000
03000C00
06000600
08000100
10000080
303FE0C0
20FFF040
41E07820
41C03820
C1801830
81801810
83801C10
83801C10
83801C10
83801C10
83801C10
83821C10
81839810
C183D830
41C1F820
41E07820
20FFF840
303FDCC0
18000880
08000100
06000600
03000C00
00E07000
003F8000
ENDCHAR
STARTCHAR 24C7
ENCODING 9415
SWIDTH 1000 0
DWIDTH 30 0
BBX 28 30 1 -4
BITMAP
001FC000
00E07000
03000C00
06000600
08000100
10000080
31FFE0C0
21FFF040
41C07820
41C03820
C1C01830
81C01810
81C03810
81C03010
81FFF010
81FFE010
81C07010
81C03810
81C03810
C1C03830
41C03820
41C03820
21C03840
31C018C0
10000080
08000100
06000600
03000C00
00E07000
003FC000
ENDCHAR
STARTCHAR 24C8
ENCODING 9416
SWIDTH 1000 0
DWIDTH 30 0
BBX 28 30 1 -4
BITMAP
001FC000
00E07000
03000C00
06000600
08000100
10000080
307FC0C0
20FFE040
40E07020
41C03020
C1C03030
81C00010
81C00010
80F80010
80FFE010
801FF010
80007810
80003810
81801810
C1801830
41C03820
41E07820
20FFF040
303FC0C0
18000080
08000100
06000600
03000C00
00E07000
003F8000
ENDCHAR
STARTCHAR 24C9
ENCODING 9417
SWIDTH 1000 0
DWIDTH 30 0
BBX 28 30 1 -4
BITMAP
001FC000
00E07000
03000C00
06000600
08000100
10000180
300000C0
21FFF840
41FFF820
40060020
40060030
80060010
80060010
80060010
80060010
80060010
80060010
80060010
80060010
C0060010
40060020
40060020
20060040
30060040
10060080
08000100
06000200
03000C00
00E07000
003FC000
ENDCHAR
STARTCHAR 24CA
ENCODING 9418
SWIDTH 1000 0
DWIDTH 30 0
BBX 28 30 1 -4
BITMAP
003FC000
00E07000
03000C00
06000600
08000100
10000080
318018C0
21801840
41801820
41801820
C1801830
81801810
81801810
81801810
81801810
81801810
81801810
81801810
81801810
C1801830
41C03820
41E07020
20FFF040
303FC0C0
18000080
08000100
06000600
03000C00
00E07000
003F8000
ENDCHAR
STARTCHAR 24CB
ENCODING 9419
SWIDTH 1000 0
DWIDTH 30 0
BBX 28 30 1 -4
BITMAP
003FC000
00E07000
03000C00
06000600
08000100
10000080
300000C0
23801C40
41801820
41C03820
C1C03830
80C03010
80E07010
80E07010
80606010
8070E010
8070C010
8030C010
8039C010
C0398010
40198020
401F8020
200F0040
300F0040
100F0080
08000100
06000200
03000C00
00E07000
003FC000
ENDCHAR
STARTCHAR 24CC
ENCODING 9420
SWIDTH 1000 0
DWIDTH 30 0
BBX 28 30 1 -4
BITMAP
003FC000
00E07000
03000C00
06000600
08000100
10000080
300000C0
2C0F0340
4C0F0320
4E0F0720
CE0F0730
8E1F8610
86198610
86198610
87198E10
87198E10
8339CC10
8330CC10
8330CC10
C3B0DC10
41B0D820
41F0F820
21E07840
31E07840
11E07880
08000100
06000200
03000C00
00E07000
003FC000
ENDCHAR
STARTCHAR 24CD
ENCODING 9421
SWIDTH 1000 0
DWIDTH 30 0
BBX 28 30 1 -4
BITMAP
003FC000
00E07000
03000C00
06000600
08000100
10000080
31C038C0
20E07040
40E07020
4070E020
C030C030
8039C010
801F8010
801F0010
800F0010
800F0010
801F8010
8039C010
8039C010
C070E010
40E07020
40E07020
21C03840
31803840
10000080
08000100
06000200
03000C00
00E07000
003FC000
ENDCHAR
STARTCHAR 24CE
ENCODING 9422
SWIDTH 1000 0
DWIDTH 30 0
BBX 28 30 1 -4
BITMAP
003FC000
00E07000
03000C00
06000600
08000100
10000080
300000C0
23801C40
41C03820
40E07020
C0E07030
8070E010
8030C010
8039C010
801B8010
801F8010
800F0010
80060010
80060010
C0060010
40060020
40060020
20060040
30060040
10060080
08000100
06000200
03000C00
00E07000
003FC000
ENDCHAR
STARTCHAR 24CF
ENCODING 9423
SWIDTH 1000 0
DWIDTH 30 0
BBX 28 30 1 -4
BITMAP
001FC000
00E07000
03000C00
06000600
08000100
10000080
31FFF8C0
21FFF840
40003820
40007020
C000E030
8001C010
80038010
80078010
80070010
800E0010
801C0010
80380010
80700010
C0F00030
40E00020
41C00020
21FFF840
31FFF8C0
18000080
08000100
06000600
03000C00
00E07000
003F8000
ENDCHAR
STARTCHAR 24D0
ENCODING 9424
SWIDTH 1000 0
DWIDTH 30 0
BBX 28 30 1 -4
BITMAP
001FC000
00E07000
03000C00
06000600
08000100
10000080
300000C0
20000040
401F8020
407FE020
40607030
80E03010
80E03010
80003010
803FF010
807FF010
80E03010
80C03010
80C03010
C0E0F010
40FFF020
403FB020
20000040
300000C0
10000080
08000100
06000600
03000C00
00E07000
003F8000
ENDCHAR
STARTCHAR 24D1
ENCODING 9425
SWIDTH 1000 0
DWIDTH 30 0
BBX 28 30 1 -4
BITMAP
001FC000
00E07000
03000C00
06000600
08000100
10600180
306000C0
20600040
40600020
40600020
406FC030
807FE010
80707010
80603810
80603810
80603810
80601810
80601810
80601810
C0603810
40703020
40787020
207FE040
306FC040
10000080
08000100
06000200
03000C00
00E07000
003FC000
ENDCHAR
STARTCHAR 24D2
ENCODING 9426
SWIDTH 1000 0
DWIDTH 30 0
BBX 28 30 1 -4
BITMAP
001FC000
00E07000
03000C00
06000600
08000100
10000080
300000C0
20000040
401F8020
407FE020
C0E0F030
80C07010
80C03010
80C00010
80C00010
80C00010
80C00010
80C03010
80C03010
C0F0F030
407FE020
401F8020
20000040
300000C0
18000080
08000100
06000600
03000C00
00E07000
003F8000
ENDCHAR
STARTCHAR 24D3
ENCODING 9427
SWIDTH 1000 0
DWIDTH 30 0
BBX 28 30 1 -4
BITMAP
001FC000
00E07000
03000C00
06000600
08000100
10006180
300060C0
20006040
40006020
40006020
403F6030
807FE010
80E1E010
80C0E010
81C06010
81806010
81806010
81806010
81806010
C1C06010
41C0E020
40E1E020
207FE040
303F6040
10000080
08000100
06000200
03000C00
00E07000
003FC000
ENDCHAR
STARTCHAR 24D4
ENCODING 9428
SWIDTH 1000 0
DWIDTH 30 0
BBX 28 30 1 -4
BITMAP
001FC000
00E07000
03000C00
06000600
08000100
10000080
300000C0
20000040
401F8020
407FE020
C0E0F030
80C07010
80C03010
80C03010
80FFF010
80FFF010
80C00010
80C03010
80C03010
C0F07030
407FE020
401F8020
20000040
300000C0
18000080
08000100
06000600
03000C00
00E07000
003F8000
ENDCHAR
STARTCHAR 24D5
ENCODING 9429
SWIDTH 1000 0
DWIDTH 30 0
BBX 28 30 1 -4
BITMAP
003FC000
00E07000
03000C00
06000600
08000100
10000080
3003C0C0
2007C040
40060020
400E0020
C00E0030
803FC010
803FC010
800E0010
800E0010
800E0010
800E0010
800E0010
800E0010
C00E0010
400E0020
400E0020
200E0040
300E0040
100E0080
08000100
06000200
03000C00
00E07000
003FC000
ENDCHAR
STARTCHAR 24D6
ENCODING 9430
SWIDTH 1000 0
DWIDTH 30 0
BBX 28 30 1 -4
BITMAP
001FC000
00E07000
03000C00
06000600
08000300
10000180
300018C0
203FF840
407FF020
40E07020
40C03030
80C03010
80E07010
80FFE010
81FFC010
81800010
81FFC010
80FFF010
81807810
C1801830
41801820
41C03820
21FFF040
307FE0C0
10000080
08000100
06000600
03000C00
00E07000
003FC000
ENDCHAR
STARTCHAR 24D7
ENCODING 9431
SWIDTH 1000 0
DWIDTH 30 0
BBX 28 30 1 -4
BITMAP
001FC000
00E07000
03000C00
06000600
08000100
10C00080
30C000C0
20C00040
40C00020
40C00020
C0CFC030
80FFE010
80F0F010
80E07010
80C03010
80C03010
80C03010
80C03010
80C03010
C0C03010
40C03020
40C03020
20C03040
30C03040
10000080
08000100
06000200
03000C00
00E07000
003FC000
ENDCHAR
STARTCHAR 24D8
ENCODING 9432
SWIDTH 1000 0
DWIDTH 30 0
BBX 28 30 1 -4
BITMAP
001FC000
00E07000
03000C00
06000600
08000100
10000080
300600C0
20060040
40060020
40000020
C0060030
80060010
80060010
80060010
80060010
80060010
80060010
80060010
80060010
C0060010
40060020
40060020
20060040
30060040
10000080
08000100
06000200
03000C00
00E07000
003FC000
ENDCHAR
STARTCHAR 24D9
ENCODING 9433
SWIDTH 1000 0
DWIDTH 30 0
BBX 28 30 1 -4
BITMAP
001FC000
00E07000
03000C00
06000600
08000300
10070180
300700C0
20070040
40000020
40030020
40030030
80030010
80030010
80030010
80030010
80030010
80030010
80030010
80030010
C0030030
40030020
60030020
20070040
301E00C0
181E0180
0C000100
06000600
03000C00
00E07000
003F8000
ENDCHAR
STARTCHAR 24DA
ENCODING 9434
SWIDTH 1000 0
DWIDTH 30 0
BBX 28 30 1 -4
BITMAP
003FC000
00E07000
03000C00
06000600
08000100
10300080
303000C0
20300040
40300020
40300020
C0307030
8030E010
8031C010
80338010
80370010
803E0010
803E0010
80360010
80330010
C0338010
4031C020
4030E020
20307040
30303840
10000080
08000100
06000200
03000C00
00E07000
003FC000
ENDCHAR
STARTCHAR 24DB
ENCODING 9435
SWIDTH 1000 0
DWIDTH 30 0
BBX 28 30 1 -4
BITMAP
003FC000
00E07000
03000C00
06000600
08000100
10000080
300600C0
20060040
40060020
40060020
C0060030
80060010
80060010
80060010
80060010
80060010
80060010
80060010
80060010
C0060010
40060020
40060020
20060040
30060040
10000080
08000100
06000200
03000C00
00E07000
003FC000
ENDCHAR
STARTCHAR 24DC
ENCODING 9436
SWIDTH 1000 0
DWIDTH 30 0
BBX 28 30 1 -4
BITMAP
001FC000
00E07000
03000C00
06000600
08000100
10000080
300000C0
20000040
46F8F820
47FDFC20
C70F0E30
87060610
86060610
86060610
86060610
86060610
86060610
86060610
86060610
C6060610
46060620
46060620
20000040
30000040
10000080
08000100
06000200
03000C00
00E07000
003FC000
ENDCHAR
STARTCHAR 24DD
ENCODING 9437
SWIDTH 1000 0
DWIDTH 30 0
BBX 28 30 1 -4
BITMAP
001FC000
00E07000
03000C00
06000600
08000100
10000080
300000C0
20000040
40EF8020
40FFE020
C0F0E030
80E06010
80E06010
80E06010
80E06010
80E06010
80E06010
80E06010
80E06010
C0E06010
40E06020
40E06020
20000040
30000040
10000080
08000100
06000200
03000C00
00E07000
003FC000
ENDCHAR
STARTCHAR 24DE
ENCODING 9438
SWIDTH 1000 0
DWIDTH 30 0
BBX 28 30 1 -4
BITMAP
001FC000
00E07000
03000C00
06000600
08000100
10000080
300000C0
20000040
401F8020
407FE020
C070E030
80E07010
80C03010
80C03010
80C03010
80C03010
80C03010
80C03010
80E07010
C070E030
407FE020
401F8020
20000040
300000C0
18000080
08000100
06000600
03000C00
00E07000
003F8000
ENDCHAR
STARTCHAR 24DF
ENCODING 9439
SWIDTH 1000 0
DWIDTH 30 0
BBX 28 30 1 -4
BITMAP
003FC000
00E07000
03000C00
06000600
08000100
10000080
300000C0
20EFC040
40FFE020
40F0E020
C0E07030
80E03010
80E03010
80E03010
80E03010
80E03010
80E03010
80E07010
80F0E010
C0FFE030
40EF8020
40E00020
20E00040
30E000C0
18000080
0C000100
06000600
03000C00
00E07000
003F8000
ENDCHAR
STARTCHAR 24E0
ENCODING 9440
SWIDTH 1000 0
DWIDTH 30 0
BBX 28 30 1 -4
BITMAP
003FC000
00E07000
03000C00
06000600
08000100
10000080
300000C0
201F6040
407FE020
4070E020
C0E06030
80C06010
80C06010
80C06010
80C06010
80C06010
80C06010
80E06010
8070E010
C07FE030
403F6020
40006020
20006040
300060C0
18000080
0C000100
06000600
03000C00
00E07000
003F8000
ENDCHAR
STARTCHAR 24E1
ENCODING 9441
SWIDTH 1000 0
DWIDTH 30 0
BBX 28 30 1 -4
BITMAP
001FC000
00E07000
03000C00
06000600
08000300
18000180
300000C0
20000040
40000020
400DC020
400FC030
800E0010
800C0010
800C0010
800C0010
800C0010
800C0010
800C0010
800C0010
C00C0010
400C0020
400C0020
200C0040
30000040
10000080
08000100
06000200
03000C00
00E07000
003FC000
ENDCHAR
STARTCHAR 24E2
ENCODING 9442
SWIDTH 1000 0
DWIDTH 30 0
BBX 28 30 1 -4
BITMAP
001FC000
00E07000
03000C00
06000600
08000100
10000080
300000C0
20000040
401F8020
407FE020
C060E030
80606010
80E00010
80700010
807FC010
801FE010
80007010
80C07010
80E07010
C0607030
407FE020
401F8020
20000040
300000C0
18000080
08000100
06000600
03000C00
00E07000
003F8000
ENDCHAR
STARTCHAR 24E3
ENCODING 9443
SWIDTH 1000 0
DWIDTH 30 0
BBX 28 30 1 -4
BITMAP
001FC000
00E07000
03000C00
06000600
08000100
10000080
300E00C0
200E0040
400E0020
400E0020
C03FC030
803FC010
800E0010
800E0010
800E0010
800E0010
800E0010
800E0010
800E0010
C00E0010
400E0020
400E0020
2007C040
3003C040
10000080
08000100
06000200
03000C00
00E07000
003FC000
ENDCHAR
STARTCHAR 24E4
ENCODING 9444
SWIDTH 1000 0
DWIDTH 30 0
BBX 28 30 1 -4
BITMAP
003FC000
00E07000
03000C00
06000600
08000100
10000080
300000C0
20000040
40E06020
40E06020
C0E06030
80E06010
80E06010
80E06010
80E06010
80E06010
80E06010
80E06010
80606010
C070E030
407FE020
401F6020
20000040
300000C0
18000080
08000100
06000600
03000C00
00E07000
003F8000
ENDCHAR
STARTCHAR 24E5
ENCODING 9445
SWIDTH 1000 0
DWIDTH 30 0
BBX 28 30 1 -4
BITMAP
003FC000
00E07000
03000C00
06000600
08000100
10000080
300000C0
20000040
40000020
40E07020
C0606030
80606010
8070E010
8030C010
8030C010
8039C010
80198010
80198010
801F8010
C00F0010
400F0020
400F0020
20060040
30000040
10000080
08000100
06000200
03000C00
00E07000
003FC000
ENDCHAR
STARTCHAR 24E6
ENCODING 9446
SWIDTH 1000 0
DWIDTH 30 0
BBX 28 30 1 -4
BITMAP
003FC000
00E07000
03000C00
06000600
08000100
10000080
300000C0
20000040
40000020
470F0E20
C30F0C30
830F0C10
830F0C10
838F1C10
81999810
81999810
81999810
81D9B810
80F0F010
C0F0F010
40F0F020
40F0F020
2070E040
30000040
10000080
08000100
06000200
03000C00
00E07000
003FC000
ENDCHAR
STARTCHAR 24E7
ENCODING 9447
SWIDTH 1000 0
DWIDTH 30 0
BBX 28 30 1 -4
BITMAP
003FC000
00E07000
03000C00
06000600
08000100
10000080
300000C0
20000040
4070E020
4070E020
C039C030
80398010
801F8010
800F0010
800F0010
800F0010
801F8010
80198010
8039C010
C030C010
4070E020
40E07020
20000040
30000040
10000080
08000100
06000200
03000C00
00E07000
003FC000
ENDCHAR
STARTCHAR 24E8
ENCODING 9448
SWIDTH 1000 0
DWIDTH 30 0
BBX 28 30 1 -4
BITMAP
003FC000
00E07000
03000C00
06000600
08000100
10000080
300000C0
20E07040
40606020
40706020
C070E030
8030C010
8038C010
8019C010
80198010
801D8010
800F8010
800F0010
80070010
C0070030
40060020
400E0020
207C0040
307800C0
18000080
08000100
06000600
03000C00
00E07000
003F8000
ENDCHAR
STARTCHAR 24E9
ENCODING 9449
SWIDTH 1000 0
DWIDTH 30 0
BBX 28 30 1 -4
BITMAP
003FC000
00E07000
03000C00
06000600
08000100
10000080
300000C0
20000040
407FE020
407FE020
C000C030
8001C010
80038010
80030010
80070010
800E0010
800C0010
801C0010
80380010
C0300010
407FE020
407FE020
20000040
30000040
10000080
08000100
06000200
03000C00
00E07000
003FC000
ENDCHAR
STARTCHAR 24EA
ENCODING 9450
SWIDTH 1000 0
DWIDTH 30 0
BBX 28 30 1 -4
BITMAP
001FC000
00E07000
03000C00
06000600
08000300
10000180
301F80C0
203FC040
4030C020
40706020
40606030
80606010
80606010
80606010
80606010
80606010
80606010
80606010
80606010
C0606030
40706020
4030C020
203FC040
301F80C0
18000080
0C000100
06000600
03000C00
00E07000
003F8000
ENDCHAR
STARTCHAR 2500
ENCODING 9472
SWIDTH 1000 0
DWIDTH 30 0
BBX 30 1 0 11
BITMAP
FFFFFFFC
ENDCHAR
STARTCHAR 2501
ENCODING 9473
SWIDTH 1000 0
DWIDTH 30 0
BBX 30 4 0 9
BITMAP
FFFFFFFC
FFFFFFFC
FFFFFFFC
FFFFFFFC
ENDCHAR
STARTCHAR 2502
ENCODING 9474
SWIDTH 1000 0
DWIDTH 30 0
BBX 2 30 14 -4
BITMAP
C0
C0
C0
C0
C0
C0
C0
C0
C0
C0
C0
C0
C0
C0
C0
C0
C0
C0
C0
C0
C0
C0
C0
C0
C0
C0
C0
C0
C0
C0
ENDCHAR
STARTCHAR 2503
ENCODING 9475
SWIDTH 1000 0
DWIDTH 30 0
BBX 4 30 13 -4
BITMAP
F0
F0
F0
F0
F0
F0
F0
F0
F0
F0
F0
F0
F0
F0
F0
F0
F0
F0
F0
F0
F0
F0
F0
F0
F0
F0
F0
F0
F0
F0
ENDCHAR
STARTCHAR 2504
ENCODING 9476
SWIDTH 1000 0
DWIDTH 30 0
BBX 29 1 0 11
BITMAP
F7BDEF78
ENDCHAR
STARTCHAR 2505
ENCODING 9477
SWIDTH 1000 0
DWIDTH 30 0
BBX 29 4 0 9
BITMAP
F7BDEF78
F7BDEF78
F7BDEF78
F7BDEF78
ENDCHAR
STARTCHAR 2506
ENCODING 9478
SWIDTH 1000 0
DWIDTH 30 0
BBX 2 29 14 -3
BITMAP
C0
C0
C0
00
00
C0
C0
C0
00
00
C0
C0
C0
00
00
C0
C0
C0
00
00
C0
C0
C0
00
00
00
C0
C0
C0
ENDCHAR
STARTCHAR 2507
ENCODING 9479
SWIDTH 1000 0
DWIDTH 30 0
BBX 4 29 13 -3
BITMAP
F0
F0
F0
00
00
F0
F0
F0
00
00
F0
F0
F0
00
00
F0
F0
F0
00
00
F0
F0
F0
00
00
00
F0
F0
F0
ENDCHAR
STARTCHAR 2508
ENCODING 9480
SWIDTH 1000 0
DWIDTH 30 0
BBX 27 1 0 11
BITMAP
C6318C60
ENDCHAR
STARTCHAR 2509
ENCODING 9481
SWIDTH 1000 0
DWIDTH 30 0
BBX 27 4 0 9
BITMAP
C6318C60
C6318C60
C6318C60
C6318C60
ENDCHAR
STARTCHAR 250A
ENCODING 9482
SWIDTH 1000 0
DWIDTH 30 0
BBX 2 28 14 -2
BITMAP
C0
C0
C0
00
00
C0
C0
00
00
00
C0
C0
C0
00
00
C0
C0
C0
00
00
C0
C0
C0
00
00
00
C0
C0
ENDCHAR
STARTCHAR 250B
ENCODING 9483
SWIDTH 1000 0
DWIDTH 30 0
BBX 4 28 13 -2
BITMAP
F0
F0
F0
00
00
F0
F0
00
00
00
F0
F0
F0
00
00
F0
F0
F0
00
00
F0
F0
F0
00
00
00
F0
F0
ENDCHAR
STARTCHAR 250C
ENCODING 9484
SWIDTH 1000 0
DWIDTH 30 0
BBX 16 16 14 -4
BITMAP
FFFF
C000
C000
C000
C000
C000
C000
C000
C000
C000
C000
C000
C000
C000
C000
C000
ENDCHAR
STARTCHAR 250D
ENCODING 9485
SWIDTH 1000 0
DWIDTH 30 0
BBX 16 17 14 -4
BITMAP
FFFF
FFFF
FFFF
FFFF
C000
C000
C000
C000
C000
C000
C000
C000
C000
C000
C000
C000
C000
ENDCHAR
STARTCHAR 250E
ENCODING 9486
SWIDTH 1000 0
DWIDTH 30 0
BBX 17 16 13 -4
BITMAP
FFFF80
F00000
F00000
F00000
F00000
F00000
F00000
F00000
F00000
F00000
F00000
F00000
F00000
F00000
F00000
F00000
ENDCHAR
STARTCHAR 250F
ENCODING 9487
SWIDTH 1000 0
DWIDTH 30 0
BBX 17 17 13 -4
BITMAP
FFFF80
FFFF80
FFFF80
FFFF80
F00000
F00000
F00000
F00000
F00000
F00000
F00000
F00000
F00000
F00000
F00000
F00000
F00000
ENDCHAR
STARTCHAR 2510
ENCODING 9488
SWIDTH 1000 0
DWIDTH 30 0
BBX 16 16 0 -4
BITMAP
FFFF
0003
0003
0003
0003
0003
0003
0003
0003
0003
0003
0003
0003
0003
0003
0003
ENDCHAR
STARTCHAR 2511
ENCODING 9489
SWIDTH 1000 0
DWIDTH 30 0
BBX 16 17 0 -4
BITMAP
FFFF
FFFF
FFFF
FFFF
0003
0003
0003
0003
0003
0003
0003
0003
0003
0003
0003
0003
0003
ENDCHAR
STARTCHAR 2512
ENCODING 9490
SWIDTH 1000 0
DWIDTH 30 0
BBX 17 16 0 -4
BITMAP
FFFF80
000780
000780
000780
000780
000780
000780
000780
000780
000780
000780
000780
000780
000780
000780
000780
ENDCHAR
STARTCHAR 2513
ENCODING 9491
SWIDTH 1000 0
DWIDTH 30 0
BBX 17 17 0 -4
BITMAP
FFFF80
FFFF80
FFFF80
FFFF80
000780
000780
000780
000780
000780
000780
000780
000780
000780
000780
000780
000780
000780
ENDCHAR
STARTCHAR 2514
ENCODING 9492
SWIDTH 1000 0
DWIDTH 30 0
BBX 16 16 14 11
BITMAP
C000
C000
C000
C000
C000
C000
C000
C000
C000
C000
C000
C000
C000
C000
C000
FFFF
ENDCHAR
STARTCHAR 2515
ENCODING 9493
SWIDTH 1000 0
DWIDTH 30 0
BBX 16 18 14 9
BITMAP
C000
C000
C000
C000
C000
C000
C000
C000
C000
C000
C000
C000
C000
C000
FFFF
FFFF
FFFF
FFFF
ENDCHAR
STARTCHAR 2516
ENCODING 9494
SWIDTH 1000 0
DWIDTH 30 0
BBX 17 16 13 11
BITMAP
F00000
F00000
F00000
F00000
F00000
F00000
F00000
F00000
F00000
F00000
F00000
F00000
F00000
F00000
F00000
FFFF80
ENDCHAR
STARTCHAR 2517
ENCODING 9495
SWIDTH 1000 0
DWIDTH 30 0
BBX 17 18 13 9
BITMAP
F00000
F00000
F00000
F00000
F00000
F00000
F00000
F00000
F00000
F00000
F00000
F00000
F00000
F00000
FFFF80
FFFF80
FFFF80
FFFF80
ENDCHAR
STARTCHAR 2518
ENCODING 9496
SWIDTH 1000 0
DWIDTH 30 0
BBX 16 16 0 11
BITMAP
0003
0003
0003
0003
0003
0003
0003
0003
0003
0003
0003
0003
0003
0003
0003
FFFF
ENDCHAR
STARTCHAR 2519
ENCODING 9497
SWIDTH 1000 0
DWIDTH 30 0
BBX 16 18 0 9
BITMAP
0003
0003
0003
0003
0003
0003
0003
0003
0003
0003
0003
0003
0003
0003
FFFF
FFFF
FFFF
FFFF
ENDCHAR
STARTCHAR 251A
ENCODING 9498
SWIDTH 1000 0
DWIDTH 30 0
BBX 17 16 0 11
BITMAP
000780
000780
000780
000780
000780
000780
000780
000780
000780
000780
000780
000780
000780
000780
000780
FFFF80
ENDCHAR
STARTCHAR 251B
ENCODING 9499
SWIDTH 1000 0
DWIDTH 30 0
BBX 17 18 0 9
BITMAP
000780
000780
000780
000780
000780
000780
000780
000780
000780
000780
000780
000780
000780
000780
FFFF80
FFFF80
FFFF80
FFFF80
ENDCHAR
STARTCHAR 251C
ENCODING 9500
SWIDTH 1000 0
DWIDTH 30 0
BBX 16 31 14 -4
BITMAP
C000
C000
C000
C000
C000
C000
C000
C000
C000
C000
C000
C000
C000
C000
C000
FFFF
C000
C000
C000
C000
C000
C000
C000
C000
C000
C000
C000
C000
C000
C000
C000
ENDCHAR
STARTCHAR 251D
ENCODING 9501
SWIDTH 1000 0
DWIDTH 30 0
BBX 16 31 14 -4
BITMAP
C000
C000
C000
C000
C000
C000
C000
C000
C000
C000
C000
C000
C000
C000
FFFF
FFFF
FFFF
FFFF
C000
C000
C000
C000
C000
C000
C000
C000
C000
C000
C000
C000
C000
ENDCHAR
STARTCHAR 251E
ENCODING 9502
SWIDTH 1000 0
DWIDTH 30 0
BBX 17 31 13 -4
BITMAP
F00000
F00000
F00000
F00000
F00000
F00000
F00000
F00000
F00000
F00000
F00000
F00000
F00000
F00000
F00000
FFFF80
600000
600000
600000
600000
600000
600000
600000
600000
600000
600000
600000
600000
600000
600000
600000
ENDCHAR
STARTCHAR 251F
ENCODING 9503
SWIDTH 1000 0
DWIDTH 30 0
BBX 17 31 13 -4
BITMAP
600000
600000
600000
600000
600000
600000
600000
600000
600000
600000
600000
600000
600000
600000
600000
FFFF80
F00000
F00000
F00000
F00000
F00000
F00000
F00000
F00000
F00000
F00000
F00000
F00000
F00000
F00000
F00000
ENDCHAR
STARTCHAR 2520
ENCODING 9504
SWIDTH 1000 0
DWIDTH 30 0
BBX 17 31 13 -4
BITMAP
F00000
F00000
F00000
F00000
F00000
F00000
F00000
F00000
F00000
F00000
F00000
F00000
F00000
F00000
F00000
FFFF80
F00000
F00000
F00000
F00000
F00000
F00000
F00000
F00000
F00000
F00000
F00000
F00000
F00000
F00000
F00000
ENDCHAR
STARTCHAR 2521
ENCODING 9505
SWIDTH 1000 0
DWIDTH 30 0
BBX 17 31 13 -4
BITMAP
F00000
F00000
F00000
F00000
F00000
F00000
F00000
F00000
F00000
F00000
F00000
F00000
F00000
F00000
FFFF80
FFFF80
FFFF80
FFFF80
600000
600000
600000
600000
600000
600000
600000
600000
600000
600000
600000
600000
600000
ENDCHAR
STARTCHAR 2522
ENCODING 9506
SWIDTH 1000 0
DWIDTH 30 0
BBX 17 31 13 -4
BITMAP
600000
600000
600000
600000
600000
600000
600000
600000
600000
600000
600000
600000
600000
600000
FFFF80
FFFF80
FFFF80
FFFF80
F00000
F00000
F00000
F00000
F00000
F00000
F00000
F00000
F00000
F00000
F00000
F00000
F00000
ENDCHAR
STARTCHAR 2523
ENCODING 9507
SWIDTH 1000 0
DWIDTH 30 0
BBX 17 31 13 -4
BITMAP
F00000
F00000
F00000
F00000
F00000
F00000
F00000
F00000
F00000
F00000
F00000
F00000
F00000
F00000
FFFF80
FFFF80
FFFF80
FFFF80
F00000
F00000
F00000
F00000
F00000
F00000
F00000
F00000
F00000
F00000
F00000
F00000
F00000
ENDCHAR
STARTCHAR 2524
ENCODING 9508
SWIDTH 1000 0
DWIDTH 30 0
BBX 16 31 0 -4
BITMAP
0003
0003
0003
0003
0003
0003
0003
0003
0003
0003
0003
0003
0003
0003
0003
FFFF
0003
0003
0003
0003
0003
0003
0003
0003
0003
0003
0003
0003
0003
0003
0003
ENDCHAR
STARTCHAR 2525
ENCODING 9509
SWIDTH 1000 0
DWIDTH 30 0
BBX 16 31 0 -4
BITMAP
0003
0003
0003
0003
0003
0003
0003
0003
0003
0003
0003
0003
0003
0003
FFFF
FFFF
FFFF
FFFF
0003
0003
0003
0003
0003
0003
0003
0003
0003
0003
0003
0003
0003
ENDCHAR
STARTCHAR 2526
ENCODING 9510
SWIDTH 1000 0
DWIDTH 30 0
BBX 17 31 0 -4
BITMAP
000780
000780
000780
000780
000780
000780
000780
000780
000780
000780
000780
000780
000780
000780
000780
FFFF80
000300
000300
000300
000300
000300
000300
000300
000300
000300
000300
000300
000300
000300
000300
000300
ENDCHAR
STARTCHAR 2527
ENCODING 9511
SWIDTH 1000 0
DWIDTH 30 0
BBX 17 31 0 -4
BITMAP
000300
000300
000300
000300
000300
000300
000300
000300
000300
000300
000300
000300
000300
000300
000300
FFFF80
000780
000780
000780
000780
000780
000780
000780
000780
000780
000780
000780
000780
000780
000780
000780
ENDCHAR
STARTCHAR 2528
ENCODING 9512
SWIDTH 1000 0
DWIDTH 30 0
BBX 17 31 0 -4
BITMAP
000780
000780
000780
000780
000780
000780
000780
000780
000780
000780
000780
000780
000780
000780
000780
FFFF80
000780
000780
000780
000780
000780
000780
000780
000780
000780
000780
000780
000780
000780
000780
000780
ENDCHAR
STARTCHAR 2529
ENCODING 9513
SWIDTH 1000 0
DWIDTH 30 0
BBX 17 31 0 -4
BITMAP
000780
000780
000780
000780
000780
000780
000780
000780
000780
000780
000780
000780
000780
000780
FFFF80
FFFF80
FFFF80
FFFF80
000300
000300
000300
000300
000300
000300
000300
000300
000300
000300
000300
000300
000300
ENDCHAR
STARTCHAR 252A
ENCODING 9514
SWIDTH 1000 0
DWIDTH 30 0
BBX 17 31 0 -4
BITMAP
000300
000300
000300
000300
000300
000300
000300
000300
000300
000300
000300
000300
000300
000300
FFFF80
FFFF80
FFFF80
FFFF80
000780
000780
000780
000780
000780
000780
000780
000780
000780
000780
000780
000780
000780
ENDCHAR
STARTCHAR 252B
ENCODING 9515
SWIDTH 1000 0
DWIDTH 30 0
BBX 17 31 0 -4
BITMAP
000780
000780
000780
000780
000780
000780
000780
000780
000780
000780
000780
000780
000780
000780
FFFF80
FFFF80
FFFF80
FFFF80
000780
000780
000780
000780
000780
000780
000780
000780
000780
000780
000780
000780
000780
ENDCHAR
STARTCHAR 252C
ENCODING 9516
SWIDTH 1000 0
DWIDTH 30 0
BBX 30 16 0 -4
BITMAP
FFFFFFFC
00030000
00030000
00030000
00030000
00030000
00030000
00030000
00030000
00030000
00030000
00030000
00030000
00030000
00030000
00030000
ENDCHAR
STARTCHAR 252D
ENCODING 9517
SWIDTH 1000 0
DWIDTH 30 0
BBX 30 17 0 -4
BITMAP
FFFF0000
FFFFFFFC
FFFF0000
00030000
00030000
00030000
00030000
00030000
00030000
00030000
00030000
00030000
00030000
00030000
00030000
00030000
00030000
ENDCHAR
STARTCHAR 252E
ENCODING 9518
SWIDTH 1000 0
DWIDTH 30 0
BBX 30 17 0 -4
BITMAP
0003FFFC
FFFFFFFC
0003FFFC
00030000
00030000
00030000
00030000
00030000
00030000
00030000
00030000
00030000
00030000
00030000
00030000
00030000
00030000
ENDCHAR
STARTCHAR 252F
ENCODING 9519
SWIDTH 1000 0
DWIDTH 30 0
BBX 30 17 0 -4
BITMAP
FFFFFFFC
FFFFFFFC
FFFFFFFC
FFFFFFFC
00030000
00030000
00030000
00030000
00030000
00030000
00030000
00030000
00030000
00030000
00030000
00030000
00030000
ENDCHAR
STARTCHAR 2530
ENCODING 9520
SWIDTH 1000 0
DWIDTH 30 0
BBX 30 16 0 -4
BITMAP
FFFFFFFC
00078000
00078000
00078000
00078000
00078000
00078000
00078000
00078000
00078000
00078000
00078000
00078000
00078000
00078000
00078000
ENDCHAR
STARTCHAR 2531
ENCODING 9521
SWIDTH 1000 0
DWIDTH 30 0
BBX 30 17 0 -4
BITMAP
FFFF8000
FFFFFFFC
FFFF8000
FFFF8000
00078000
00078000
00078000
00078000
00078000
00078000
00078000
00078000
00078000
00078000
00078000
00078000
00078000
ENDCHAR
STARTCHAR 2532
ENCODING 9522
SWIDTH 1000 0
DWIDTH 30 0
BBX 30 17 0 -4
BITMAP
0007FFFC
FFFFFFFC
0007FFFC
0007FFFC
00078000
00078000
00078000
00078000
00078000
00078000
00078000
00078000
00078000
00078000
00078000
00078000
00078000
ENDCHAR
STARTCHAR 2533
ENCODING 9523
SWIDTH 1000 0
DWIDTH 30 0
BBX 30 17 0 -4
BITMAP
FFFFFFFC
FFFFFFFC
FFFFFFFC
FFFFFFFC
00078000
00078000
00078000
00078000
00078000
00078000
00078000
00078000
00078000
00078000
00078000
00078000
00078000
ENDCHAR
STARTCHAR 2534
ENCODING 9524
SWIDTH 1000 0
DWIDTH 30 0
BBX 30 16 0 11
BITMAP
00030000
00030000
00030000
00030000
00030000
00030000
00030000
00030000
00030000
00030000
00030000
00030000
00030000
00030000
00030000
FFFFFFFC
ENDCHAR
STARTCHAR 2535
ENCODING 9525
SWIDTH 1000 0
DWIDTH 30 0
BBX 30 17 0 10
BITMAP
00030000
00030000
00030000
00030000
00030000
00030000
00030000
00030000
00030000
00030000
00030000
00030000
00030000
00030000
FFFF0000
FFFFFFFC
FFFF0000
ENDCHAR
STARTCHAR 2536
ENCODING 9526
SWIDTH 1000 0
DWIDTH 30 0
BBX 30 17 0 10
BITMAP
00030000
00030000
00030000
00030000
00030000
00030000
00030000
00030000
00030000
00030000
00030000
00030000
00030000
00030000
0003FFFC
FFFFFFFC
0003FFFC
ENDCHAR
STARTCHAR 2537
ENCODING 9527
SWIDTH 1000 0
DWIDTH 30 0
BBX 30 18 0 9
BITMAP
00030000
00030000
00030000
00030000
00030000
00030000
00030000
00030000
00030000
00030000
00030000
00030000
00030000
00030000
FFFFFFFC
FFFFFFFC
FFFFFFFC
FFFFFFFC
ENDCHAR
STARTCHAR 2538
ENCODING 9528
SWIDTH 1000 0
DWIDTH 30 0
BBX 30 16 0 11
BITMAP
00078000
00078000
00078000
00078000
00078000
00078000
00078000
00078000
00078000
00078000
00078000
00078000
00078000
00078000
00078000
FFFFFFFC
ENDCHAR
STARTCHAR 2539
ENCODING 9529
SWIDTH 1000 0
DWIDTH 30 0
BBX 30 18 0 9
BITMAP
00078000
00078000
00078000
00078000
00078000
00078000
00078000
00078000
00078000
00078000
00078000
00078000
00078000
00078000
FFFF8000
FFFFFFFC
FFFF8000
FFFF8000
ENDCHAR
STARTCHAR 253A
ENCODING 9530
SWIDTH 1000 0
DWIDTH 30 0
BBX 30 18 0 9
BITMAP
00078000
00078000
00078000
00078000
00078000
00078000
00078000
00078000
00078000
00078000
00078000
00078000
00078000
00078000
0007FFFC
FFFFFFFC
0007FFFC
0007FFFC
ENDCHAR
STARTCHAR 253B
ENCODING 9531
SWIDTH 1000 0
DWIDTH 30 0
BBX 30 18 0 9
BITMAP
00078000
00078000
00078000
00078000
00078000
00078000
00078000
00078000
00078000
00078000
00078000
00078000
00078000
00078000
FFFFFFFC
FFFFFFFC
FFFFFFFC
FFFFFFFC
ENDCHAR
STARTCHAR 253C
ENCODING 9532
SWIDTH 1000 0
DWIDTH 30 0
BBX 30 31 0 -4
BITMAP
00030000
00030000
00030000
00030000
00030000
00030000
00030000
00030000
00030000
00030000
00030000
00030000
00030000
00030000
00030000
FFFFFFFC
00030000
00030000
00030000
00030000
00030000
00030000
00030000
00030000
00030000
00030000
00030000
00030000
00030000
00030000
00030000
ENDCHAR
STARTCHAR 253D
ENCODING 9533
SWIDTH 1000 0
DWIDTH 30 0
BBX 30 31 0 -4
BITMAP
00030000
00030000
00030000
00030000
00030000
00030000
00030000
00030000
00030000
00030000
00030000
00030000
00030000
00030000
FFFF0000
FFFFFFFC
FFFF0000
00030000
00030000
00030000
00030000
00030000
00030000
00030000
00030000
00030000
00030000
00030000
00030000
00030000
00030000
ENDCHAR
STARTCHAR 253E
ENCODING 9534
SWIDTH 1000 0
DWIDTH 30 0
BBX 30 31 0 -4
BITMAP
00030000
00030000
00030000
00030000
00030000
00030000
00030000
00030000
00030000
00030000
00030000
00030000
00030000
00030000
0003FFFC
FFFFFFFC
0003FFFC
00030000
00030000
00030000
00030000
00030000
00030000
00030000
00030000
00030000
00030000
00030000
00030000
00030000
00030000
ENDCHAR
STARTCHAR 253F
ENCODING 9535
SWIDTH 1000 0
DWIDTH 30 0
BBX 30 31 0 -4
BITMAP
00030000
00030000
00030000
00030000
00030000
00030000
00030000
00030000
00030000
00030000
00030000
00030000
00030000
00030000
FFFFFFFC
FFFFFFFC
FFFFFFFC
FFFFFFFC
00030000
00030000
00030000
00030000
00030000
00030000
00030000
00030000
00030000
00030000
00030000
00030000
00030000
ENDCHAR
STARTCHAR 2540
ENCODING 9536
SWIDTH 1000 0
DWIDTH 30 0
BBX 30 31 0 -4
BITMAP
00078000
00078000
00078000
00078000
00078000
00078000
00078000
00078000
00078000
00078000
00078000
00078000
00078000
00078000
00078000
FFFFFFFC
00030000
00030000
00030000
00030000
00030000
00030000
00030000
00030000
00030000
00030000
00030000
00030000
00030000
00030000
00030000
ENDCHAR
STARTCHAR 2541
ENCODING 9537
SWIDTH 1000 0
DWIDTH 30 0
BBX 30 31 0 -4
BITMAP
00030000
00030000
00030000
00030000
00030000
00030000
00030000
00030000
00030000
00030000
00030000
00030000
00030000
00030000
00030000
FFFFFFFC
00078000
00078000
00078000
00078000
00078000
00078000
00078000
00078000
00078000
00078000
00078000
00078000
00078000
00078000
00078000
ENDCHAR
STARTCHAR 2542
ENCODING 9538
SWIDTH 1000 0
DWIDTH 30 0
BBX 30 31 0 -4
BITMAP
00078000
00078000
00078000
00078000
00078000
00078000
00078000
00078000
00078000
00078000
00078000
00078000
00078000
00078000
00078000
FFFFFFFC
00078000
00078000
00078000
00078000
00078000
00078000
00078000
00078000
00078000
00078000
00078000
00078000
00078000
00078000
00078000
ENDCHAR
STARTCHAR 2543
ENCODING 9539
SWIDTH 1000 0
DWIDTH 30 0
BBX 30 31 0 -4
BITMAP
00078000
00078000
00078000
00078000
00078000
00078000
00078000
00078000
00078000
00078000
00078000
00078000
00078000
00078000
FFFF8000
FFFFFFFC
FFFF8000
FFFF8000
00030000
00030000
00030000
00030000
00030000
00030000
00030000
00030000
00030000
00030000
00030000
00030000
00030000
ENDCHAR
STARTCHAR 2544
ENCODING 9540
SWIDTH 1000 0
DWIDTH 30 0
BBX 30 31 0 -4
BITMAP
00078000
00078000
00078000
00078000
00078000
00078000
00078000
00078000
00078000
00078000
00078000
00078000
00078000
00078000
0007FFFC
FFFFFFFC
0007FFFC
0007FFFC
00030000
00030000
00030000
00030000
00030000
00030000
00030000
00030000
00030000
00030000
00030000
00030000
00030000
ENDCHAR
STARTCHAR 2545
ENCODING 9541
SWIDTH 1000 0
DWIDTH 30 0
BBX 30 31 0 -4
BITMAP
00030000
00030000
00030000
00030000
00030000
00030000
00030000
00030000
00030000
00030000
00030000
00030000
00030000
00030000
FFFF8000
FFFFFFFC
FFFF8000
FFFF8000
00078000
00078000
00078000
00078000
00078000
00078000
00078000
00078000
00078000
00078000
00078000
00078000
00078000
ENDCHAR
STARTCHAR 2546
ENCODING 9542
SWIDTH 1000 0
DWIDTH 30 0
BBX 30 31 0 -4
BITMAP
00030000
00030000
00030000
00030000
00030000
00030000
00030000
00030000
00030000
00030000
00030000
00030000
00030000
00030000
0007FFFC
FFFFFFFC
0007FFFC
0007FFFC
00078000
00078000
00078000
00078000
00078000
00078000
00078000
00078000
00078000
00078000
00078000
00078000
00078000
ENDCHAR
STARTCHAR 2547
ENCODING 9543
SWIDTH 1000 0
DWIDTH 30 0
BBX 30 31 0 -4
BITMAP
00078000
00078000
00078000
00078000
00078000
00078000
00078000
00078000
00078000
00078000
00078000
00078000
00078000
00078000
FFFFFFFC
FFFFFFFC
FFFFFFFC
FFFFFFFC
00030000
00030000
00030000
00030000
00030000
00030000
00030000
00030000
00030000
00030000
00030000
00030000
00030000
ENDCHAR
STARTCHAR 2548
ENCODING 9544
SWIDTH 1000 0
DWIDTH 30 0
BBX 30 31 0 -4
BITMAP
00030000
00030000
00030000
00030000
00030000
00030000
00030000
00030000
00030000
00030000
00030000
00030000
00030000
00030000
FFFFFFFC
FFFFFFFC
FFFFFFFC
FFFFFFFC
00078000
00078000
00078000
00078000
00078000
00078000
00078000
00078000
00078000
00078000
00078000
00078000
00078000
ENDCHAR
STARTCHAR 2549
ENCODING 9545
SWIDTH 1000 0
DWIDTH 30 0
BBX 30 31 0 -4
BITMAP
00078000
00078000
00078000
00078000
00078000
00078000
00078000
00078000
00078000
00078000
00078000
00078000
00078000
00078000
FFFF8000
FFFFFFFC
FFFF8000
FFFF8000
00078000
00078000
00078000
00078000
00078000
00078000
00078000
00078000
00078000
00078000
00078000
00078000
00078000
ENDCHAR
STARTCHAR 254A
ENCODING 9546
SWIDTH 1000 0
DWIDTH 30 0
BBX 30 31 0 -4
BITMAP
00078000
00078000
00078000
00078000
00078000
00078000
00078000
00078000
00078000
00078000
00078000
00078000
00078000
00078000
0007FFFC
FFFFFFFC
0007FFFC
0007FFFC
00078000
00078000
00078000
00078000
00078000
00078000
00078000
00078000
00078000
00078000
00078000
00078000
00078000
ENDCHAR
STARTCHAR 254B
ENCODING 9547
SWIDTH 1000 0
DWIDTH 30 0
BBX 30 31 0 -4
BITMAP
00078000
00078000
00078000
00078000
00078000
00078000
00078000
00078000
00078000
00078000
00078000
00078000
00078000
00078000
FFFFFFFC
FFFFFFFC
FFFFFFFC
FFFFFFFC
00078000
00078000
00078000
00078000
00078000
00078000
00078000
00078000
00078000
00078000
00078000
00078000
00078000
ENDCHAR
STARTCHAR 2550
ENCODING 9552
SWIDTH 1000 0
DWIDTH 30 0
BBX 30 14 0 4
BITMAP
FFFFFFFC
FFFFFFFC
FFFFFFFC
FFFFFFFC
00000000
00000000
00000000
00000000
00000000
00000000
FFFFFFFC
FFFFFFFC
FFFFFFFC
FFFFFFFC
ENDCHAR
STARTCHAR 255E
ENCODING 9566
SWIDTH 1000 0
DWIDTH 30 0
BBX 17 31 13 -4
BITMAP
F00000
F00000
F00000
F00000
F00000
F00000
F00000
F00000
F00000
FFFF80
FFFF80
FFFF80
FFFF80
F00000
F00000
F00000
F00000
F00000
F00000
FFFF80
FFFF80
FFFF80
FFFF80
F00000
F00000
F00000
F00000
F00000
F00000
F00000
F00000
ENDCHAR
STARTCHAR 2561
ENCODING 9569
SWIDTH 1000 0
DWIDTH 30 0
BBX 17 31 0 -4
BITMAP
000780
000780
000780
000780
000780
000780
000780
000780
000780
FFFF80
FFFF80
FFFF80
FFFF80
000780
000780
000780
000780
000780
000780
FFFF80
FFFF80
FFFF80
FFFF80
000780
000780
000780
000780
000780
000780
000780
000780
ENDCHAR
STARTCHAR 256A
ENCODING 9578
SWIDTH 1000 0
DWIDTH 30 0
BBX 30 31 0 -4
BITMAP
00078000
00078000
00078000
00078000
00078000
00078000
00078000
00078000
00078000
FFFFFFFC
FFFFFFFC
FFFFFFFC
FFFFFFFC
00078000
00078000
00078000
00078000
00078000
00078000
FFFFFFFC
FFFFFFFC
FFFFFFFC
FFFFFFFC
00078000
00078000
00078000
00078000
00078000
00078000
00078000
00078000
ENDCHAR
STARTCHAR 256D
ENCODING 9581
SWIDTH 1000 0
DWIDTH 30 0
BBX 17 17 13 -4
BITMAP
000780
003F80
00FF80
01FF80
03F800
07E000
0F8000
1F0000
1E0000
3C0000
3C0000
780000
780000
700000
F00000
F00000
F00000
ENDCHAR
STARTCHAR 256E
ENCODING 9582
SWIDTH 1000 0
DWIDTH 30 0
BBX 17 17 0 -4
BITMAP
F00000
FE0000
FF8000
FFC000
0FE000
03F000
00F800
007C00
003E00
001E00
001E00
000F00
000F00
000700
000780
000780
000780
ENDCHAR
STARTCHAR 256F
ENCODING 9583
SWIDTH 1000 0
DWIDTH 30 0
BBX 17 18 0 9
BITMAP
000780
000780
000780
000780
000700
000F00
000F00
001E00
001E00
003C00
007C00
00F800
03F000
0FE000
FFC000
FF0000
FC0000
C00000
ENDCHAR
STARTCHAR 2570
ENCODING 9584
SWIDTH 1000 0
DWIDTH 30 0
BBX 17 18 13 9
BITMAP
F00000
F00000
F00000
F00000
700000
780000
780000
3C0000
3C0000
1E0000
1F0000
0F8000
07E000
03FC00
01FF80
007F80
001F80
000180
ENDCHAR
STARTCHAR 2571
ENCODING 9585
SWIDTH 1000 0
DWIDTH 30 0
BBX 26 27 2 -3
BITMAP
00000040
000000C0
00000180
00000300
00000600
00000C00
00001800
00003000
00006000
0000C000
00018000
00030000
00060000
000C0000
00180000
00300000
00600000
00C00000
01800000
03000000
06000000
0C000000
18000000
30000000
60000000
C0000000
80000000
ENDCHAR
STARTCHAR 2572
ENCODING 9586
SWIDTH 1000 0
DWIDTH 30 0
BBX 26 27 2 -3
BITMAP
80000000
C0000000
60000000
30000000
18000000
0C000000
06000000
03000000
01800000
00C00000
00600000
00300000
00180000
000C0000
00060000
00030000
00018000
0000C000
00006000
00003000
00001800
00000C00
00000600
00000300
00000180
000000C0
00000040
ENDCHAR
STARTCHAR 2573
ENCODING 9587
SWIDTH 1000 0
DWIDTH 30 0
BBX 18 19 6 1
BITMAP
800040
C000C0
600180
300300
180600
0C0C00
061800
033000
01E000
00C000
01E000
033000
061800
0C0C00
180600
300300
600180
C000C0
800040
ENDCHAR
STARTCHAR 2581
ENCODING 9601
SWIDTH 1000 0
DWIDTH 30 0
BBX 30 4 0 -4
BITMAP
FFFFFFFC
FFFFFFFC
FFFFFFFC
FFFFFFFC
ENDCHAR
STARTCHAR 2582
ENCODING 9602
SWIDTH 1000 0
DWIDTH 30 0
BBX 30 7 0 -4
BITMAP
FFFFFFFC
FFFFFFFC
FFFFFFFC
FFFFFFFC
FFFFFFFC
FFFFFFFC
FFFFFFFC
ENDCHAR
STARTCHAR 2583
ENCODING 9603
SWIDTH 1000 0
DWIDTH 30 0
BBX 30 11 0 -4
BITMAP
FFFFFFFC
FFFFFFFC
FFFFFFFC
FFFFFFFC
FFFFFFFC
FFFFFFFC
FFFFFFFC
FFFFFFFC
FFFFFFFC
FFFFFFFC
FFFFFFFC
ENDCHAR
STARTCHAR 2584
ENCODING 9604
SWIDTH 1000 0
DWIDTH 30 0
BBX 30 15 0 -4
BITMAP
FFFFFFFC
FFFFFFFC
FFFFFFFC
FFFFFFFC
FFFFFFFC
FFFFFFFC
FFFFFFFC
FFFFFFFC
FFFFFFFC
FFFFFFFC
FFFFFFFC
FFFFFFFC
FFFFFFFC
FFFFFFFC
FFFFFFFC
ENDCHAR
STARTCHAR 2585
ENCODING 9605
SWIDTH 1000 0
DWIDTH 30 0
BBX 30 19 0 -4
BITMAP
FFFFFFFC
FFFFFFFC
FFFFFFFC
FFFFFFFC
FFFFFFFC
FFFFFFFC
FFFFFFFC
FFFFFFFC
FFFFFFFC
FFFFFFFC
FFFFFFFC
FFFFFFFC
FFFFFFFC
FFFFFFFC
FFFFFFFC
FFFFFFFC
FFFFFFFC
FFFFFFFC
FFFFFFFC
ENDCHAR
STARTCHAR 2586
ENCODING 9606
SWIDTH 1000 0
DWIDTH 30 0
BBX 30 22 0 -4
BITMAP
FFFFFFFC
FFFFFFFC
FFFFFFFC
FFFFFFFC
FFFFFFFC
FFFFFFFC
FFFFFFFC
FFFFFFFC
FFFFFFFC
FFFFFFFC
FFFFFFFC
FFFFFFFC
FFFFFFFC
FFFFFFFC
FFFFFFFC
FFFFFFFC
FFFFFFFC
FFFFFFFC
FFFFFFFC
FFFFFFFC
FFFFFFFC
FFFFFFFC
ENDCHAR
STARTCHAR 2587
ENCODING 9607
SWIDTH 1000 0
DWIDTH 30 0
BBX 30 26 0 -4
BITMAP
FFFFFFFC
FFFFFFFC
FFFFFFFC
FFFFFFFC
FFFFFFFC
FFFFFFFC
FFFFFFFC
FFFFFFFC
FFFFFFFC
FFFFFFFC
FFFFFFFC
FFFFFFFC
FFFFFFFC
FFFFFFFC
FFFFFFFC
FFFFFFFC
FFFFFFFC
FFFFFFFC
FFFFFFFC
FFFFFFFC
FFFFFFFC
FFFFFFFC
FFFFFFFC
FFFFFFFC
FFFFFFFC
FFFFFFFC
ENDCHAR
STARTCHAR 2588
ENCODING 9608
SWIDTH 1000 0
DWIDTH 30 0
BBX 30 30 0 -4
BITMAP
FFFFFFFC
FFFFFFFC
FFFFFFFC
FFFFFFFC
FFFFFFFC
FFFFFFFC
FFFFFFFC
FFFFFFFC
FFFFFFFC
FFFFFFFC
FFFFFFFC
FFFFFFFC
FFFFFFFC
FFFFFFFC
FFFFFFFC
FFFFFFFC
FFFFFFFC
FFFFFFFC
FFFFFFFC
FFFFFFFC
FFFFFFFC
FFFFFFFC
FFFFFFFC
FFFFFFFC
FFFFFFFC
FFFFFFFC
FFFFFFFC
FFFFFFFC
FFFFFFFC
FFFFFFFC
ENDCHAR
STARTCHAR 2589
ENCODING 9609
SWIDTH 1000 0
DWIDTH 30 0
BBX 26 30 0 -4
BITMAP
FFFFFFC0
FFFFFFC0
FFFFFFC0
FFFFFFC0
FFFFFFC0
FFFFFFC0
FFFFFFC0
FFFFFFC0
FFFFFFC0
FFFFFFC0
FFFFFFC0
FFFFFFC0
FFFFFFC0
FFFFFFC0
FFFFFFC0
FFFFFFC0
FFFFFFC0
FFFFFFC0
FFFFFFC0
FFFFFFC0
FFFFFFC0
FFFFFFC0
FFFFFFC0
FFFFFFC0
FFFFFFC0
FFFFFFC0
FFFFFFC0
FFFFFFC0
FFFFFFC0
FFFFFFC0
ENDCHAR
STARTCHAR 258A
ENCODING 9610
SWIDTH 1000 0
DWIDTH 30 0
BBX 22 30 0 -4
BITMAP
FFFFFC
FFFFFC
FFFFFC
FFFFFC
FFFFFC
FFFFFC
FFFFFC
FFFFFC
FFFFFC
FFFFFC
FFFFFC
FFFFFC
FFFFFC
FFFFFC
FFFFFC
FFFFFC
FFFFFC
FFFFFC
FFFFFC
FFFFFC
FFFFFC
FFFFFC
FFFFFC
FFFFFC
FFFFFC
FFFFFC
FFFFFC
FFFFFC
FFFFFC
FFFFFC
ENDCHAR
STARTCHAR 258B
ENCODING 9611
SWIDTH 1000 0
DWIDTH 30 0
BBX 19 30 0 -4
BITMAP
FFFFE0
FFFFE0
FFFFE0
FFFFE0
FFFFE0
FFFFE0
FFFFE0
FFFFE0
FFFFE0
FFFFE0
FFFFE0
FFFFE0
FFFFE0
FFFFE0
FFFFE0
FFFFE0
FFFFE0
FFFFE0
FFFFE0
FFFFE0
FFFFE0
FFFFE0
FFFFE0
FFFFE0
FFFFE0
FFFFE0
FFFFE0
FFFFE0
FFFFE0
FFFFE0
ENDCHAR
STARTCHAR 258C
ENCODING 9612
SWIDTH 1000 0
DWIDTH 30 0
BBX 15 30 0 -4
BITMAP
FFFE
FFFE
FFFE
FFFE
FFFE
FFFE
FFFE
FFFE
FFFE
FFFE
FFFE
FFFE
FFFE
FFFE
FFFE
FFFE
FFFE
FFFE
FFFE
FFFE
FFFE
FFFE
FFFE
FFFE
FFFE
FFFE
FFFE
FFFE
FFFE
FFFE
ENDCHAR
STARTCHAR 258D
ENCODING 9613
SWIDTH 1000 0
DWIDTH 30 0
BBX 11 30 0 -4
BITMAP
FFE0
FFE0
FFE0
FFE0
FFE0
FFE0
FFE0
FFE0
FFE0
FFE0
FFE0
FFE0
FFE0
FFE0
FFE0
FFE0
FFE0
FFE0
FFE0
FFE0
FFE0
FFE0
FFE0
FFE0
FFE0
FFE0
FFE0
FFE0
FFE0
FFE0
ENDCHAR
STARTCHAR 258E
ENCODING 9614
SWIDTH 1000 0
DWIDTH 30 0
BBX 7 30 0 -4
BITMAP
FE
FE
FE
FE
FE
FE
FE
FE
FE
FE
FE
FE
FE
FE
FE
FE
FE
FE
FE
FE
FE
FE
FE
FE
FE
FE
FE
FE
FE
FE
ENDCHAR
STARTCHAR 258F
ENCODING 9615
SWIDTH 1000 0
DWIDTH 30 0
BBX 4 30 0 -4
BITMAP
F0
F0
F0
F0
F0
F0
F0
F0
F0
F0
F0
F0
F0
F0
F0
F0
F0
F0
F0
F0
F0
F0
F0
F0
F0
F0
F0
F0
F0
F0
ENDCHAR
STARTCHAR 2594
ENCODING 9620
SWIDTH 1000 0
DWIDTH 30 0
BBX 30 4 0 22
BITMAP
FFFFFFFC
FFFFFFFC
FFFFFFFC
FFFFFFFC
ENDCHAR
STARTCHAR 2595
ENCODING 9621
SWIDTH 1000 0
DWIDTH 30 0
BBX 4 30 26 -4
BITMAP
F0
F0
F0
F0
F0
F0
F0
F0
F0
F0
F0
F0
F0
F0
F0
F0
F0
F0
F0
F0
F0
F0
F0
F0
F0
F0
F0
F0
F0
F0
ENDCHAR
STARTCHAR 25A0
ENCODING 9632
SWIDTH 1000 0
DWIDTH 30 0
BBX 26 26 2 -2
BITMAP
FFFFFFC0
FFFFFFC0
FFFFFFC0
FFFFFFC0
FFFFFFC0
FFFFFFC0
FFFFFFC0
FFFFFFC0
FFFFFFC0
FFFFFFC0
FFFFFFC0
FFFFFFC0
FFFFFFC0
FFFFFFC0
FFFFFFC0
FFFFFFC0
FFFFFFC0
FFFFFFC0
FFFFFFC0
FFFFFFC0
FFFFFFC0
FFFFFFC0
FFFFFFC0
FFFFFFC0
FFFFFFC0
FFFFFFC0
ENDCHAR
STARTCHAR 25A1
ENCODING 9633
SWIDTH 1000 0
DWIDTH 30 0
BBX 26 26 2 -2
BITMAP
FFFFFFC0
80000040
80000040
80000040
80000040
80000040
80000040
80000040
80000040
80000040
80000040
80000040
80000040
80000040
80000040
80000040
80000040
80000040
80000040
80000040
80000040
80000040
80000040
80000040
80000040
FFFFFFC0
ENDCHAR
STARTCHAR 25A2
ENCODING 9634
SWIDTH 1000 0
DWIDTH 30 0
BBX 26 26 2 -2
BITMAP
7FFFFF80
80000040
80000040
80000040
80000040
80000040
80000040
80000040
80000040
80000040
80000040
80000040
80000040
80000040
80000040
80000040
80000040
80000040
80000040
80000040
80000040
80000040
80000040
80000040
80000040
7FFFFF80
ENDCHAR
STARTCHAR 25AA
ENCODING 9642
SWIDTH 1000 0
DWIDTH 30 0
BBX 8 8 11 7
BITMAP
FF
FF
FF
FF
FF
FF
FF
FF
ENDCHAR
STARTCHAR 25AB
ENCODING 9643
SWIDTH 1000 0
DWIDTH 30 0
BBX 8 8 11 7
BITMAP
FF
81
81
81
81
81
81
FF
ENDCHAR
STARTCHAR 25B2
ENCODING 9650
SWIDTH 1000 0
DWIDTH 30 0
BBX 26 18 2 3
BITMAP
000C0000
000C0000
001E0000
003F0000
007F8000
007F8000
00FFC000
01FFE000
03FFF000
03FFF000
07FFF800
0FFFFC00
1FFFFE00
1FFFFE00
3FFFFF00
7FFFFF80
FFFFFFC0
FFFFFFC0
ENDCHAR
STARTCHAR 25B3
ENCODING 9651
SWIDTH 1000 0
DWIDTH 30 0
BBX 26 18 2 4
BITMAP
000C0000
001E0000
00120000
00210000
00418000
00C0C000
00804000
01002000
03003000
02001000
04000800
08000400
18000600
10000200
20000100
60000180
C00000C0
FFFFFFC0
ENDCHAR
STARTCHAR 25B6
ENCODING 9654
SWIDTH 1000 0
DWIDTH 30 0
BBX 18 27 7 -2
BITMAP
800000
C00000
E00000
F80000
FC0000
FE0000
FF8000
FFC000
FFE000
FFF800
FFFC00
FFFE00
FFFF80
FFFFC0
FFFF80
FFFF00
FFFE00
FFF800
FFF000
FFE000
FF8000
FF0000
FE0000
F80000
F00000
E00000
800000
ENDCHAR
STARTCHAR 25B7
ENCODING 9655
SWIDTH 1000 0
DWIDTH 30 0
BBX 18 27 7 -2
BITMAP
800000
C00000
E00000
980000
8C0000
820000
818000
80C000
802000
801800
800C00
800200
800180
8000C0
800080
800300
800600
800800
803000
806000
818000
830000
860000
980000
B00000
E00000
800000
ENDCHAR
STARTCHAR 25BC
ENCODING 9660
SWIDTH 1000 0
DWIDTH 30 0
BBX 26 18 2 1
BITMAP
FFFFFFC0
FFFFFFC0
7FFFFF80
3FFFFF00
1FFFFE00
1FFFFE00
0FFFFC00
07FFF800
03FFF000
03FFF000
01FFE000
00FFC000
007F8000
007F8000
003F0000
001E0000
000C0000
000C0000
ENDCHAR
STARTCHAR 25BD
ENCODING 9661
SWIDTH 1000 0
DWIDTH 30 0
BBX 26 18 2 0
BITMAP
FFFFFFC0
C00000C0
60000180
20000100
10000200
18000600
08000400
04000800
06001000
03003000
01002000
00804000
00C0C000
00618000
00210000
00120000
001E0000
000C0000
ENDCHAR
STARTCHAR 25C0
ENCODING 9664
SWIDTH 1000 0
DWIDTH 30 0
BBX 18 27 5 -2
BITMAP
000040
0000C0
0001C0
0007C0
000FC0
001FC0
007FC0
00FFC0
01FFC0
07FFC0
0FFFC0
1FFFC0
7FFFC0
FFFFC0
7FFFC0
3FFFC0
1FFFC0
07FFC0
03FFC0
01FFC0
007FC0
003FC0
001FC0
0007C0
0003C0
0001C0
000040
ENDCHAR
STARTCHAR 25C1
ENCODING 9665
SWIDTH 1000 0
DWIDTH 30 0
BBX 18 27 5 -2
BITMAP
000040
0000C0
000140
000640
000C40
001040
006040
00C040
010040
060040
0C0040
100040
600040
C00040
400040
300040
180040
040040
030040
018040
006040
003040
001840
000640
000340
0001C0
000040
ENDCHAR
STARTCHAR 25C6
ENCODING 9670
SWIDTH 1000 0
DWIDTH 30 0
BBX 29 29 0 -3
BITMAP
00020000
00070000
000F8000
001FC000
003FE000
007FF000
00FFF800
01FFFC00
03FFFE00
07FFFF00
0FFFFF80
1FFFFFC0
3FFFFFE0
7FFFFFF0
FFFFFFF8
7FFFFFF8
3FFFFFF0
1FFFFFE0
0FFFFFC0
07FFFF80
03FFFF00
01FFFE00
00FFFC00
007FF800
003FF000
001FE000
000FC000
00078000
00030000
ENDCHAR
STARTCHAR 25C7
ENCODING 9671
SWIDTH 1000 0
DWIDTH 30 0
BBX 29 29 0 -3
BITMAP
00020000
00070000
000C8000
00184000
00302000
00601000
00C00800
01800400
03000200
06000100
0C000080
18000040
30000020
60000010
C0000008
60000018
30000030
18000060
0C0000C0
06000180
03000300
01800600
00C00C00
00601800
00303000
00186000
000CC000
00078000
00030000
ENDCHAR
STARTCHAR 25C9
ENCODING 9673
SWIDTH 1000 0
DWIDTH 30 0
BBX 26 28 2 -3
BITMAP
003F8000
01E1E000
07003800
0C000C00
18000600
307F8300
20FFE100
63FFF180
43FFF080
C7FFF8C0
87FFF840
8FFFFC40
8FFFFC40
8FFFFC40
8FFFFC40
8FFFFC40
8FFFFC40
C7FFF840
C7FFF8C0
43FFF080
63FFF180
21FFE100
307F8300
18000600
0C000C00
07003800
01E1E000
007F0000
ENDCHAR
STARTCHAR 25CB
ENCODING 9675
SWIDTH 1000 0
DWIDTH 30 0
BBX 26 28 2 -3
BITMAP
003F8000
01C0E000
06003800
0C000C00
18000600
30000300
20000100
40000080
40000080
C00000C0
80000040
80000040
80000040
80000040
80000040
80000040
80000040
80000040
C0000040
40000080
60000080
20000100
30000300
18000600
0C000C00
07001800
01C0E000
007F0000
ENDCHAR
STARTCHAR 25CC
ENCODING 9676
SWIDTH 1000 0
DWIDTH 30 0
BBX 28 30 1 -4
BITMAP
00368000
00805000
01000800
04000200
00000000
10000080
20000040
00000000
40000020
00000000
00000000
80000010
00000010
00000000
80000010
00000000
00000000
80000000
80000010
00000000
00000000
40000020
00000000
20000040
10000080
00000000
04000200
00000800
01801000
0036C000
ENDCHAR
STARTCHAR 25CE
ENCODING 9678
SWIDTH 1000 0
DWIDTH 30 0
BBX 26 28 2 -3
BITMAP
003F0000
01C0E000
03003000
0C000C00
18000600
103F0300
20C0C100
61002180
42001080
440008C0
8C000C40
88000440
88000440
88000440
88000440
88000440
88000440
8C000C40
C40008C0
42001080
61002180
20C0C100
103F0200
18000600
0C000C00
03003000
01C0E000
003F0000
ENDCHAR
STARTCHAR 25CF
ENCODING 9679
SWIDTH 1000 0
DWIDTH 30 0
BBX 26 27 2 -2
BITMAP
000C0000
00FFC000
03FFF000
0FFFFC00
1FFFFE00
1FFFFF00
3FFFFF00
7FFFFF80
7FFFFF80
FFFFFFC0
FFFFFFC0
FFFFFFC0
FFFFFFC0
FFFFFFC0
FFFFFFC0
FFFFFFC0
FFFFFFC0
FFFFFFC0
7FFFFF80
7FFFFF80
3FFFFF00
3FFFFF00
1FFFFE00
0FFFFC00
07FFF800
01FFE000
007F8000
ENDCHAR
STARTCHAR 25E2
ENCODING 9698
SWIDTH 1000 0
DWIDTH 30 0
BBX 30 30 0 -4
BITMAP
00000004
0000000C
0000001C
0000003C
0000007C
000000FC
000001FC
000003FC
000007FC
00000FFC
00001FFC
00003FFC
00007FFC
0000FFFC
0001FFFC
0003FFFC
0007FFFC
000FFFFC
001FFFFC
003FFFFC
007FFFFC
00FFFFFC
01FFFFFC
03FFFFFC
07FFFFFC
0FFFFFFC
1FFFFFFC
3FFFFFFC
7FFFFFFC
FFFFFFFC
ENDCHAR
STARTCHAR 25E3
ENCODING 9699
SWIDTH 1000 0
DWIDTH 30 0
BBX 29 30 0 -4
BITMAP
80000000
C0000000
E0000000
F0000000
F8000000
FC000000
FE000000
FF000000
FF800000
FFC00000
FFE00000
FFF00000
FFF80000
FFFC0000
FFFE0000
FFFF0000
FFFF8000
FFFFC000
FFFFE000
FFFFF000
FFFFF800
FFFFFC00
FFFFFE00
FFFFFF00
FFFFFF80
FFFFFFC0
FFFFFFE0
FFFFFFF0
FFFFFFF8
FFFFFFF8
ENDCHAR
STARTCHAR 25E4
ENCODING 9700
SWIDTH 1000 0
DWIDTH 30 0
BBX 30 30 0 -4
BITMAP
FFFFFFFC
FFFFFFF0
FFFFFFE0
FFFFFFC0
FFFFFF80
FFFFFF00
FFFFFE00
FFFFFC00
FFFFF800
FFFFF000
FFFFE000
FFFFC000
FFFF8000
FFFF0000
FFFE0000
FFFC0000
FFF80000
FFF00000
FFE00000
FFC00000
FF800000
FF000000
FE000000
FC000000
F8000000
F0000000
E0000000
C0000000
80000000
80000000
ENDCHAR
STARTCHAR 25E5
ENCODING 9701
SWIDTH 1000 0
DWIDTH 30 0
BBX 30 30 0 -4
BITMAP
FFFFFFFC
7FFFFFFC
3FFFFFFC
1FFFFFFC
0FFFFFFC
07FFFFFC
03FFFFFC
01FFFFFC
00FFFFFC
007FFFFC
003FFFFC
001FFFFC
000FFFFC
0007FFFC
0003FFFC
0001FFFC
0000FFFC
00007FFC
00003FFC
00001FFC
00000FFC
000007FC
000003FC
000001FC
000000FC
0000007C
0000003C
0000001C
0000000C
00000004
ENDCHAR
STARTCHAR 25E6
ENCODING 9702
SWIDTH 1000 0
DWIDTH 30 0
BBX 8 8 11 7
BITMAP
3C
42
81
81
81
81
42
3C
ENDCHAR
STARTCHAR 25EF
ENCODING 9711
SWIDTH 1000 0
DWIDTH 30 0
BBX 28 30 1 -4
BITMAP
003FC000
00E07000
03000C00
06000600
08000100
10000080
300000C0
20000040
40000020
40000020
C0000030
80000010
80000010
80000010
80000010
80000010
80000010
80000010
80000010
C0000010
40000020
40000020
20000040
30000040
10000080
08000100
06000200
03000C00
00E07000
003FC000
ENDCHAR
STARTCHAR 2600
ENCODING 9728
SWIDTH 1000 0
DWIDTH 30 0
BBX 28 30 1 -4
BITMAP
00060000
00060000
00060000
00060000
08060100
04000200
06000400
031F8C00
003FC000
007FF000
00FFF000
01FFF800
01FFF800
01FFF800
F9FFF9F0
01FFF800
01FFF800
01FFF800
00FFF000
00FFF000
007FE000
003FC000
030F0C00
06000600
0C000300
08060100
00060000
00060000
00060000
00060000
ENDCHAR
STARTCHAR 2601
ENCODING 9729
SWIDTH 1000 0
DWIDTH 30 0
BBX 26 20 2 1
BITMAP
007E0000
01FF0000
01FF8000
03FFC000
03FFC000
07FFCF80
07FFDFC0
07FFFFC0
0FFFFFC0
3FFFFFC0
7FFFFF80
FFFFFF00
FFFFFF00
FFFFFF80
FFF7FFC0
FFE7FFC0
7FC7FFC0
3F03FF80
0001FF00
00007E00
ENDCHAR
STARTCHAR 2602
ENCODING 9730
SWIDTH 1000 0
DWIDTH 30 0
BBX 28 27 1 -2
BITMAP
00060000
000F0000
00FFF000
03FFFC00
0FFFFF00
1FFFFF80
3FFFFFC0
3FFFFFE0
7FFFFFE0
6FDFBF60
C30F0C30
83060C10
82060810
00060000
00060000
00060000
00060000
00060000
00060000
00060000
00060000
00060000
00060000
00460000
00460000
00640000
003C0000
ENDCHAR
STARTCHAR 2603
ENCODING 9731
SWIDTH 1000 0
DWIDTH 30 0
BBX 28 28 1 -2
BITMAP
C00C2070
00005020
03008800
03010600
00020100
00040100
303C0200
30C20460
01018460
02007C00
04000200
0439C200
64118200
62000400
02108400
010F0830
02000430
04000200
C8000100
10060080
10060080
10000080
10000080
10060080
10060080
08000100
04000200
03FFFC00
ENDCHAR
STARTCHAR 2605
ENCODING 9733
SWIDTH 1000 0
DWIDTH 30 0
BBX 28 26 1 -2
BITMAP
00040000
00060000
00060000
000F0000
000F0000
000F0000
001F8000
001F8000
001F8000
003FC000
FFFFFFF0
3FFFFFC0
1FFFFF80
07FFFE00
03FFFC00
01FFF800
00FFF000
00FFF000
01FFF800
01FFF800
01FFF800
01F0F800
03E07C00
03C03C00
03000C00
06000600
ENDCHAR
STARTCHAR 2606
ENCODING 9734
SWIDTH 1000 0
DWIDTH 30 0
BBX 28 28 1 -3
BITMAP
00040000
00060000
00060000
00060000
000F0000
00090000
00090000
00198000
00108000
00108000
0030C000
FFE07FF0
300000C0
18000180
0E000600
03000C00
01801800
00801000
00801000
00801000
01801800
010F0800
01198800
0330CC00
02C03400
03801C00
07000E00
04000200
ENDCHAR
STARTCHAR 260E
ENCODING 9742
SWIDTH 1000 0
DWIDTH 30 0
BBX 26 20 2 1
BITMAP
00FFC000
07FFF800
3FFFFF00
7FFFFF80
FEE1DFC0
FEFFDFC0
FEFFDFC0
FDE1EFC0
F9C0E7C0
03807000
03003800
0F003C00
0F003E00
1F003E00
1F003E00
3F807F00
3FC07F00
3FE1FF00
7FFFFF80
3FFFFF00
ENDCHAR
ENDFONT
